<svg height="512pt" viewBox="0 -21 512.00086 512" width="512pt" xmlns="http://www.w3.org/2000/svg"><path d="m457.988281 100.527344h-236.285156c-25.6875 0-46.511719-20.828125-46.511719-46.515625s20.824219-46.511719 46.511719-46.511719h236.285156c25.6875 0 46.511719 20.824219 46.511719 46.511719s-20.824219 46.515625-46.511719 46.515625zm0 0" fill="#ffcd00"/><path d="m457.988281 190.878906h-236.285156c-25.6875 0-46.511719-20.824218-46.511719-46.511718s20.824219-46.511719 46.511719-46.511719h236.285156c25.6875 0 46.511719 20.824219 46.511719 46.511719s-20.824219 46.511718-46.511719 46.511718zm0 0" fill="#ffb600"/><path d="m182.550781 119.246094c-4.660156 7.246094-7.359375 15.863281-7.359375 25.121094 0 25.6875 20.824219 46.511718 46.511719 46.511718h114.640625c-42.546875-55.324218-106.601562-69.589844-153.792969-71.632812zm0 0" fill="#ff9700"/><path d="m457.988281 281.234375h-236.285156c-25.6875 0-46.511719-20.824219-46.511719-46.511719s20.824219-46.511718 46.511719-46.511718h236.285156c25.6875 0 46.511719 20.824218 46.511719 46.511718s-20.824219 46.511719-46.511719 46.511719zm0 0" fill="#ffcd00"/><path d="m175.191406 234.722656c0 25.6875 20.824219 46.511719 46.511719 46.511719h151.929687c-1.972656-15.8125-6.160156-32.28125-13.523437-49.449219-7.234375-16.859375-16.003906-31.269531-25.859375-43.574218h-112.546875c-25.6875 0-46.511719 20.824218-46.511719 46.511718zm0 0" fill="#ffb600"/><path d="m457.988281 371.589844h-236.285156c-25.6875 0-46.511719-20.824219-46.511719-46.511719s20.824219-46.511719 46.511719-46.511719h236.285156c25.6875 0 46.511719 20.824219 46.511719 46.511719s-20.824219 46.511719-46.511719 46.511719zm0 0" fill="#ffb600"/><path d="m175.191406 325.078125c0 25.6875 20.824219 46.511719 46.511719 46.511719h143.957031c6.761719-28.292969 12.351563-59.167969 7.613282-93.023438h-151.570313c-25.6875 0-46.511719 20.824219-46.511719 46.511719zm0 0" fill="#ff9700"/><path d="m457.988281 461.945312h-236.285156c-25.6875 0-46.511719-20.824218-46.511719-46.511718s20.824219-46.511719 46.511719-46.511719h236.285156c25.6875 0 46.511719 20.824219 46.511719 46.511719s-20.824219 46.511718-46.511719 46.511718zm0 0" fill="#ffcd00"/><path d="m366.292969 368.917969h-144.589844c-25.6875 0-46.511719 20.824219-46.511719 46.515625 0 25.6875 20.824219 46.511718 46.511719 46.511718h130.289063c-4.074219-27.664062 6.179687-58.429687 14.300781-93.027343zm0 0" fill="#ffb600"/><path d="m288.988281 249.703125-44.675781-54.203125-215.867188 177.9375 44.675782 54.199219c38.847656 47.128906 118.660156 45.5 178.273437-3.632813 59.609375-49.136718 76.441407-127.175781 37.59375-174.300781zm0 0" fill="#ffde55"/><path d="m206.71875 369.773438c59.605469-49.132813 76.4375-127.164063 37.597656-174.289063-38.84375-47.121094-118.65625-45.496094-178.261718 3.636719-59.605469 49.128906-76.4375 127.160156-37.59375 174.285156s118.652343 45.5 178.257812-3.632812zm0 0" fill="#ffeb99"/><path d="m51.59375 354.355469c-12.832031-15.566407-17.074219-37.226563-11.949219-60.992188 5.683594-26.347656 21.835938-51.59375 45.476563-71.078125 23.644531-19.488281 51.503906-30.523437 78.453125-31.074218 24.308593-.496094 44.761719 7.804687 57.59375 23.371093 12.828125 15.566407 17.070312 37.226563 11.945312 60.992188-5.683593 26.347656-21.835937 51.589843-45.476562 71.078125-23.644531 19.488281-51.503907 30.523437-78.453125 31.074218-24.308594.496094-44.761719-7.804687-57.589844-23.371093zm0 0" fill="#fff8dc"/><path d="m148.59375 17.546875 4.75 8.6875c4.742188 8.660156 11.863281 15.785156 20.527344 20.523437l8.683594 4.75c8.890624 4.863282 8.890624 17.628907 0 22.488282l-8.683594 4.75c-8.664063 4.738281-15.789063 11.863281-20.527344 20.527344l-4.75 8.683593c-4.859375 8.886719-17.625 8.886719-22.488281 0l-4.75-8.683593c-4.738281-8.664063-11.863281-15.789063-20.523438-20.527344l-8.6875-4.75c-8.886719-4.859375-8.886719-17.625 0-22.488282l8.6875-4.75c8.660157-4.738281 15.785157-11.863281 20.523438-20.523437l4.75-8.6875c4.863281-8.890625 17.628906-8.890625 22.488281 0zm0 0" fill="#ffeb99"/><path d="m405.894531 161.308594 3.109375 5.683594c3.097656 5.664062 7.757813 10.324218 13.425782 13.425781l5.683593 3.105469c5.8125 3.179687 5.8125 11.53125 0 14.714843l-5.683593 3.105469c-5.667969 3.101562-10.328126 7.761719-13.425782 13.429688l-3.109375 5.679687c-3.179687 5.816406-11.53125 5.816406-14.710937 0l-3.109375-5.679687c-3.097657-5.667969-7.757813-10.328126-13.425781-13.429688l-5.683594-3.105469c-5.8125-3.179687-5.8125-11.53125 0-14.714843l5.683594-3.105469c5.667968-3.101563 10.328124-7.761719 13.425781-13.425781l3.109375-5.683594c3.179687-5.816406 11.53125-5.816406 14.710937 0zm0 0" fill="#ffeb99"/><path d="m192.933594 244.125-7.917969-9.609375c-2.636719-3.195313-7.359375-3.652344-10.558594-1.015625-3.195312 2.632812-3.652343 7.359375-1.015625 10.554688l7.917969 9.609374c2.636719 3.195313 7.359375 3.652344 10.558594 1.015626 3.195312-2.632813 3.648437-7.359376 1.015625-10.554688zm0 0"/><path d="m89.636719 313.136719c-2.632813-3.195313-7.359375-3.652344-10.558594-1.019531-3.195313 2.636718-3.652344 7.363281-1.015625 10.558593l7.917969 9.609375c2.632812 3.195313 7.359375 3.648438 10.558593 1.015625 3.195313-2.636719 3.652344-7.359375 1.015626-10.558593zm0 0"/><path d="m145.289062 270.898438c-1.507812.164062-7.210937 2.066406-6.644531 8.265624.273438 2.972657-1.429687 4.757813-2.195312 5.390626-.765625.632812-2.859375 2.007812-5.710938 1.125-3.957031-1.222657-8.15625.988281-9.382812 4.945312-1.222657 3.957031.992187 8.15625 4.945312 9.382812 6.820313 2.109376 14.179688.660157 19.6875-3.878906 5.507813-4.539062 8.335938-11.488281 7.566407-18.585937-.445313-4.117188-4.148438-7.089844-8.265626-6.644531zm0 0"/><path d="m240.445312 277.15625c5.621094-26.054688.828126-49.972656-13.492187-67.34375-14.320313-17.375-36.851563-26.632812-63.53125-26.097656-28.628906.582031-58.128906 12.222656-83.070313 32.78125-24.9375 20.558594-41.996093 47.292968-48.035156 75.285156-5.621094 26.054688-.828125 49.972656 13.492188 67.34375 13.921875 16.890625 38.6875 26.101562 63.527344 26.101562 28.636718 0 58.132812-12.230468 83.070312-32.785156 24.941406-20.558594 42-47.296875 48.039062-75.285156zm-131.414062 93.070312c-21.957031.453126-40.3125-6.882812-51.652344-20.640624-11.339844-13.761719-15.035156-33.164063-10.402344-54.640626 5.328126-24.707031 20.570313-48.457031 42.917969-66.875 22.34375-18.417968 48.566407-28.84375 73.835938-29.359374 21.933593-.457032 40.308593 6.882812 51.648437 20.640624 11.34375 13.761719 15.035156 33.164063 10.402344 54.640626-5.328125 24.707031-20.566406 48.457031-42.914062 66.875-22.34375 18.417968-48.566407 28.84375-73.835938 29.359374zm0 0"/><path d="m512 144.367188c0-18.851563-9.714844-35.472657-24.398438-45.136719 14.921876-9.746094 24.398438-26.53125 24.398438-45.21875 0-29.78125-24.230469-54.011719-54.011719-54.011719h-236.285156c-23.257813 0-43.308594 14.539062-50.847656 35.710938-4.433594-3.597657-8.160157-8.011719-10.929688-13.078126l-4.75-8.683593c-3.566406-6.519531-10.398437-10.566407-17.824219-10.566407-7.429687 0-14.261718 4.046876-17.824218 10.566407l-4.75 8.683593c-4.058594 7.421876-10.125 13.488282-17.546875 17.546876l-8.683594 4.75c-6.519531 3.5625-10.566406 10.394531-10.566406 17.824218 0 7.429688 4.046875 14.257813 10.566406 17.824219l8.683594 4.75c7.421875 4.058594 13.488281 10.121094 17.546875 17.542969l4.75 8.6875c3.5625 6.515625 10.394531 10.566406 17.824218 10.566406 7.429688 0 14.257813-4.050781 17.824219-10.570312l4.75-8.683594c4.058594-7.421875 10.125-13.484375 17.542969-17.542969l.152344-.085937c3.933594 5.5625 8.851562 10.285156 14.488281 13.976562-32.121094 20.027344-24.132813 51.441406-23.597656 54.511719-39.601563 1.332031-77.113281 14.785156-107.242188 39.617187-30.125 24.835938-50.824219 57.546875-58.277343 92.109375-7.597657 35.210938-.613282 68.148438 19.664062 92.75l44.675781 54.199219c19.742188 23.949219 61.304688 47.785156 128.265625 30.316406 7.964844 4.40625 16.917969 6.722656 26.105469 6.722656h236.285156c29.78125 0 54.011719-24.230468 54.011719-54.011718 0-18.855469-9.714844-35.472656-24.398438-45.140625 14.921876-9.746094 24.398438-26.527344 24.398438-45.214844 0-18.855469-9.714844-35.472656-24.398438-45.136719 14.921876-9.746094 24.398438-26.53125 24.398438-45.21875 0-18.847656-9.710938-35.464844-24.386719-45.128906 14.925781-9.726562 24.386719-26.472656 24.386719-45.226562zm-365.234375-48.695313-4.75 8.6875c-1.363281 2.496094-3.71875 2.765625-4.664063 2.765625-.949218 0-3.300781-.269531-4.667968-2.765625l-4.75-8.683594c-5.433594-9.941406-13.5625-18.070312-23.503906-23.507812l-8.6875-4.75c-2.496094-1.363281-2.765626-3.714844-2.765626-4.664063 0-.949218.269532-3.300781 2.765626-4.667968l8.6875-4.75c9.941406-5.4375 18.070312-13.566407 23.503906-23.503907l4.75-8.6875c1.367187-2.496093 3.71875-2.765625 4.667968-2.765625.945313 0 3.300782.269532 4.664063 2.765625l4.75 8.6875c5.4375 9.941407 13.566406 18.066407 23.507813 23.503907l8.683593 4.75c2.496094 1.367187 2.765625 3.71875 2.765625 4.664062 0 .949219-.269531 3.300781-2.765625 4.667969l-8.683593 4.75c-9.941407 5.433593-18.070313 13.5625-23.507813 23.503906zm-67.859375 327.195313-11.585938-14.058594c11.566407 3.992187 24.175782 6.1875 37.507813 6.417968h.132813c4.078124 0 7.425781-3.273437 7.496093-7.371093.070313-4.140625-3.230469-7.554688-7.371093-7.628907-29.332032-.503906-54.496094-11.714843-70.851563-31.5625-17.300781-20.984374-23.1875-49.410156-16.582031-80.042968 6.746094-31.277344 25.628906-61.003906 53.160156-83.699219 27.535156-22.695313 60.316406-35.550781 92.304688-36.203125 31.289062-.636719 58.113281 10.566406 75.410156 31.550781 17.300781 20.988281 23.1875 49.414063 16.578125 80.046875-6.746094 31.277344-25.625 61.003906-53.15625 83.699219-20.109375 16.574219-43.328125 28.054687-67.152344 33.203125-4.046875.875-6.621094 4.863281-5.746094 8.914062.875 4.046876 4.871094 6.621094 8.914063 5.746094 26.152344-5.652344 51.578125-18.199218 73.523437-36.289062 30.128907-24.832032 50.824219-57.546875 58.28125-92.109375 3.210938-14.894531 3.804688-29.382813 1.898438-43.003907l11.535156 13.996094c36.15625 43.863282 19.746094 117.316406-36.578125 163.742188-56.324219 46.425781-131.5625 48.511718-167.71875 4.652344zm418.09375-97.789063c0 17.46875-11.453125 32.632813-28.0625 37.457031-3.539062-.730468-7.199219-1.117187-10.949219-1.117187h-129.921875c-4.140625 0-7.496094 3.359375-7.496094 7.5 0 4.144531 3.355469 7.5 7.496094 7.5h129.921875c21.511719 0 39.011719 17.5 39.011719 39.015625 0 21.511718-17.5 39.011718-39.011719 39.011718 0 0-238.984375-.09375-240.320312-.230468 13.496093-6.320313 26.46875-14.511719 38.496093-24.425782 30.125-24.832031 50.824219-57.542968 58.277344-92.109374 3.902344-18.078126 3.949219-35.554688.332032-51.617188h143.214843c21.511719 0 39.011719 17.503906 39.011719 39.015625zm0-90.355469c0 17.46875-11.453125 32.632813-28.0625 37.457032-3.539062-.730469-7.199219-1.117188-10.949219-1.117188h-147.820312c-8.148438-22.398438-55.964844-75.355469-55.964844-75.355469h103.660156c1.222657 3.832031 3.871094 7.121094 7.503907 9.109375l5.683593 3.105469c4.417969 2.417969 8.027344 6.03125 10.445313 10.445313l3.105468 5.683593c2.789063 5.09375 8.128907 8.261719 13.9375 8.261719 5.808594 0 11.148438-3.167969 13.933594-8.261719l3.109375-5.683593c2.414063-4.417969 6.027344-8.027344 10.445313-10.445313l5.683594-3.105469c3.632812-1.988281 6.277343-5.277344 7.5-9.109375h18.777343c21.511719.003907 39.011719 17.503907 39.011719 39.015625zm-124.894531-43.84375c0-.523437 6.140625-3.882812 6.140625-3.882812 6.941406-3.792969 12.613281-9.46875 16.410156-16.40625 0 0 3.359375-6.140625 3.882812-6.140625.523438 0 3.882813 6.140625 3.882813 6.140625 3.796875 6.9375 9.46875 12.613281 16.410156 16.40625 0 0 6.140625 3.359375 6.140625 3.882812 0 .527344-6.140625 3.886719-6.140625 3.886719-6.941406 3.792969-12.613281 9.46875-16.410156 16.40625 0 0-3.359375 6.144531-3.882813 6.144531-.523437 0-3.882812-6.144531-3.882812-6.144531-3.796875-6.9375-9.46875-12.613281-16.410156-16.40625 0-.003906-6.140625-3.359375-6.140625-3.886719zm85.882812-10.167968h-21.710937c-1.253906-1.503907-10.25-6.875-10.25-6.875-4.417969-2.414063-8.027344-6.027344-10.445313-10.441407l-3.105469-5.683593c-2.789062-5.097657-8.128906-8.261719-13.9375-8.261719-5.808593 0-11.148437 3.164062-13.9375 8.261719l-3.105468 5.679687c-2.417969 4.417969-6.027344 8.03125-10.445313 10.445313 0 0-8.996093 5.371093-10.25 6.875h-120.246093c-15.140626-13.792969-34.453126-22.59375-56.394532-25.726563-10.542968-25.449219 8.269532-49.628906 37.542969-49.628906h113.640625c4.144531 0 7.5-3.359375 7.5-7.5s-3.355469-7.5-7.5-7.5h-113.640625c-3.742187 0-7.398437.382812-10.925781 1.113281-8.175782-2.375-15.257813-7.324219-20.296875-14.070312 3.933593-3.777344 6.242187-9.039063 6.242187-14.648438 0-12.96875-12.675781-18.972656-12.675781-18.972656 4.535156-16.894532 19.78125-28.777344 37.65625-28.777344h236.285156c21.511719 0 39.011719 17.5 39.011719 39.011719 0 17.46875-11.453125 32.632812-28.0625 37.460937-3.539062-.730468-7.199219-1.117187-10.949219-1.117187h-91.542969c-4.144531 0-7.5 3.355469-7.5 7.5 0 4.140625 3.355469 7.496093 7.5 7.496093h91.542969c21.511719 0 39.011719 17.503907 39.011719 39.015626 0 17.535156-11.441406 32.640624-28.074219 37.457031-3.535156-.730469-7.191406-1.113281-10.9375-1.113281zm0 0"/></svg>