<svg height="512" viewBox="0 0 60 44" width="512" xmlns="http://www.w3.org/2000/svg"><g id="020---Free" fill="none"><g id="Icons" transform="translate(1 1)"><path id="Shape" d="m38 27h-17l-3-3h-8l-3 3h-7v-25c0-1.1045695.8954305-2 2-2h34c1.1045695 0 2 .8954305 2 2z" fill="#f57c00"/><path id="Shape" d="m35 27h-14l-3-3h-8l-3 3h-7v-25c0-1.1045695.8954305-2 2-2h31c1.1045695 0 2 .8954305 2 2z" fill="#ff9801"/><path id="Shape" d="m58 20v5c0 1.1045695-.8954305 2-2 2h-2v-9h2c1.1045695 0 2 .8954305 2 2z" fill="#cfd8dc"/><path id="Shape" d="m54 14v13h-16v-25c0-.55228475.4477153-1 1-1h8.78c.758944.00040273 1.45227.43034232 1.79 1.11 1.9 3.89.87 1.23 4.43 11.89z" fill="#0377bc"/><path id="Shape" d="m51 14v13h-13v-25c0-.55228475.4477153-1 1-1h5.78c.758944.00040273 1.45227.43034232 1.79 1.11 1.9 3.89.87 1.23 4.43 11.89z" fill="#02a9f4"/><path id="Shape" d="m54 27-1.85 4.64c-1.5306306-2.8156545-4.7778964-4.232248-7.882939-3.4388683-3.1050425.7933797-5.2747342 3.5940779-5.267061 6.7988683h-18c0-3.8659932-3.1340068-7-7-7s-7 3.1340068-7 7h-2c-1.1045695 0-2-.8954305-2-2v-6h4l3-3h8l3 3h18l3-3h8l3 3z" fill="#9e9e9e"/><path id="Shape" d="m54 11.47v6.53c0-2.53-1.55-4-4-4.71-1.48-.38-2-.29-6-.29-.5522847 0-1-.4477153-1-1v-6c-.0126631-.4736615.3088324-.89118817.77-1h7.23c2.93 5.86 3 5.82 3 6.47z" fill="#00838f"/><path id="Shape" d="m51 11.47v2.16c-1.94-.82-3.49-.63-7-.63-.5522847 0-1-.4477153-1-1v-6c-.0126631-.4736615.3088324-.89118817.77-1 1.4088988-.07880853 2.8211012-.07880853 4.23 0 2.93 5.86 3 5.82 3 6.47z" fill="#00bcd4"/><rect id="Rectangle-path" fill="#707070" height="6" rx="1" width="8.01" x="24.97" y="31"/><rect id="Rectangle-path" fill="#9e9e9e" height="6" rx="1" width="5.01" x="24.97" y="31"/><path id="Shape" d="m21 35c0 3.8659932-3.1340068 7-7 7s-7-3.1340068-7-7 3.1340068-7 7-7 7 3.1340068 7 7z" fill="#3f51b5"/><circle id="Oval" cx="13.96" cy="35" fill="#9e9e9e" r="3"/><path id="Shape" d="m53 35c0 3.8659932-3.1340068 7-7 7s-7-3.1340068-7-7 3.1340068-7 7-7c1.8565154 0 3.6369928.7374979 4.9497475 2.0502525 1.3127546 1.3127547 2.0502525 3.0932321 2.0502525 4.9497475z" fill="#3f51b5"/><circle id="Oval" cx="46.01" cy="35" fill="#9e9e9e" r="3"/></g><g id="Layer_10" fill="#000"><path id="Shape" d="m15 32c-2.209139 0-4 1.790861-4 4s1.790861 4 4 4 4-1.790861 4-4-1.790861-4-4-4zm0 6c-1.1045695 0-2-.8954305-2-2s.8954305-2 2-2 2 .8954305 2 2-.8954305 2-2 2z"/><path id="Shape" d="m47 32c-2.209139 0-4 1.790861-4 4s1.790861 4 4 4 4-1.790861 4-4-1.790861-4-4-4zm0 6c-1.1045695 0-2-.8954305-2-2s.8954305-2 2-2 2 .8954305 2 2-.8954305 2-2 2z"/><path id="Shape" d="m57 18h-1v-5.54c0-1.05 0-.73-4.56-9.8-.507189-1.01593301-1.5445009-1.65844711-2.68-1.66-9.53 0-9-.05-9.44.12-.5655146-.70327506-1.4175735-1.11461385-2.32-1.12h-34c-1.65685425 0-3 1.34314575-3 3v25c0 .5522847.44771525 1 1 1h2v5c0 1.6568542 1.34314575 3 3 3h1c.24731549 1.9352628 1.19330857 3.7134452 2.66 5h-8.66c-.55228475 0-1 .4477153-1 1s.44771525 1 1 1h58c.5522847 0 1-.4477153 1-1s-.4477153-1-1-1h-6.72c2.7025298-2.3283227 3.5205769-6.1731439 2-9.4l1.4-3.6h1.32c1.6568542 0 3-1.3431458 3-3v-5c0-1.6568542-1.3431458-3-3-3zm-5.63-11c2.75 5.47 2.63 5.14 2.63 5.47v2.18c-1.4457769-1.0735437-3.1992329-1.6521842-5-1.65h-4v-6zm-1.71-3.44.72 1.44h-5.38c-1.1045695 0-2 .8954305-2 2v6c0 1.1045695.8954305 2 2 2h4c.2 0 5 .05 5 4v7.59c-2.46-2.46-2.45-2.59-3-2.59h-8c-.55 0-.54.13-3 2.59v-23.59000201l8.76.00000201c.3823951-.00076527.7317466.21660898.9.56zm-47.66 23.44v-24c0-.55228475.44771525-1 1-1h34c.5522847 0 1 .44771525 1 1v24h-15.59l-2.7-2.71c-.1887188-.1871865-.444197-.2915368-.71-.29h-8c-.265803-.0015368-.5212812.1028135-.71.29l-2.7 2.71zm7 9c0-2.4267735 1.4618531-4.6145912 3.7038994-5.5432772s4.8227533-.4153515 6.5387413 1.3006365 2.2293225 4.296695 1.3006365 6.5387413-3.1165037 3.7038994-5.5432772 3.7038994c-3.3137085 0-6-2.6862915-6-6zm11.28 6c1.4666914-1.2865548 2.4126845-3.0647372 2.66-5h2.06c0 1.1045695.8954305 2 2 2h6c1.1045695 0 2-.8954305 2-2h4.09c.2473155 1.9352628 1.1933086 3.7134452 2.66 5zm6.72-9h6v4h-6zm20 9c-2.4267735 0-4.6145912-1.4618531-5.5432772-3.7038994s-.4153515-4.8227533 1.3006365-6.5387413 4.296695-2.2293225 6.5387413-1.3006365 3.7038994 3.1165037 3.7038994 5.5432772c0 3.3137085-2.6862915 6-6 6zm-7.94-7h-4.06v-2c0-1.1045695-.8954305-2-2-2h-6c-1.1045695 0-2 .8954305-2 2v2h-2.1c-.4546311-4.0472586-3.8772869-7.1069714-7.95-7.1069714s-7.49536886 3.0597128-7.95 7.1069714h-1c-.55228475 0-1-.4477153-1-1v-5c3.26 0 3.32.09 3.71-.29l2.7-2.71h7.18l2.7 2.71c.1887188.1871865.444197.2915368.71.29 19.67 0 18.3.11 18.71-.29l2.7-2.71h7.18c2.95 3 2.73 2.77 3 2.89l-.68 1.7c-2.1061652-2.3013817-5.3580191-3.1685177-8.3304301-2.2213838-2.972411.9471338-5.1231183 3.5357506-5.5095699 6.6313838zm18.94-9c0 .5522847-.4477153 1-1 1h-1v-7h1c.5522847 0 1 .4477153 1 1z"/><path id="Shape" d="m43 20h3c.5522847 0 1-.4477153 1-1s-.4477153-1-1-1h-3c-.5522847 0-1 .4477153-1 1s.4477153 1 1 1z"/><path id="Shape" d="m10 14c.5522847 0 1-.4477153 1-1s-.4477153-1-1-1h-4v-3h4c.5522847 0 1-.44771525 1-1s-.4477153-1-1-1h-5c-.55228475 0-1 .44771525-1 1v12c0 .5522847.44771525 1 1 1s1-.4477153 1-1v-6z"/><path id="Shape" d="m22 21h5c.5522847 0 1-.4477153 1-1s-.4477153-1-1-1h-4v-4h4c.5522847 0 1-.4477153 1-1s-.4477153-1-1-1h-4v-4h4c.5522847 0 1-.44771525 1-1s-.4477153-1-1-1h-5c-.5522847 0-1 .44771525-1 1v12c0 .5522847.4477153 1 1 1z"/><path id="Shape" d="m30 21h5c.5522847 0 1-.4477153 1-1s-.4477153-1-1-1h-4v-4h4c.5522847 0 1-.4477153 1-1s-.4477153-1-1-1h-4v-4h4c.5522847 0 1-.44771525 1-1s-.4477153-1-1-1h-5c-.5522847 0-1 .44771525-1 1v12c0 .5522847.4477153 1 1 1z"/><path id="Shape" d="m13 21c.5522847 0 1-.4477153 1-1v-6h2.63c.37.37 1.37 1.82 1.37 6 0 .5522847.4477153 1 1 1s1-.4477153 1-1c0-3.65-.71-5.64-1.4-6.72 1.2009029-.9024681 1.6895867-2.4721369 1.2131872-3.89679827s-1.810984-2.38463855-3.3131872-2.38320173h-3.5c-.5522847 0-1 .44771525-1 1v12c0 .5522847.4477153 1 1 1zm1-12h2.5c.8284271 0 1.5.67157288 1.5 1.5 0 .8284271-.6715729 1.5-1.5 1.5h-2.5z"/></g></g></svg>