<?xml version="1.0" encoding="utf-8"?>
<!-- Generator: Adobe Illustrator 23.1.0, SVG Export Plug-In . SVG Version: 6.00 Build 0)  -->
<svg version="1.1" id="Layer_1" xmlns="http://www.w3.org/2000/svg" xmlns:xlink="http://www.w3.org/1999/xlink" x="0px" y="0px"
	 viewBox="0 0 1099.1 705.5" style="enable-background:new 0 0 1099.1 705.5;" xml:space="preserve">
<style type="text/css">
	.st0{fill:#E1FFF5;}
	.st1{fill:#00EDB1;}
	.st2{fill:#00D38D;}
	.st3{fill:#00C47D;}
	.st4{fill:#1D2339;}
</style>
<rect class="st0" width="1099.1" height="705.5"/>
<path class="st1" d="M751.5,218.3H515.3c-25.7,0-46.5-20.8-46.5-46.5s20.8-46.5,46.5-46.5h236.3c25.7,0,46.5,20.8,46.5,46.5
	S777.2,218.3,751.5,218.3z"/>
<path class="st2" d="M751.5,308.6H515.3c-25.7,0-46.5-20.8-46.5-46.5s20.8-46.5,46.5-46.5h236.3c25.7,0,46.5,20.8,46.5,46.5
	S777.2,308.6,751.5,308.6z"/>
<path class="st3" d="M476.1,237c-4.7,7.2-7.4,15.9-7.4,25.1c0,25.7,20.8,46.5,46.5,46.5h114.6C587.4,253.3,523.3,239,476.1,237z"/>
<path class="st1" d="M751.5,399H515.3c-25.7,0-46.5-20.8-46.5-46.5s20.8-46.5,46.5-46.5h236.3c25.7,0,46.5,20.8,46.5,46.5
	S777.2,399,751.5,399z"/>
<path class="st2" d="M468.8,352.5c0,25.7,20.8,46.5,46.5,46.5h151.9c-2-15.8-6.2-32.3-13.5-49.4c-7.2-16.9-16-31.3-25.9-43.6H515.3
	C489.6,306,468.8,326.8,468.8,352.5z"/>
<path class="st2" d="M751.5,489.3H515.3c-25.7,0-46.5-20.8-46.5-46.5s20.8-46.5,46.5-46.5h236.3c25.7,0,46.5,20.8,46.5,46.5
	S777.2,489.3,751.5,489.3z"/>
<path class="st3" d="M468.8,442.8c0,25.7,20.8,46.5,46.5,46.5h144c6.8-28.3,12.4-59.2,7.6-93H515.3
	C489.6,396.3,468.8,417.1,468.8,442.8z"/>
<path class="st1" d="M751.5,579.7H515.3c-25.7,0-46.5-20.8-46.5-46.5s20.8-46.5,46.5-46.5h236.3c25.7,0,46.5,20.8,46.5,46.5
	S777.2,579.7,751.5,579.7z"/>
<path class="st2" d="M659.9,486.7H515.3c-25.7,0-46.5,20.8-46.5,46.5c0,25.7,20.8,46.5,46.5,46.5h130.3
	C641.5,552,651.7,521.3,659.9,486.7z"/>
<path class="st2" d="M582.5,367.4l-44.7-54.2L322,491.2l44.7,54.2c38.8,47.1,118.7,45.5,178.3-3.6
	C604.6,492.6,621.4,414.6,582.5,367.4z"/>
<path class="st1" d="M500.3,487.5c59.6-49.1,76.4-127.2,37.6-174.3c-38.8-47.1-118.7-45.5-178.3,3.6C300,366,283.2,444,322,491.1
	S440.7,536.6,500.3,487.5z"/>
<path class="st0" d="M345.2,472.1c-12.8-15.6-17.1-37.2-11.9-61c5.7-26.3,21.8-51.6,45.5-71.1c23.6-19.5,51.5-30.5,78.5-31.1
	c24.3-0.5,44.8,7.8,57.6,23.4c12.8,15.6,17.1,37.2,11.9,61c-5.7,26.3-21.8,51.6-45.5,71.1c-23.6,19.5-51.5,30.5-78.5,31.1
	C378.4,496,358,487.7,345.2,472.1z"/>
<path class="st0" d="M442.2,135.3l4.8,8.7c4.7,8.7,11.9,15.8,20.5,20.5l8.7,4.8c8.9,4.9,8.9,17.6,0,22.5l-8.7,4.8
	c-8.7,4.7-15.8,11.9-20.5,20.5l-4.8,8.7c-4.9,8.9-17.6,8.9-22.5,0l-4.8-8.7c-4.7-8.7-11.9-15.8-20.5-20.5l-8.7-4.8
	c-8.9-4.9-8.9-17.6,0-22.5l8.7-4.8c8.7-4.7,15.8-11.9,20.5-20.5l4.8-8.7C424.5,126.4,437.3,126.4,442.2,135.3z"/>
<path class="st0" d="M699.5,279.1l3.1,5.7c3.1,5.7,7.8,10.3,13.4,13.4l5.7,3.1c5.8,3.2,5.8,11.5,0,14.7l-5.7,3.1
	c-5.7,3.1-10.3,7.8-13.4,13.4l-3.1,5.7c-3.2,5.8-11.5,5.8-14.7,0l-3.1-5.7c-3.1-5.7-7.8-10.3-13.4-13.4l-5.7-3.1
	c-5.8-3.2-5.8-11.5,0-14.7l5.7-3.1c5.7-3.1,10.3-7.8,13.4-13.4l3.1-5.7C687.9,273.2,696.3,273.2,699.5,279.1z"/>
<path class="st4" d="M534,394.9c5.6-26.1,0.8-50-13.5-67.3c-14.3-17.4-36.9-26.6-63.5-26.1c-28.6,0.6-58.1,12.2-83.1,32.8
	c-24.9,20.6-42,47.3-48,75.3c-5.6,26.1-0.8,50,13.5,67.3c13.9,16.9,38.7,26.1,63.5,26.1c28.6,0,58.1-12.2,83.1-32.8
	C510.9,449.6,528,422.9,534,394.9z M402.6,488c-22,0.5-40.3-6.9-51.7-20.6c-11.3-13.8-15-33.2-10.4-54.6
	c5.3-24.7,20.6-48.5,42.9-66.9c22.3-18.4,48.6-28.8,73.8-29.4c21.9-0.5,40.3,6.9,51.6,20.6c11.3,13.8,15,33.2,10.4,54.6
	c-5.3,24.7-20.6,48.5-42.9,66.9C454.1,477,427.9,487.5,402.6,488z"/>
<path class="st4" d="M805.6,262.1c0-18.9-9.7-35.5-24.4-45.1c14.9-9.7,24.4-26.5,24.4-45.2c0-29.8-24.2-54-54-54H515.3
	c-23.3,0-43.3,14.5-50.8,35.7c-4.4-3.6-8.2-8-10.9-13.1l-4.8-8.7c-3.6-6.5-10.4-10.6-17.8-10.6c-7.4,0-14.3,4-17.8,10.6l-4.8,8.7
	c-4.1,7.4-10.1,13.5-17.5,17.5l-8.7,4.8c-6.5,3.6-10.6,10.4-10.6,17.8s4,14.3,10.6,17.8l8.7,4.8c7.4,4.1,13.5,10.1,17.5,17.5
	l4.8,8.7c3.6,6.5,10.4,10.6,17.8,10.6s14.3-4.1,17.8-10.6l4.8-8.7c4.1-7.4,10.1-13.5,17.5-17.5l0.2-0.1c3.9,5.6,8.9,10.3,14.5,14
	c-32.1,20-24.1,51.4-23.6,54.5c-39.6,1.3-77.1,14.8-107.2,39.6c-30.1,24.8-50.8,57.5-58.3,92.1c-7.6,35.2-0.6,68.1,19.7,92.8
	l44.7,54.2c19.7,23.9,61.3,47.8,128.3,30.3c8,4.4,16.9,6.7,26.1,6.7h236.3c29.8,0,54-24.2,54-54c0-18.9-9.7-35.5-24.4-45.1
	c14.9-9.7,24.4-26.5,24.4-45.2c0-18.9-9.7-35.5-24.4-45.1c14.9-9.7,24.4-26.5,24.4-45.2c0-18.8-9.7-35.5-24.4-45.1
	C796.1,297.6,805.6,280.9,805.6,262.1z M440.3,213.4l-4.8,8.7c-1.4,2.5-3.7,2.8-4.7,2.8c-0.9,0-3.3-0.3-4.7-2.8l-4.8-8.7
	c-5.4-9.9-13.6-18.1-23.5-23.5l-8.7-4.8c-2.5-1.4-2.8-3.7-2.8-4.7s0.3-3.3,2.8-4.7l8.7-4.8c9.9-5.4,18.1-13.6,23.5-23.5l4.8-8.7
	c1.4-2.5,3.7-2.8,4.7-2.8c0.9,0,3.3,0.3,4.7,2.8l4.8,8.7c5.4,9.9,13.6,18.1,23.5,23.5l8.7,4.8c2.5,1.4,2.8,3.7,2.8,4.7
	c0,0.9-0.3,3.3-2.8,4.7l-8.7,4.8C453.9,195.3,445.8,203.5,440.3,213.4z M372.5,540.6l-11.6-14.1c11.6,4,24.2,6.2,37.5,6.4h0.1
	c4.1,0,7.4-3.3,7.5-7.4c0.1-4.1-3.2-7.6-7.4-7.6c-29.3-0.5-54.5-11.7-70.9-31.6c-17.3-21-23.2-49.4-16.6-80
	c6.7-31.3,25.6-61,53.2-83.7c27.5-22.7,60.3-35.6,92.3-36.2c31.3-0.6,58.1,10.6,75.4,31.6c17.3,21,23.2,49.4,16.6,80
	c-6.7,31.3-25.6,61-53.2,83.7c-20.1,16.6-43.3,28.1-67.2,33.2c-4,0.9-6.6,4.9-5.7,8.9c0.9,4,4.9,6.6,8.9,5.7
	c26.2-5.7,51.6-18.2,73.5-36.3c30.1-24.8,50.8-57.5,58.3-92.1c3.2-14.9,3.8-29.4,1.9-43l11.5,14c36.2,43.9,19.7,117.3-36.6,163.7
	S408.6,584.5,372.5,540.6z M790.6,442.8c0,17.5-11.5,32.6-28.1,37.5c-3.5-0.7-7.2-1.1-10.9-1.1H621.6c-4.1,0-7.5,3.4-7.5,7.5
	c0,4.1,3.4,7.5,7.5,7.5h129.9c21.5,0,39,17.5,39,39c0,21.5-17.5,39-39,39c0,0-239-0.1-240.3-0.2c13.5-6.3,26.5-14.5,38.5-24.4
	c30.1-24.8,50.8-57.5,58.3-92.1c3.9-18.1,3.9-35.6,0.3-51.6h143.2C773.1,403.8,790.6,421.3,790.6,442.8z M790.6,352.5
	c0,17.5-11.5,32.6-28.1,37.5c-3.5-0.7-7.2-1.1-10.9-1.1H603.7c-8.1-22.4-56-75.4-56-75.4h103.7c1.2,3.8,3.9,7.1,7.5,9.1l5.7,3.1
	c4.4,2.4,8,6,10.4,10.4l3.1,5.7c2.8,5.1,8.1,8.3,13.9,8.3s11.1-3.2,13.9-8.3l3.1-5.7c2.4-4.4,6-8,10.4-10.4l5.7-3.1
	c3.6-2,6.3-5.3,7.5-9.1h18.8C773.1,313.5,790.6,331,790.6,352.5z M665.7,308.6c0-0.5,6.1-3.9,6.1-3.9c6.9-3.8,12.6-9.5,16.4-16.4
	c0,0,3.4-6.1,3.9-6.1s3.9,6.1,3.9,6.1c3.8,6.9,9.5,12.6,16.4,16.4c0,0,6.1,3.4,6.1,3.9c0,0.5-6.1,3.9-6.1,3.9
	c-6.9,3.8-12.6,9.5-16.4,16.4c0,0-3.4,6.1-3.9,6.1s-3.9-6.1-3.9-6.1c-3.8-6.9-9.5-12.6-16.4-16.4
	C671.8,312.5,665.7,309.1,665.7,308.6z M751.5,298.5h-21.7c-1.3-1.5-10.3-6.9-10.3-6.9c-4.4-2.4-8-6-10.4-10.4l-3.1-5.7
	c-2.8-5.1-8.1-8.3-13.9-8.3s-11.1,3.2-13.9,8.3l-3.1,5.7c-2.4,4.4-6,8-10.4,10.4c0,0-9,5.4-10.3,6.9H534.1
	c-15.1-13.8-34.5-22.6-56.4-25.7c-10.5-25.4,8.3-49.6,37.5-49.6h113.6c4.1,0,7.5-3.4,7.5-7.5s-3.4-7.5-7.5-7.5H515.3
	c-3.7,0-7.4,0.4-10.9,1.1c-8.2-2.4-15.3-7.3-20.3-14.1c3.9-3.8,6.2-9,6.2-14.6c0-13-12.7-19-12.7-19c4.5-16.9,19.8-28.8,37.7-28.8
	h236.3c21.5,0,39,17.5,39,39c0,17.5-11.5,32.6-28.1,37.5c-3.5-0.7-7.2-1.1-10.9-1.1H660c-4.1,0-7.5,3.4-7.5,7.5
	c0,4.1,3.4,7.5,7.5,7.5h91.5c21.5,0,39,17.5,39,39c0,17.5-11.4,32.6-28.1,37.5C759,298.8,755.3,298.5,751.5,298.5z"/>
<path class="st4" d="M485.1,373.2l-49.5-11.4c-4.4-1.1-8.8,1.7-9.9,6.1l-6.7,27.7c-0.7,2.8-3.6,4.5-6.4,3.9l0,0l-27.5-6.8
	c-1.8-0.5-3.8-0.4-5.6,0.5c-2.3,1-4,3.1-4.6,5.5l-11.4,45.6l-1.2,4.9l0,0l4.9,1.2l15.9,3.9c2.5,0.6,5.2,0.4,7.5-0.8
	c2.8-1.3,4.9-4,5.6-7l5.8-22.9l0,0l29,8.2c4,1.1,8.1-1.3,9.2-5.2c0-0.2,0.1-0.3,0.1-0.5l5.6-30.1l0,0l26.2,5.7l0,0
	c3.3,0.5,6.5-1.7,7.3-4.9L485.1,373.2L485.1,373.2z M407.5,403.4L406,404c-3,1-5.2,3.4-5.9,6.5l-8.7,35c-0.8,3.1-3.7,4.9-6.9,4.2
	l0,0l-16-3.9l0,0l11.3-45.7c0.4-1.7,2.2-2.8,3.9-2.4l0,0L407.5,403.4z M451,370.6L451,370.6c-0.1,0.1-4.9,1.3-6,5.9l-0.2,0.7l0,0
	l-5.2,21.3c-0.4,1.7-1.5,3.1-2.9,4s-3.2,1.2-4.9,0.7l-9.1-2.2l7.8-31.9c0-0.2,0.1-0.2,0.1-0.3l0-0.2l0.1-0.2l0-0.2l0.1-0.2l0.1-0.1
	c0.1-0.1,0-0.2,0.1-0.2l0.1-0.1l0.1-0.2l0.1-0.1l0.2-0.1l0.1-0.1c0.1-0.1,0.1-0.1,0.2-0.1l0.1-0.1l0.2-0.1l0,0l0.1-0.1l0.1-0.1
	l0.2-0.1l0.1-0.1l0.2-0.1l0.1-0.1l0.2,0l0.1-0.1l0.2,0l0.1-0.1c0.1-0.1,0.2,0,0.2,0l0.2,0l0.2,0l0.2,0c0.2,0,0.2,0,0.3,0.1
	L451,370.6L451,370.6z M493.1,342.5l-6.1,24.8l-27-6.6l3.7-15c1.3-5.4,6.7-8.7,12.1-7.3L493.1,342.5z"/>
</svg>
