<?xml version="1.0" encoding="utf-8"?>
<!-- Generator: Adobe Illustrator 23.1.0, SVG Export Plug-In . SVG Version: 6.00 Build 0)  -->
<svg version="1.1" id="Layer_1" xmlns="http://www.w3.org/2000/svg" xmlns:xlink="http://www.w3.org/1999/xlink" x="0px" y="0px"
	 viewBox="0 0 1099.1 705.5" style="enable-background:new 0 0 1099.1 705.5;" xml:space="preserve">
<style type="text/css">
	.st0{fill:#E1FFF5;}
	.st1{fill:#2C3E66;}
	.st2{fill:#1E2C51;}
	.st3{fill:#132442;}
	.st4{fill:#00EDB1;}
	.st5{fill:#C1E0D5;}
	.st6{fill:#00D38D;}
	.st7{fill:#F1F1F4;}
	.st8{fill:#DFDDE2;}
	.st9{fill:#1D2339;}
</style>
<rect class="st0" width="1099.1" height="705.5"/>
<g>
	<path class="st1" d="M778.8,579.7H320.3c-10.6,0-19.2-8.6-19.2-19.2v-26.1c0-10.6,8.6-19.2,19.2-19.2h458.5
		c10.6,0,19.2,8.6,19.2,19.2v26.1C798,571.1,789.4,579.7,778.8,579.7z"/>
	<path class="st2" d="M778.8,515.2h-21.4c10.6,0,19.2,8.6,19.2,19.2v26.1c0,10.6-8.6,19.2-19.2,19.2h21.4c10.6,0,19.2-8.6,19.2-19.2
		v-26.1C798,523.8,789.4,515.2,778.8,515.2z"/>
	<path class="st2" d="M765.7,515.2H333.4V253.8c0-21.2,17.2-38.3,38.3-38.3h355.6c21.2,0,38.3,17.2,38.3,38.3L765.7,515.2
		L765.7,515.2z"/>
	<path class="st3" d="M727.4,215.5H710c21.2,0,38.3,17.2,38.3,38.3v261.4h17.4V253.8C765.7,232.6,748.6,215.5,727.4,215.5z"/>
	<path class="st3" d="M765.7,287.5h-67.1h-99.4h-99.4h-99.4h-67.1v52c5.4,2,11.3,3.1,17.4,3.1c14.1,0,26.9-5.9,35.9-15.4
		c3.6-3.8,8.6-6.1,13.8-5.9c0.3,0,0.5,0,0.8,0c4.8,0,9.4,2,12.6,5.5c9.1,9.7,22,15.8,36.3,15.8c14.3,0,27.2-6,36.2-15.7
		c3.5-3.7,8.3-5.5,13.4-5.5h0.2c5,0,9.9,1.8,13.3,5.5c9.1,9.7,21.9,15.7,36.3,15.7c14.3,0,27.2-6.1,36.3-15.8
		c3.3-3.5,7.8-5.5,12.6-5.5c0.3,0,0.5,0,0.8,0c5.2-0.2,10.2,2.1,13.8,5.9c9,9.5,21.8,15.4,35.9,15.4c14.3,0,27.3-6.1,36.3-15.8
		c3.2-3.4,7.7-5.4,12.3-5.4c0.2,0,0.5,0,0.7,0c5.2-0.3,10.3,1.8,13.9,5.6c9.2,9.8,22.4,15.9,36.9,15.7c5.9-0.1,11.5-1.2,16.7-3.2
		L765.7,287.5L765.7,287.5z"/>
	<path class="st4" d="M585.8,544.6h-72.5c-7.9,0-15.2-4.6-18.5-11.8l-8.3-17.7h126.2l-8.3,17.7C601,540,593.7,544.6,585.8,544.6z"/>
	<path class="st0" d="M731.6,462.1c0,10.2-8.3,18.5-18.5,18.5H386c-10.2,0-18.5-8.3-18.5-18.5V267.5h364.1V462.1z"/>
	<path class="st5" d="M712.9,267.5v194.7c0,10.2-8.3,18.5-18.5,18.5h18.7c10.2,0,18.5-8.3,18.5-18.5V267.5H712.9z"/>
	<path class="st5" d="M731.6,339.7v-52.2h-33h-99.4h-99.4h-99.4h-33v52.2c7.4-2.6,13.9-6.9,19.2-12.5c3.6-3.8,8.6-6.1,13.8-5.9
		c0.3,0,0.5,0,0.8,0c4.8,0,9.4,2,12.6,5.5c9.1,9.7,22,15.8,36.3,15.8c14.3,0,27.2-6,36.2-15.7c3.5-3.7,8.3-5.5,13.4-5.5h0.2
		c5,0,9.9,1.8,13.3,5.5c9.1,9.7,21.9,15.7,36.3,15.7c14.3,0,27.2-6.1,36.3-15.8c3.3-3.5,7.8-5.5,12.6-5.5c0.3,0,0.5,0,0.8,0
		c5.2-0.2,10.2,2.1,13.8,5.9c9,9.5,21.8,15.4,35.9,15.4c14.3,0,27.3-6.1,36.3-15.8c3.2-3.4,7.7-5.4,12.3-5.4c0.2,0,0.5,0,0.7,0
		c5.2-0.3,10.3,1.8,13.9,5.6C717.5,332.6,724.1,337,731.6,339.7L731.6,339.7z"/>
	<path class="st4" d="M798,267.5h-497l43-122.6c5-14.2,18.4-23.7,33.4-23.7h344.1c15,0,28.4,9.5,33.4,23.7L798,267.5z"/>
	<path class="st6" d="M755,144.9c-5-14.2-18.4-23.7-33.4-23.7H702c15,0,28.4,9.5,33.4,23.7l43,122.6H798L755,144.9z"/>
	<path class="st4" d="M400.5,272.9c0,27.4-22.3,49.7-49.7,49.7c-27.4,0-49.7-22.3-49.7-49.7v-5.4h99.4L400.5,272.9L400.5,272.9z"/>
	<path class="st6" d="M400.5,267.5h-99.4v5.4c0,3.7,0.4,7.2,1.2,10.6h97.1c0.7-3.4,1.2-7,1.2-10.6L400.5,267.5L400.5,267.5z"/>
	<path class="st7" d="M499.9,272.9c0,27.4-22.3,49.7-49.7,49.7c-27.4,0-49.7-22.3-49.7-49.7v-5.4h99.4L499.9,272.9L499.9,272.9z"/>
	<path class="st8" d="M499.9,267.5h-99.4v5.4c0,3.7,0.4,7.2,1.2,10.6h97.1c0.7-3.4,1.2-7,1.2-10.6L499.9,267.5L499.9,267.5z"/>
	<path class="st4" d="M549.6,322.6c-27.4,0-49.7-22.3-49.7-49.7v-5.4h99.4v5.4C599.3,300.3,577,322.6,549.6,322.6z"/>
	<path class="st6" d="M599.3,267.5h-99.4v5.4c0,3.7,0.4,7.2,1.2,10.6h97.1c0.7-3.4,1.2-7,1.2-10.6L599.3,267.5L599.3,267.5z"/>
	<path class="st7" d="M649,322.6c-27.4,0-49.7-22.3-49.7-49.7v-5.4h99.4v5.4C698.7,300.3,676.4,322.6,649,322.6L649,322.6z"/>
	<path class="st8" d="M698.7,267.5h-99.4v5.4c0,3.7,0.4,7.2,1.2,10.6h97.1c0.7-3.4,1.2-7,1.2-10.6L698.7,267.5L698.7,267.5z"/>
	<path class="st4" d="M748.4,322.6c-27.4,0-49.7-22.3-49.7-49.7v-5.4h99.4v5.4C798.1,300.3,775.8,322.6,748.4,322.6L748.4,322.6z"/>
	<path class="st6" d="M778.4,267.5v5.4c0,24.1-17.1,44.2-39.9,48.7c3.2,0.6,6.5,1,9.8,1c27.4,0,49.7-22.3,49.7-49.7v-5.4H778.4z"/>
	<path class="st6" d="M798.1,267.5h-99.4v6.4c0,4.3,0.4,8.5,1.2,12.6h97.1c0.7-4.1,1.2-8.3,1.2-12.6L798.1,267.5L798.1,267.5z"/>
	<path class="st7" d="M400.5,267.5l38.2-146.2h80l-18.8,146.2H400.5z"/>
	<path class="st7" d="M698.7,267.5l-38.2-146.2h-80l18.8,146.2H698.7z"/>
	<path class="st9" d="M805.6,272.9c0-5.4,0.1-6.3-0.4-7.9c0,0,0,0,0,0l-43-122.6c-6-17.2-22.3-28.7-40.5-28.7H415.5
		c-4.1,0-7.5,3.4-7.5,7.5c0,4.1,3.4,7.5,7.5,7.5H429L394.7,260h-83l39.5-112.6c3.9-11.2,14.5-18.6,26.3-18.6h8
		c4.1,0,7.5-3.4,7.5-7.5c0-4.1-3.4-7.5-7.5-7.5h-8c-18.2,0-34.4,11.5-40.5,28.7L294,265c-0.7,2-0.3,3.7-0.4,7.9
		c0,22.6,13.2,42.2,32.3,51.5v183.3h-5.6c-14.7,0-26.7,12-26.7,26.7v26.1c0,14.7,12,26.7,26.7,26.7h23c4.1,0,7.5-3.4,7.5-7.5
		c0-4.1-3.4-7.5-7.5-7.5h-23c-6.5,0-11.7-5.3-11.7-11.7v-26.1c0-6.5,5.3-11.7,11.7-11.7h161.4L488,536c4.6,9.8,14.5,16.1,25.3,16.1
		h72.5c10.8,0,20.7-6.3,25.3-16.1l6.3-13.4h161.4c6.5,0,11.7,5.3,11.7,11.7v26.1c0,6.5-5.3,11.7-11.7,11.7H373.3
		c-4.1,0-7.5,3.4-7.5,7.5c0,4.1,3.4,7.5,7.5,7.5h405.5c14.7,0,26.7-12,26.7-26.7v-26.1c0-14.7-12-26.7-26.7-26.7h-5.6V324.4
		C792.3,315.1,805.6,295.5,805.6,272.9L805.6,272.9z M748.4,315.1c-22.6,0-41.1-17.8-42.1-40.1h84.3
		C789.4,297.3,770.9,315.1,748.4,315.1L748.4,315.1z M747.9,147.4L787.5,260h-83l-34.3-131.2h51.5
		C733.4,128.7,744,136.2,747.9,147.4L747.9,147.4z M508.4,260l16.9-131.2h48.6L590.7,260H508.4z M591.7,275
		c-1.1,22.3-19.6,40.1-42.1,40.1s-41.1-17.8-42.1-40.1H591.7z M654.7,128.7L688.9,260h-83.1L589,128.7H654.7z M691.1,275
		c-1.1,22.3-19.6,40.1-42.1,40.1c-22.6,0-41.1-17.8-42.1-40.1H691.1z M444.5,128.7h65.7L493.3,260h-83.1L444.5,128.7z M492.3,275
		c-1.1,22.3-19.6,40.1-42.1,40.1S409.1,297.3,408,275H492.3z M308.6,275h84.3c-1.1,22.3-19.6,40.1-42.1,40.1S309.7,297.3,308.6,275z
		 M597.6,529.7c-2.1,4.5-6.7,7.5-11.7,7.5h-72.5c-5,0-9.6-2.9-11.7-7.5l-3.3-7h102.6L597.6,529.7z M758.2,507.7H340.9V329.2
		c6.2,1.1,12.5,1.2,19.1,0.1v132.8c0,14.3,11.7,26,26,26h327.1c14.3,0,26-11.7,26-26v-59.9c0-4.1-3.4-7.5-7.5-7.5
		c-4.1,0-7.5,3.4-7.5,7.5v59.9c0,6.1-4.9,11-11,11H386c-6.1,0-11-4.9-11-11V324.7c10.7-5,19.6-13.3,25.5-23.5
		c9.9,17.3,28.4,28.9,49.7,28.9s39.8-11.7,49.7-28.9c9.9,17.3,28.4,28.9,49.7,28.9c21.3,0,39.8-11.7,49.7-28.9
		c9.9,17.3,28.4,28.9,49.7,28.9c21.3,0,39.8-11.7,49.7-28.9c5.8,10.2,14.8,18.5,25.5,23.5v47.6c0,4.1,3.4,7.5,7.5,7.5
		s7.5-3.4,7.5-7.5v-42.9c3,0.5,6.1,0.8,9.2,0.8c3.4,0,6.7-0.3,9.9-0.9V507.7z"/>
</g>
<g>
	<g>
		<g>
			<g>
				<path class="st9" d="M540.2,431c1.1,0,2.1-0.6,2.6-1.6l6.7-13.8c0.7-1.4,0.1-3.2-1.4-3.9c-1.4-0.7-3.2-0.1-3.9,1.4l-3.5,7.2
					l-14.8-47.1l46.4,15.2l-19.9,9c-0.3,0.1-0.6,0.3-0.8,0.6c-0.6,0.5-0.9,1.3-0.9,2.1c0,0.8,0.3,1.5,0.8,2.1l27.7,27.7
					c1.1,1.1,3,1.1,4.1,0c1.1-1.1,1.1-3,0-4.1l-24.7-24.7l22.9-10.4c1.1-0.5,1.8-1.6,1.7-2.8c-0.1-1.2-0.9-2.2-2-2.6l-58.9-19.3
					c-1-0.3-2.2-0.1-2.9,0.7c-0.8,0.8-1.1,1.9-0.7,2.9l18.7,59.5c0.4,1.1,1.4,1.9,2.6,2C540,431,540.1,431,540.2,431z"/>
				<path class="st9" d="M540.2,434.5c-0.1,0-0.3,0-0.5,0c-2.6-0.2-4.9-1.9-5.7-4.5l-18.7-59.5c-0.7-2.3-0.1-4.8,1.6-6.5
					c1.7-1.7,4.2-2.3,6.5-1.5l58.9,19.3c2.5,0.8,4.3,3.1,4.4,5.7c0.1,2.7-1.3,5.1-3.8,6.2l-18.2,8.3l21.2,21.2
					c1.2,1.2,1.9,2.8,1.9,4.5s-0.7,3.3-1.9,4.5c-2.5,2.5-6.6,2.5-9.1,0l-27.7-27.7c-1.2-1.2-1.9-2.9-1.9-4.6c0-1.7,0.7-3.4,1.9-4.6
					c0.5-0.5,1.2-0.9,1.8-1.3l11.7-5.3l-31.4-10.3l10.1,32.2c1.7-2.7,5.2-3.7,8.2-2.3c3.2,1.5,4.5,5.4,3,8.5l-6.7,13.8
					C544.9,433.1,542.6,434.5,540.2,434.5z"/>
			</g>
		</g>
	</g>
</g>
</svg>
