<?xml version="1.0" encoding="utf-8"?>
<!-- Generator: Adobe Illustrator 24.2.1, SVG Export Plug-In . SVG Version: 6.00 Build 0)  -->
<svg version="1.1" id="Layer_1" xmlns="http://www.w3.org/2000/svg" xmlns:xlink="http://www.w3.org/1999/xlink" x="0px" y="0px"
	 viewBox="0 0 1099.1 705.5" style="enable-background:new 0 0 1099.1 705.5;" xml:space="preserve">
<style type="text/css">
	.st0{fill:#FFFFFF;}
	.st1{fill:#0057FF;}
	.st2{fill:#1E2C51;}
	.st3{fill:#2C3E66;}
	.st4{fill:#E1FFF5;}
	.st5{fill:#C1E0D5;}
	.st6{fill:#E8EDFC;}
	.st7{fill:#1A1D5C;}
</style>
<rect class="st0" width="1099.1" height="705.5"/>
<g>
	<g id="Icons" transform="translate(1 1)">
		<path id="Shape" class="st1" d="M664.1,416.3H482.6l-32-32h-85.5l-32,32h-74.8v-267c0-11.8,9.6-21.4,21.4-21.4h363.2
			c11.8,0,21.4,9.6,21.4,21.4v267H664.1z"/>
		<path class="st1" d="M632.1,416.3H482.6l-32-32h-85.5l-32,32h-74.8v-267c0-11.8,9.6-21.4,21.4-21.4h331.1
			c11.8,0,21.4,9.6,21.4,21.4v267H632.1z"/>
		<path class="st1" d="M877.8,341.5v53.4c0,11.8-9.6,21.4-21.4,21.4H835v-96.1h21.4C868.2,320.2,877.8,329.7,877.8,341.5z"/>
		<path class="st2" d="M835.1,277.4v138.9h-171v-267c0-5.9,4.8-10.7,10.7-10.7h93.8c8.1,0,15.5,4.6,19.1,11.9
			C808,192,797,163.6,835.1,277.4z"/>
		<path class="st3" d="M803,277.4v138.9H664.1v-267c0-5.9,4.8-10.7,10.7-10.7h61.7c8.1,0,15.5,4.6,19.1,11.9
			C776,192,765,163.6,803,277.4z"/>
		<path class="st4" d="M835.1,416.3l-19.8,49.6c-16.3-30.1-51-45.2-84.2-36.7s-56.3,38.4-56.3,72.6H482.6
			c0-41.3-33.5-74.8-74.8-74.8S333,460.5,333,501.8h-21.4c-11.8,0-21.4-9.6-21.4-21.4v-64.1H333l32-32h85.5l32,32h192.3l32-32h85.5
			l32,32H835.1z"/>
		<path class="st5" d="M835.1,250.4v69.8c0-27-16.6-42.7-42.7-50.3c-15.8-4.1-21.4-3.1-64.1-3.1c-5.9,0-10.7-4.8-10.7-10.7V192
			c-0.1-5.1,3.3-9.5,8.2-10.7H803C834.3,243.9,835.1,243.5,835.1,250.4z"/>
		<path class="st4" d="M803,250.4v23.1c-20.7-8.8-37.3-6.7-74.8-6.7c-5.9,0-10.7-4.8-10.7-10.7V192c-0.1-5.1,3.3-9.5,8.2-10.7
			c15-0.8,30.1-0.8,45.2,0C802.3,243.9,803,243.5,803,250.4z"/>
		<path id="Rectangle-path" class="st5" d="M535.6,459h64.2c5.9,0,10.7,4.8,10.7,10.7v42.7c0,5.9-4.8,10.7-10.7,10.7h-64.2
			c-5.9,0-10.7-4.8-10.7-10.7v-42.7C525,463.8,529.7,459,535.6,459z"/>
		<g>
			<path class="st4" d="M535.6,459h32.2c5.9,0,10.7,4.8,10.7,10.7v42.7c0,5.9-4.8,10.7-10.7,10.7h-32.2c-5.9,0-10.7-4.8-10.7-10.7
				v-42.7C525,463.8,529.7,459,535.6,459z"/>
			<path class="st3" d="M482.6,501.8c0,41.3-33.5,74.8-74.8,74.8S333,543,333,501.8s33.5-74.8,74.8-74.8S482.6,460.5,482.6,501.8z"
				/>
			<ellipse id="Oval" class="st6" cx="407.4" cy="501.7" rx="32" ry="32"/>
			<path class="st3" d="M824.4,501.8c0,41.3-33.5,74.8-74.8,74.8s-74.8-33.5-74.8-74.8s33.5-74.8,74.8-74.8
				c19.8,0,38.8,7.9,52.9,21.9C816.5,462.9,824.4,481.9,824.4,501.8z"/>
			<circle class="st6" cx="749.7" cy="501.8" r="32"/>
		</g>
	</g>
	<g id="Icons_copy" transform="translate(1 1)">
		<g>
			<path class="st5" d="M311.7,501.8H333c0,41.3,33.5,74.8,74.8,74.8c5.4,0-30.5-3.7-25.2-4.8c-34.3-7.5-45-36.9-45-72l6.1,2
				c-11.8,0-21.4-9.6-21.4-21.4v-64.1h-32v64.1C290.3,492.2,299.9,501.8,311.7,501.8z"/>
		</g>
	</g>
	<g>
		<g>
			<path class="st7" d="M408.8,460c-23.6,0-42.7,19.1-42.7,42.7c0,23.6,19.1,42.7,42.7,42.7s42.7-19.1,42.7-42.7
				C451.5,479.2,432.4,460,408.8,460z M408.8,524.1c-11.8,0-21.4-9.6-21.4-21.4s9.6-21.4,21.4-21.4s21.4,9.6,21.4,21.4
				C430.2,514.5,420.6,524.1,408.8,524.1z"/>
			<path class="st7" d="M750.6,460c-23.6,0-42.7,19.1-42.7,42.7c0,23.6,19.1,42.7,42.7,42.7c23.6,0,42.7-19.1,42.7-42.7
				C793.3,479.2,774.2,460,750.6,460z M750.6,524.1c-11.8,0-21.4-9.6-21.4-21.4s9.6-21.4,21.4-21.4S772,491,772,502.8
				S762.4,524.1,750.6,524.1z"/>
			<path class="st7" d="M857.4,310.5h-10.7v-59.2c-0.1-4.9-1.2-9.8-3.4-14.2l-29.9-59.6L798,146.6c-5.4-10.9-16.5-17.7-28.6-17.7
				h-93.6c-2.4,0-4.8,0.5-7,1.3c-6.1-7.6-15.3-12-25-12H280.6c-17.7,0-32,14.3-32,32c0,5.9,4.8,10.7,10.7,10.7
				c5.9,0,10.7-4.8,10.7-10.7s4.8-10.7,10.7-10.7h363.2c5.9,0,10.7,4.8,10.7,10.7v256.4H487.9l-28.8-28.9c-2-2-4.7-3.1-7.6-3.1H366
				c-2.8,0-5.6,1.1-7.6,3.1l-28.8,28.9h-59.7V235.7c0-5.9-4.8-10.7-10.7-10.7s-10.7,4.8-10.7,10.7v181.6c0,5.9,4.8,10.7,10.7,10.7
				h21.4v53.4c0,17.7,14.3,32,32,32h10.7c2.6,20.7,12.7,39.7,28.4,53.4h-92.5c-5.9,0-10.7,4.8-10.7,10.7s4.8,10.7,10.7,10.7h619.5
				c5.9,0,10.7-4.8,10.7-10.7s-4.8-10.7-10.7-10.7H807c18.4-16.2,29-39.5,29.1-64.1c0-12.6-2.8-25-8.2-36.3l15.5-38.5h14.1
				c17.7,0,32-14.3,32-32v-53.4C889.5,324.8,875.1,310.5,857.4,310.5L857.4,310.5z M797.3,193l26.9,53.4c0.7,1.5,1.1,3.2,1.2,4.9
				v23.3c-15.5-11.4-34.2-17.6-53.4-17.5h-42.7V193H797.3z M779,156.2l7.7,15.4h-57.5c-11.8,0-21.4,9.6-21.4,21.4v64.1
				c0,11.8,9.6,21.4,21.4,21.4H772c2.1,0,53.4,0.5,53.4,42.7v81.1l-24.5-24.6c-2-2-4.7-3.1-7.6-3.1h-85.5c-2.8,0-5.6,1.1-7.6,3.1
				l-24.5,24.6v-252h93.6C773.5,150.2,777.2,152.6,779,156.2L779,156.2z M344.7,502.8c0-25.9,15.6-49.3,39.6-59.2
				c23.9-9.9,51.5-4.4,69.8,13.9c18.3,18.3,23.8,45.9,13.9,69.8s-33.3,39.6-59.2,39.6C373.4,566.8,344.7,538.2,344.7,502.8z
				 M465.2,566.8c15.7-13.7,25.8-32.7,28.4-53.4h22c0,11.8,9.6,21.4,21.4,21.4h64.1c11.8,0,21.4-9.6,21.4-21.4h43.7
				c2.6,20.7,12.7,39.7,28.4,53.4H465.2z M537,470.7h64.1v42.7H537v-10.7V470.7z M750.6,566.8c-25.9,0-49.3-15.6-59.2-39.6
				s-4.4-51.5,13.9-69.8s45.9-23.8,69.8-13.9c23.9,9.9,39.6,33.3,39.6,59.2C814.7,538.2,786,566.8,750.6,566.8z M750.6,417.3
				c-43.1,0-79.4,32-84.8,74.8h-43.4v-21.4c0-11.8-9.6-21.4-21.4-21.4h-64c-11.8,0-21.4,9.6-21.4,21.4v21.4h-22.4
				c-4.9-43.2-41.4-75.9-84.9-75.9s-80.1,32.7-84.9,75.9h-10.7c-5.9,0-10.7-4.8-10.7-10.7V428h32c2.8,0,5.6-1.1,7.6-3.1l28.8-28.9
				h76.7l28.8,28.9c2,2,4.7,3.1,7.6,3.1h192.3c2.8,0,5.6-1.1,7.6-3.1l28.8-28.9h76.7l28.8,28.9c0.9,0.8,1.9,1.5,3,1.9l-7.3,18.2
				C797.3,427.3,774.5,417.3,750.6,417.3z M868.1,395.9c0,5.9-4.8,10.7-10.7,10.7h-10.7v-74.8h10.7c5.9,0,10.7,4.8,10.7,10.7V395.9z
				"/>
			<path class="st7" d="M707.9,331.8h32c5.9,0,10.7-4.8,10.7-10.7s-4.8-10.7-10.7-10.7h-32c-5.9,0-10.7,4.8-10.7,10.7
				S702,331.8,707.9,331.8z"/>
			<path class="st7" d="M259.2,203.7c-5.9,0-10.7-4.8-10.7-10.7s4.8-10.7,10.7-10.7s10.7,4.8,10.7,10.7S265.1,203.7,259.2,203.7z"/>
		</g>
	</g>
</g>
<path class="st0" d="M556.6,275.2L502,222.3c-4.8-4.8-12.6-4.6-17.4,0.2l-30,30.2c-3,3-8.1,3-11.2,0l0,0l-29.9-30
	c-1.9-2.1-4.6-3.4-7.5-3.7c-3.8-0.5-7.5,0.8-10.2,3.5l-49.9,49.6l-5.3,5.3l0,0l5.3,5.3l17.3,17.3c2.7,2.7,6.4,4.5,10.2,4.8
	c4.6,0.5,9.3-1.3,12.6-4.6l25.1-24.8l0,0l30.8,32.9c4.3,4.5,11.3,4.6,15.8,0.5c0.2-0.2,0.3-0.3,0.5-0.5l30.5-34.2l0,0l29.1,27.6l0,0
	c3.8,3.2,9.6,2.9,13.1-0.6L556.6,275.2L556.6,275.2z M433.9,253.8l-2.4-0.5c-4.6-1-9.3,0.3-12.6,3.7l-38.2,38c-3.4,3.4-8.6,3.4-12,0
	l0,0l-17.4-17.4l0,0l49.8-49.7c1.9-1.9,5-1.9,6.9,0l0,0L433.9,253.8z M515,245.5L515,245.5c-0.2,0-7.3-2.1-12.3,2.9l-0.8,0.8l0,0
	l-23.2,23.2c-1.8,1.8-4.3,2.9-6.9,2.9s-5-1-6.9-2.9l-9.9-9.9l34.7-34.7c0.2-0.2,0.3-0.2,0.3-0.3l0.2-0.2l0.3-0.2l0.2-0.2l0.3-0.2
	h0.2c0.2,0,0.2-0.2,0.3-0.2h0.2l0.3-0.2h0.2h0.3h0.2c0.2,0,0.2,0,0.3,0h0.2h0.3l0,0h0.2h0.2h0.3h0.2h0.3h0.2l0.3,0.2h0.2l0.3,0.2
	h0.2c0.2,0,0.2,0.2,0.3,0.2l0.2,0.2l0.3,0.2l0.2,0.2c0.2,0.2,0.3,0.2,0.3,0.3L515,245.5L515,245.5z M590.6,242.1l-27,27l-29.4-29.4
	l16.3-16.3c5.9-5.9,15.3-5.9,21.2,0L590.6,242.1z"/>
</svg>
