<?xml version="1.0" encoding="utf-8"?>
<!-- Generator: Adobe Illustrator 24.2.1, SVG Export Plug-In . SVG Version: 6.00 Build 0)  -->
<svg version="1.1" id="Layer_1" xmlns="http://www.w3.org/2000/svg" xmlns:xlink="http://www.w3.org/1999/xlink" x="0px" y="0px"
	 viewBox="0 0 1099.1 705.5" style="enable-background:new 0 0 1099.1 705.5;" xml:space="preserve">
<style type="text/css">
	.st0{fill:#FFFFFF;}
	.st1{fill:#2C3E66;}
	.st2{fill:#1E2C51;}
	.st3{fill:#E1FFF5;}
	.st4{fill:#F9F9F9;}
	.st5{fill:#0057FF;}
	.st6{fill:#231F20;}
	.st7{fill:#1A1D5C;}
	.st8{fill:#1D2339;}
</style>
<rect class="st0" width="1099.1" height="705.5"/>
<g>
	<path id="XMLID_1045_" class="st1" d="M466.8,581.4h165.5v-18.6c0-10.3-8.3-18.6-18.6-18.6H485.4c-10.3,0-18.6,8.3-18.6,18.6V581.4
		z"/>
	<path id="XMLID_1043_" class="st2" d="M512.4,503.3h74.4v40.9h-74.4V503.3z"/>
	<path id="XMLID_1041_" class="st3" d="M593.5,198.4h166.2c10.3,0,18.6,8.3,18.6,18.6v267.7c0,10.3-8.3,18.6-18.6,18.6H339.5
		c-10.3,0-18.6-8.3-18.6-18.6V217c0-10.3,8.3-18.6,18.6-18.6h116.1"/>
	<path id="XMLID_1040_" class="st1" d="M759.7,503.3H339.5c-10.3,0-18.6-8.3-18.6-18.6v-44.6h457.4v44.6
		C778.3,495,769.9,503.3,759.7,503.3z"/>
	<path id="XMLID_1084_" class="st4" d="M728.1,440.1h-357V142.6c0-10.3,8.3-18.6,18.6-18.6h319.8c10.3,0,18.6,8.3,18.6,18.6V440.1z"
		/>
	<path id="XMLID_3080_" class="st5" d="M642.7,440.1H662v-39.9h-19.3c-2.5-11.5-7-22.2-13.2-31.8l13.7-13.7L615,326.5l-13.7,13.7
		c-9.6-6.2-20.3-10.7-31.8-13.2v-19.3h-39.9V327c-11.5,2.5-22.2,7-31.8,13.2l-13.7-13.7l-28.2,28.2l13.7,13.7
		c-6.2,9.6-10.7,20.3-13.2,31.8h-19.3v39.9h19.3H642.7z"/>
	<path id="XMLID_3079_" class="st0" d="M580.9,440.1c3.7-5.8,5.8-12.6,5.8-20c0-20.5-16.7-37.2-37.2-37.2s-37.2,16.7-37.2,37.2
		c0,7.3,2.1,14.2,5.8,20H580.9z"/>
	<path id="XMLID_1083_" class="st0" d="M709.5,124H389.7c-10.3,0-18.6,8.3-18.6,18.6v55.8h357v-55.8
		C728.1,132.4,719.7,124,709.5,124z"/>
	<path id="XMLID_1082_" class="st5" d="M728.1,198.4h-357v-55.8c0-10.3,8.3-18.6,18.6-18.6h319.8c10.3,0,18.6,8.3,18.6,18.6V198.4z"
		/>
	<path id="XMLID_88_" class="st6" d="M373.8,198.4h351.4"/>
	<path id="XMLID_294_" class="st7" d="M759.7,189.1h-22.3v-46.5c0-15.4-12.5-27.9-27.9-27.9H389.7c-15.4,0-27.9,12.5-27.9,27.9v46.5
		h-22.3c-15.4,0-27.9,12.5-27.9,27.9v267.7c0,15.4,12.5,27.9,27.9,27.9h163.6V535h-17.7c-15.4,0-27.9,12.5-27.9,27.9v18.6
		c0,5.1,4.2,9.3,9.3,9.3h165.5c5.1,0,9.3-4.2,9.3-9.3v-18.6c0-15.4-12.5-27.9-27.9-27.9H596v-22.3h163.6c15.4,0,27.9-12.5,27.9-27.9
		V217C787.6,201.6,775,189.1,759.7,189.1z M759.7,207.7c5.1,0,9.3,4.2,9.3,9.3v213.8h-31.6V207.7H759.7z M389.7,133.3h319.8
		c5.1,0,9.3,4.2,9.3,9.3v46.5H380.4v-46.5C380.4,137.5,384.5,133.3,389.7,133.3z M339.5,207.7h22.3v69.7c0,5.1,4.2,9.3,9.3,9.3
		s9.3-4.2,9.3-9.3v-69.7h338.4v223.1h-47.4v-30.6c0-5.1-4.2-9.3-9.3-9.3H650c-2.1-7.3-5-14.4-8.7-21l8.6-8.6c3.6-3.6,3.6-9.5,0-13.1
		L621.7,320c-3.6-3.6-9.5-3.6-13.1,0l-8.6,8.6c-6.7-3.7-13.7-6.6-21-8.7v-12.1c0-5.1-4.2-9.3-9.3-9.3h-39.9c-5.1,0-9.3,4.2-9.3,9.3
		v12.1c-7.3,2.1-14.4,5-21,8.7l-8.6-8.6c-3.6-3.6-9.5-3.6-13.1,0l-28.2,28.2c-3.6,3.6-3.6,9.5,0,13.1l8.6,8.6
		c-3.7,6.7-6.6,13.7-8.7,21h-12.1c-5.1,0-9.3,4.2-9.3,9.3v30.6h-47.4v-69.7c0-5.1-4.2-9.3-9.3-9.3c-5.1,0-9.3,4.2-9.3,9.3v69.7
		h-31.6V217C330.2,211.9,334.3,207.7,339.5,207.7L339.5,207.7z M476.2,361.8l-7.1-7.1l15.1-15.1l7.1,7.1c3.1,3.1,8,3.6,11.6,1.2
		c8.8-5.7,18.4-9.7,28.7-11.9c4.3-0.9,7.4-4.7,7.4-9.1v-10h21.3v10c0,4.4,3.1,8.2,7.4,9.1c10.2,2.2,19.9,6.2,28.7,11.9
		c3.7,2.4,8.5,1.9,11.6-1.2l7.1-7.1l15.1,15.1l-7.1,7.1c-3.1,3.1-3.6,8-1.2,11.6c5.7,8.8,9.7,18.4,11.9,28.7
		c0.9,4.3,4.7,7.4,9.1,7.4h10v21.3h-58c0.8-3.5,1.3-7.1,1.3-10.7c0-25.6-20.9-46.5-46.5-46.5s-46.5,20.9-46.5,46.5
		c0,3.6,0.4,7.2,1.3,10.7h-58v-21.3h10c4.4,0,8.2-3.1,9.1-7.4c2.2-10.2,6.2-19.9,11.9-28.7C479.8,369.8,479.3,364.9,476.2,361.8
		L476.2,361.8z M521.7,420.2c0-15.4,12.5-27.9,27.9-27.9s27.9,12.5,27.9,27.9c0,3.7-0.7,7.3-2.2,10.7h-51.5
		C522.4,427.5,521.7,423.8,521.7,420.2z M623,562.8v9.3H476.1v-9.3c0-5.1,4.2-9.3,9.3-9.3h128.3C618.9,553.6,623,557.7,623,562.8
		L623,562.8z M577.5,535h-55.8v-22.3h55.8V535z M759.7,494.1H339.5c-5.1,0-9.3-4.2-9.3-9.3v-35.3H769v35.3
		C769,489.9,764.8,494.1,759.7,494.1z"/>
	<path id="XMLID_1617_" class="st8" d="M577.5,170.5h100.4c5.1,0,9.3-4.2,9.3-9.3s-4.2-9.3-9.3-9.3H577.5c-5.1,0-9.3,4.2-9.3,9.3
		C568.2,166.4,572.3,170.5,577.5,170.5z"/>
	<path id="XMLID_1618_" class="st8" d="M462.2,170.5c2.4,0,4.8-1,6.6-2.7c1.7-1.7,2.7-4.1,2.7-6.6c0-2.4-1-4.8-2.7-6.6
		c-1.7-1.7-4.1-2.7-6.6-2.7s-4.8,1-6.6,2.7c-1.7,1.7-2.7,4.1-2.7,6.6c0,2.4,1,4.8,2.7,6.6C457.3,169.5,459.7,170.5,462.2,170.5z"/>
	<path id="XMLID_1620_" class="st8" d="M421.3,170.5c2.4,0,4.8-1,6.6-2.7c1.7-1.7,2.7-4.1,2.7-6.6c0-2.4-1-4.8-2.7-6.6
		c-1.7-1.7-4.1-2.7-6.6-2.7s-4.8,1-6.6,2.7c-1.7,1.7-2.7,4.1-2.7,6.6c0,2.4,1,4.8,2.7,6.6C416.4,169.5,418.8,170.5,421.3,170.5z"/>
	<path id="XMLID_1623_" class="st8" d="M503.1,170.5c2.4,0,4.8-1,6.6-2.7c1.7-1.7,2.7-4.1,2.7-6.6c0-2.4-1-4.8-2.7-6.6
		c-1.7-1.7-4.1-2.7-6.6-2.7s-4.8,1-6.6,2.7c-1.7,1.7-2.7,4.1-2.7,6.6c0,2.4,1,4.8,2.7,6.6C498.2,169.5,500.6,170.5,503.1,170.5z"/>
	<path id="XMLID_1624_" class="st8" d="M415.7,252.3h22.1c5.1,0,9.3-4.2,9.3-9.3s-4.2-9.3-9.3-9.3h-22.1c-5.1,0-9.3,4.2-9.3,9.3
		S410.6,252.3,415.7,252.3z"/>
	<path id="XMLID_1626_" class="st8" d="M478.7,252.3H564c5.1,0,9.3-4.2,9.3-9.3s-4.2-9.3-9.3-9.3h-85.3c-5.1,0-9.3,4.2-9.3,9.3
		S473.6,252.3,478.7,252.3z"/>
	<path id="XMLID_1627_" class="st8" d="M415.7,297h53.9c5.1,0,9.3-4.2,9.3-9.3c0-5.1-4.2-9.3-9.3-9.3h-53.9c-5.1,0-9.3,4.2-9.3,9.3
		C406.4,292.8,410.6,297,415.7,297z"/>
	<path id="XMLID_1628_" class="st8" d="M604.9,252.3h78.5c5.1,0,9.3-4.2,9.3-9.3s-4.2-9.3-9.3-9.3h-78.5c-5.1,0-9.3,4.2-9.3,9.3
		S599.8,252.3,604.9,252.3z"/>
	<path id="XMLID_1633_" class="st8" d="M683.4,278.4h-63.6c-5.1,0-9.3,4.2-9.3,9.3c0,5.1,4.2,9.3,9.3,9.3h63.6
		c5.1,0,9.3-4.2,9.3-9.3C692.7,282.5,688.6,278.4,683.4,278.4z"/>
	<path id="XMLID_1635_" class="st8" d="M371.1,328.6c2.4,0,4.8-1,6.6-2.7c1.7-1.7,2.7-4.1,2.7-6.6c0-2.4-1-4.8-2.7-6.6
		c-1.7-1.7-4.1-2.7-6.6-2.7s-4.8,1-6.6,2.7c-1.7,1.7-2.7,4.1-2.7,6.6c0,2.4,1,4.8,2.7,6.6C366.2,327.6,368.6,328.6,371.1,328.6z"/>
</g>
</svg>
