<?xml version="1.0" encoding="iso-8859-1"?>
<!-- Generator: Adobe Illustrator 17.1.0, SVG Export Plug-In . SVG Version: 6.00 Build 0)  -->
<!DOCTYPE svg PUBLIC "-//W3C//DTD SVG 1.1//EN" "http://www.w3.org/Graphics/SVG/1.1/DTD/svg11.dtd">
<svg version="1.1" id="Capa_1" xmlns="http://www.w3.org/2000/svg" xmlns:xlink="http://www.w3.org/1999/xlink" x="0px" y="0px"
	 viewBox="0 0 169.694 169.694" style="enable-background:new 0 0 169.694 169.694;" xml:space="preserve">
<g>
	<g>
		<path style="fill:#222220;" d="M113.935,169.132c-2.864,0-5.499-1.638-6.755-4.247l-17.182-35.689
			c-1.796-3.732-0.228-8.214,3.504-10.011c3.733-1.797,8.214-0.229,10.011,3.504l8.955,18.601l38.199-121.564L30.794,58.95
			L82.07,82.18c0.796,0.36,1.522,0.857,2.147,1.468c1.433,1.4,2.257,3.327,2.269,5.331c0.011,2.004-0.769,3.94-2.186,5.357
			l-71.497,71.497c-2.929,2.929-7.678,2.929-10.606,0c-2.929-2.929-2.929-7.678,0-10.606l63.841-63.841L7.032,64.653
			c-2.818-1.276-4.563-4.152-4.394-7.241c0.168-3.088,2.216-5.757,5.156-6.719L159.861,0.935c2.673-0.875,5.606-0.182,7.604,1.793
			s2.726,4.902,1.883,7.583L121.093,163.88c-0.923,2.936-3.545,5.01-6.615,5.232C114.297,169.126,114.115,169.132,113.935,169.132z"
			/>
	</g>
</g>
<g>
</g>
<g>
</g>
<g>
</g>
<g>
</g>
<g>
</g>
<g>
</g>
<g>
</g>
<g>
</g>
<g>
</g>
<g>
</g>
<g>
</g>
<g>
</g>
<g>
</g>
<g>
</g>
<g>
</g>
</svg>
