<svg id="Capa_1" enable-background="new 0 0 512.013 512.013" height="512" viewBox="0 0 512.013 512.013" width="512" xmlns="http://www.w3.org/2000/svg"><path d="m485.275 485.253h-458.542c-10.618 0-19.225-8.607-19.225-19.225v-26.112c0-10.618 8.607-19.225 19.225-19.225h458.542c10.618 0 19.225 8.607 19.225 19.225v26.112c0 10.617-8.607 19.225-19.225 19.225z" fill="#868086"/><path d="m485.275 420.691h-21.396c10.618 0 19.225 8.607 19.225 19.225v26.111c0 10.618-8.607 19.225-19.225 19.225h21.396c10.617 0 19.225-8.607 19.225-19.225v-26.111c0-10.617-8.607-19.225-19.225-19.225z" fill="#787078"/><path d="m472.178 420.691h-432.347v-261.362c0-21.18 17.17-38.349 38.349-38.349h355.648c21.18 0 38.349 17.17 38.349 38.349v261.362z" fill="#544f57"/><path d="m433.828 120.98h-17.373c21.18 0 38.349 17.169 38.349 38.349v261.363h17.373v-261.363c.001-21.18-17.169-38.349-38.349-38.349z" fill="#454045"/><path d="m472.178 192.979h-67.073-99.399-99.399-99.399-67.077v51.985c5.41 2.02 11.263 3.13 17.377 3.13 14.128 0 26.874-5.9 35.92-15.366 3.6-3.768 8.562-6.089 13.769-5.884.262.01.525.015.788.013 4.771-.036 9.36 1.974 12.617 5.461 9.067 9.706 21.974 15.777 36.304 15.777 14.302 0 27.186-6.047 36.25-15.718 3.456-3.687 8.348-5.534 13.402-5.519h.159c5.031-.033 9.896 1.847 13.336 5.518 9.065 9.673 21.949 15.72 36.252 15.72 14.331 0 27.237-6.071 36.304-15.777 3.257-3.486 7.847-5.496 12.618-5.461.263.002.525-.002.786-.012 5.208-.205 10.17 2.116 13.771 5.885 9.046 9.466 21.791 15.365 35.919 15.365 14.339 0 27.253-6.078 36.321-15.793 3.179-3.405 7.651-5.371 12.309-5.446.232-.004.463-.012.695-.026 5.199-.299 10.301 1.809 13.868 5.603 9.214 9.8 22.357 15.86 36.917 15.657 5.868-.082 11.473-1.206 16.663-3.183v-51.929z" fill="#454045"/><path d="m292.262 450.135h-72.515c-7.933 0-15.153-4.58-18.533-11.757l-8.33-17.686h126.242l-8.33 17.686c-3.381 7.177-10.601 11.757-18.534 11.757z" fill="#b1e4f9"/><path d="m438.078 367.66c0 10.221-8.286 18.506-18.506 18.506h-327.135c-10.221 0-18.506-8.286-18.506-18.506v-194.681h364.147z" fill="#b1e4f9"/><path d="m419.355 172.979v194.681c0 10.221-8.286 18.506-18.506 18.506h18.722c10.221 0 18.506-8.286 18.506-18.506v-194.681z" fill="#90d8f9"/><path d="m438.078 245.193v-52.214h-32.973-99.399-99.399-99.399-32.977v52.213c7.353-2.63 13.91-6.932 19.198-12.465 3.6-3.768 8.562-6.089 13.769-5.884.262.01.525.015.788.013 4.771-.036 9.36 1.974 12.617 5.461 9.067 9.706 21.974 15.777 36.304 15.777 14.302 0 27.186-6.047 36.25-15.718 3.456-3.687 8.348-5.534 13.402-5.519h.159c5.031-.033 9.896 1.847 13.336 5.518 9.065 9.673 21.949 15.72 36.252 15.72 14.331 0 27.237-6.071 36.304-15.777 3.257-3.486 7.847-5.496 12.618-5.461.263.002.525-.002.786-.012 5.208-.205 10.17 2.116 13.771 5.885 9.046 9.466 21.791 15.365 35.919 15.365 14.339 0 27.253-6.078 36.321-15.793 3.179-3.405 7.651-5.371 12.309-5.446.232-.004.463-.012.695-.026 5.199-.299 10.301 1.809 13.868 5.603 5.337 5.674 11.997 10.083 19.481 12.76z" fill="#90d8f9"/><path d="m504.5 172.979h-496.991l43.04-122.555c4.979-14.176 18.367-23.664 33.392-23.664h344.126c15.025 0 28.413 9.487 33.392 23.664z" fill="#d82e3d"/><path d="m461.459 50.424c-4.979-14.177-18.366-23.664-33.392-23.664h-19.654c15.025 0 28.413 9.487 33.392 23.664l43.041 122.555h19.654z" fill="#c32430"/><path d="m106.908 178.394c0 27.448-22.251 49.7-49.7 49.7-27.448 0-49.7-22.251-49.7-49.7v-5.415h99.399v5.415z" fill="#d82e3d"/><path d="m106.908 172.979h-99.399v5.415c0 3.652.405 7.208 1.153 10.635h97.094c.748-3.428 1.153-6.984 1.153-10.635v-5.415z" fill="#c32430"/><path d="m206.307 178.394c0 27.448-22.251 49.7-49.7 49.7-27.448 0-49.7-22.251-49.7-49.7v-5.415h99.399v5.415z" fill="#f1f1f4"/><path d="m206.307 172.979h-99.399v5.415c0 3.652.405 7.208 1.153 10.635h97.094c.748-3.428 1.153-6.984 1.153-10.635v-5.415z" fill="#dfdde2"/><path d="m256.006 228.093c-27.448 0-49.7-22.251-49.7-49.7v-5.415h99.399v5.415c.001 27.449-22.25 49.7-49.699 49.7z" fill="#d82e3d"/><path d="m305.706 172.979h-99.399v5.415c0 3.652.405 7.208 1.153 10.635h97.094c.748-3.428 1.153-6.984 1.153-10.635v-5.415z" fill="#c32430"/><path d="m355.406 228.093c-27.448 0-49.7-22.251-49.7-49.7v-5.415h99.399v5.415c0 27.449-22.251 49.7-49.699 49.7z" fill="#f1f1f4"/><path d="m405.105 172.979h-99.399v5.415c0 3.652.405 7.208 1.153 10.635h97.094c.748-3.428 1.153-6.984 1.153-10.635v-5.415z" fill="#dfdde2"/><path d="m454.805 228.093c-27.448 0-49.7-22.251-49.7-49.7v-5.415h99.399v5.415c0 27.449-22.251 49.7-49.699 49.7z" fill="#d82e3d"/><path d="m484.846 172.979v5.415c0 24.083-17.131 44.161-39.87 48.723 3.178.638 6.464.976 9.829.976 27.448 0 49.7-22.251 49.7-49.699v-5.415z" fill="#c32430"/><path d="m504.504 172.979h-99.399v5.415c0 3.652.405 7.208 1.153 10.635h97.094c.748-3.428 1.153-6.984 1.153-10.635v-5.415z" fill="#c32430"/><path d="m106.908 172.979 38.208-146.219h79.994l-18.803 146.219z" fill="#f1f1f4"/><path d="m405.105 172.979-38.209-146.219h-79.993l18.803 146.219z" fill="#f1f1f4"/><circle cx="221.702" cy="337.027" fill="#e49542" r="23.729"/><path d="m245.43 258.96h55.849v26.077h-55.849z" fill="#e49542"/><path d="m512.005 178.394c-.007-5.436.117-6.325-.421-7.876-.003-.008-.004-.016-.007-.025l-43.04-122.555c-6.025-17.153-22.288-28.679-40.468-28.679h-306.166c-4.143 0-7.5 3.357-7.5 7.5s3.357 7.5 7.5 7.5h13.503l-34.29 131.219h-83.023l39.533-112.568c3.918-11.155 14.494-18.65 26.316-18.65h7.974c4.143 0 7.5-3.357 7.5-7.5s-3.357-7.5-7.5-7.5h-7.974c-18.18 0-34.442 11.525-40.468 28.679l-43.04 122.555c-.702 1.997-.313 3.667-.424 7.9 0 22.629 13.21 42.229 32.322 51.499v183.298h-5.598c-14.736 0-26.725 11.989-26.725 26.726v26.111c0 14.736 11.988 26.725 26.725 26.725h23.002c4.143 0 7.5-3.357 7.5-7.5s-3.357-7.5-7.5-7.5h-23.001c-6.465 0-11.725-5.26-11.725-11.725v-26.111c0-6.466 5.26-11.726 11.725-11.726h161.392l6.303 13.383c4.597 9.757 14.534 16.061 25.318 16.061h72.516c10.785 0 20.724-6.305 25.318-16.062l6.303-13.382h161.392c6.465 0 11.725 5.26 11.725 11.726v26.111c0 6.465-5.26 11.725-11.725 11.725h-405.554c-4.143 0-7.5 3.357-7.5 7.5s3.357 7.5 7.5 7.5h405.553c14.736 0 26.725-11.988 26.725-26.725v-26.111c0-14.736-11.988-26.726-26.725-26.726h-5.597v-183.296c19.115-9.269 32.326-28.87 32.326-51.501zm-57.199 42.199c-22.57 0-41.06-17.81-42.149-40.114h84.298c-1.09 22.305-19.579 40.114-42.149 40.114zm-.422-167.683 39.533 112.569h-83.019l-34.288-131.219h51.459c11.822 0 22.397 7.495 26.315 18.65zm-239.55 112.569 16.874-131.219h48.599l16.875 131.219zm83.323 15c-1.09 22.305-19.579 40.114-42.149 40.114s-41.059-17.81-42.148-40.114zm62.949-146.219 34.288 131.219h-83.089l-16.875-131.219zm36.449 146.219c-1.09 22.305-19.578 40.114-42.148 40.114s-41.059-17.81-42.148-40.114zm-246.645-146.219h65.675l-16.875 131.219h-83.09zm47.847 146.219c-1.09 22.305-19.578 40.114-42.148 40.114s-41.06-17.81-42.149-40.114zm-183.696 0h84.297c-1.09 22.305-19.578 40.114-42.148 40.114s-41.059-17.809-42.149-40.114zm288.95 254.703c-2.132 4.527-6.743 7.452-11.748 7.452h-72.516c-5.004 0-9.615-2.926-11.748-7.452l-3.293-6.991h102.598zm160.668-21.991h-417.347v-178.469c6.207 1.085 12.497 1.192 19.1.117v132.82c0 14.34 11.666 26.007 26.006 26.007h327.135c14.34 0 26.006-11.667 26.006-26.007v-59.92c0-4.143-3.357-7.5-7.5-7.5s-7.5 3.357-7.5 7.5v59.92c0 6.069-4.938 11.007-11.006 11.007h-327.135c-6.068 0-11.006-4.938-11.006-11.007v-137.464c10.724-5.035 19.632-13.302 25.477-23.54 9.857 17.266 28.435 28.939 49.7 28.939s39.842-11.673 49.699-28.938c9.857 17.266 28.435 28.938 49.699 28.938 21.265 0 39.843-11.673 49.7-28.939 9.857 17.266 28.435 28.939 49.699 28.939s39.843-11.673 49.699-28.939c5.844 10.237 14.751 18.503 25.473 23.538v47.56c0 4.143 3.357 7.5 7.5 7.5s7.5-3.357 7.5-7.5v-42.914c3.006.49 6.086.755 9.228.755 3.368 0 6.663-.309 9.873-.87z"/><path d="m301.281 251.46h-55.849c-4.143 0-7.5 3.357-7.5 7.5v51.396c-4.733-2.89-10.29-4.558-16.229-4.558-17.22 0-31.229 14.009-31.229 31.229s14.009 31.229 31.229 31.229 31.229-14.01 31.229-31.229v-44.489h48.349c4.143 0 7.5-3.357 7.5-7.5v-26.078c0-4.143-3.358-7.5-7.5-7.5zm-79.578 101.795c-8.948 0-16.229-7.28-16.229-16.229 0-8.948 7.28-16.229 16.229-16.229s16.229 7.28 16.229 16.229-7.28 16.229-16.229 16.229zm72.078-75.718h-40.849v-11.077h40.849z"/></svg>