<?xml version="1.0" encoding="utf-8"?>
<!-- Generator: Adobe Illustrator 23.1.0, SVG Export Plug-In . SVG Version: 6.00 Build 0)  -->
<svg version="1.1" id="Capa_1" xmlns="http://www.w3.org/2000/svg" xmlns:xlink="http://www.w3.org/1999/xlink" x="0px" y="0px"
	 viewBox="0 0 512 458.2" style="enable-background:new 0 0 512 458.2;" xml:space="preserve">
<style type="text/css">
	.st0{opacity:2.000000e-02;}
	.st1{fill:#D7ECF9;}
	.st2{opacity:2.000000e-02;fill:#FFFFFF;}
</style>
<g class="st0">
	<path class="st1" d="M224.9,186.4L224.9,186.4L224.9,186.4z"/>
</g>
<path class="st2" d="M56.8,224.5c-0.8,0.8-1.3,1.9-1.3,3.1v226.5c0,0,0,0,0,0c0,0.9,0.3,1.8,1,2.6c0.8,0.9,2,1.4,3.3,1.4h330.5
	c2.2,0,4-1.8,4-4V227.3c0-1.1-0.5-2.2-1.2-2.9c0,0,0,0,0,0l-35.4-33.9l99.8,0c26.4,0,47.8-21.4,47.8-47.8V4c0-2.2-1.8-4-4-4H268.6
	c-2.2,0-4,1.8-4,4v61.8H141.5c-26.4,0-47.8,21.4-47.8,47.8V189L56.8,224.5z M101.8,113.7c0-21.9,17.8-39.7,39.7-39.7l200.3,0.1
	c-12.7,8.6-21.1,23.1-21.1,39.6v157.5L214.5,371.4L101.8,262.5V113.7z M328.9,190.4h0.9l37.6,36.8l-38.5,36.3V190.4L328.9,190.4z
	 M93.7,200.2v54.6l-28.4-27.5L93.7,200.2z M63.5,236.8l118.1,114.1L63.5,445.7C63.5,445.7,63.5,236.8,63.5,236.8z M71,450.1
	l116.5-93.5l24.2,23.3c0.8,0.8,1.8,1.1,2.8,1.1c1,0,2-0.4,2.8-1.1l24.8-23.4l119.4,93.6L71,450.1L71,450.1z M248,350.9l121.2-114.3
	v209.2L248,350.9z M386.2,450.1h-8.9V231.3h8.9V450.1z M380.2,223.2h-5.3l-32.8-32.8h3.8L380.2,223.2z M333,182.4l-4.1-4.1v-64.7
	c0-21.9,17.8-39.7,39.7-39.7h0c21.9,0,39.7,17.8,39.7,39.7v29c0,16.5,8.4,31.1,21.2,39.7H333L333,182.4z M497.1,142.7
	c0,21.9-17.8,39.7-39.7,39.7h-1.3c0,0,0,0,0,0c-21.9,0-39.7-17.8-39.7-39.7v-29c0-26.3-21.4-47.8-47.8-47.8h0h-95.9V38.6h224.4
	L497.1,142.7L497.1,142.7z M497.1,30.6H272.7V8.1h224.4V30.6L497.1,30.6z"/>
<path class="st2" d="M288.1,180H131.6c-2.2,0-4-1.8-4-4v-48.3c0-2.2,1.8-4,4-4h156.4c2.2,0,4,1.8,4,4V176
	C292.1,178.2,290.3,180,288.1,180z M135.7,172H284v-40.2H135.7V172z"/>
<path class="st2" d="M288.1,206.5H131.6c-2.2,0-4-1.8-4-4c0-2.2,1.8-4,4-4h156.4c2.2,0,4,1.8,4,4
	C292.1,204.7,290.3,206.5,288.1,206.5z"/>
<path class="st2" d="M288.1,233.5H131.6c-2.2,0-4-1.8-4-4s1.8-4,4-4h156.4c2.2,0,4,1.8,4,4S290.3,233.5,288.1,233.5z"/>
<path class="st2" d="M288.1,260.4H131.6c-2.2,0-4-1.8-4-4c0-2.2,1.8-4,4-4h156.4c2.2,0,4,1.8,4,4
	C292.1,258.6,290.3,260.4,288.1,260.4z"/>
</svg>
