<?xml version="1.0" encoding="utf-8"?>
<!-- Generator: Adobe Illustrator 23.1.0, SVG Export Plug-In . SVG Version: 6.00 Build 0)  -->
<svg version="1.1" xmlns="http://www.w3.org/2000/svg" xmlns:xlink="http://www.w3.org/1999/xlink" x="0px" y="0px"
	 viewBox="0 0 250 250" style="enable-background:new 0 0 250 250;" xml:space="preserve">
<style type="text/css">
	.st0{fill-rule:evenodd;clip-rule:evenodd;fill:#FFFFFF;}
</style>
<g id="Calque_1">
	<g>
		<path class="st0" d="M172.2,119.1c5.9,0,9.4,3.5,10.2,8.3h-6.2c-0.6-1.7-1.9-2.9-4-2.9c-3.3,0-5.1,2.9-5.1,6.8
			c0,3.9,1.8,6.8,5.1,6.8c2.2,0,3.4-1.2,4-2.9h6.2c-0.9,4.9-4.3,8.4-10.2,8.4c-6.6,0-11.4-5-11.4-12.2
			C160.8,124.1,165.5,119.1,172.2,119.1 M195.6,124.5c-3.2,0-5.3,2.7-5.3,6.8c0,4.1,2.1,6.8,5.3,6.8c3.2,0,5.4-2.7,5.4-6.8
			C200.9,127.2,198.7,124.5,195.6,124.5 M195.6,143.5c-6.8,0-11.5-5.2-11.5-12.2c0-7.1,4.7-12.2,11.5-12.2c6.9,0,11.6,5.1,11.6,12.2
			C207.1,138.3,202.4,143.5,195.6,143.5 M209.7,143.1h6.2v-23.7h-6.2V143.1z M240.4,143.1h-5l-9.9-13.8v13.8h-6v-23.7h5.8l9.1,13
			v-13h6V143.1z M246.4,136.2c2,0,3.6,1.5,3.6,3.6c0,2-1.6,3.6-3.6,3.6c-2,0-3.5-1.6-3.5-3.6C242.9,137.7,244.5,136.2,246.4,136.2"
			/>
		<path class="st0" d="M5.4,138.4h3.5c1.5,0,2.3-0.8,2.3-1.9c0-1.2-0.8-2-2.3-2H5.4C5.4,134.5,5.4,138.4,5.4,138.4z M8.4,130.6
			c1.5,0,2.4-0.6,2.4-1.8c0-1.2-0.8-1.8-2.4-1.8h-3v3.6H8.4L8.4,130.6z M16.3,137.1c0,3.6-2.5,5.6-6.7,5.6H0.4v-20.1H9
			c4.2,0,6.7,1.9,6.7,5.5c0,2.2-1.2,3.7-2.7,4.3C14.9,133,16.3,134.8,16.3,137.1z M23.8,131.9h3.3c1.9,0,2.7-0.9,2.7-2.4
			c0-1.5-0.9-2.4-2.7-2.4h-3.3V131.9z M23.8,136.1v6.6h-5.2v-20.1h9c4.3,0,7.3,2.5,7.3,6.8c0,3-1.5,5.1-4,6.1l4.7,7.2h-5.8l-4.2-6.6
			H23.8z M44.4,134.5h4.1l-2.1-5.7C46.4,128.8,44.4,134.5,44.4,134.5z M49.2,122.6l7.7,20.1h-5.3l-1.4-3.9h-7.3l-1.4,3.9h-5.2
			l7.7-20.1H49.2z M61.7,142.7l-7.5-20.1h5.6l4.6,13l4.6-13h5.4l-7.5,20.1L61.7,142.7z M90.5,122.6v4.5h-9.2v3.1h8.4v4.4h-8.4v3.5
			h9.2v4.6H76.1v-20.1H90.5z M116.8,142.7h-4.3l-8.4-11.8v11.8H99v-20.1h4.9l7.8,11.1v-11.1h5.1L116.8,142.7z M134.2,122.6v4.5h-9.2
			v3.1h8.4v4.4h-8.4v3.5h9.2v4.6h-14.4v-20.1H134.2z M160,122.6h-3.3l-2.8,11.8l-3.1-11.8h-4l-3.1,11.8l-2.8-11.8h-5.4l5.3,20.1h4.8
			l3.1-11.8l3.1,11.8h4.8l1.7-6.5c-0.5-1.6-0.7-3.3-0.7-4.9C157.7,128,158.5,125,160,122.6"/>
	</g>
</g>
<g id="Layer_2">
</g>
</svg>
