<?xml version="1.0" encoding="utf-8"?>
<!-- Generator: Adobe Illustrator 23.0.3, SVG Export Plug-In . SVG Version: 6.00 Build 0)  -->
<svg version="1.1" id="Calque_1" xmlns="http://www.w3.org/2000/svg" xmlns:xlink="http://www.w3.org/1999/xlink" x="0px" y="0px"
	 viewBox="0 0 250 250" style="enable-background:new 0 0 250 250;" xml:space="preserve">
<style type="text/css">
	.st0{fill:#FFFFFF;}
</style>
<path class="st0" d="M167.6,50.2H141h-0.2h-0.2h-26.7c-1.4,0-2.8,0-4.2,0c-0.2,0-0.4,0-0.7,0H82.4c-26.8-0.7-41.2,13.2-41.2,39.5
	v70.7c0.2,26.7,14.2,40,41.2,39.5H109c0.4,0,0.7,0,0.9,0c1.2,0,2.6,0,4,0h26.7h0.2h0.2h26.7c27.2,0.5,41.1-12.8,41.2-39.5V89.6
	C209.1,63.3,194.7,49.5,167.6,50.2z M193.6,157.9c0.2,19.3-6.1,26.5-23.3,26.5h-29.1H141h-0.2h-29.1c-17.4,0-23.5-7.2-23.3-26.5
	V92.1c-0.2-19.3,6.1-26.3,23.3-26.5h29.1h0.2h0.2h29.1c17.2,0.2,23.5,7.2,23.3,26.5V157.9z"/>
</svg>
