<?xml version="1.0" encoding="utf-8"?>
<!-- Generator: Adobe Illustrator 23.0.3, SVG Export Plug-In . SVG Version: 6.00 Build 0)  -->
<svg version="1.1" id="Calque_1" xmlns="http://www.w3.org/2000/svg" xmlns:xlink="http://www.w3.org/1999/xlink" x="0px" y="0px"
	 viewBox="0 0 250 250" style="enable-background:new 0 0 250 250;" xml:space="preserve">
<style type="text/css">
	.st0{display:none;opacity:0.12;fill:#FFFFFF;enable-background:new    ;}
	.st1{display:none;}
	.st2{display:inline;opacity:0.26;fill:#FFFFFF;enable-background:new    ;}
	.st3{fill:#FFFFFF;}
</style>
<g>
	<path class="st0" d="M167.4,111.8c0,0.1-0.1,0.4-0.4,0.4c-2.2,0.1-4.1,0.1-5.9,0.3c-3.5,0.3-3.8,0.6-3.8,4c0,3.5,0.1,7,0,10.6
		c-0.1,3.8,0.1,4.3,4,4.3c6.9,0,13.8,0,20.7,0c3.1,0,3.5-0.4,3.5-3.7c0-8.8,0-17.6,0-26.4c0-2.8,0-5.4,0-8.2
		c-0.1-4.3-1.9-6.5-6.2-7.2c-2.6-0.4-5.4-0.7-8.1-0.7c-5.1-0.1-10.4,0-15.5-0.1c-5.1-0.1-9.7,1.5-14.1,4c-3.2,1.8-5.6,4.4-6.3,8.1
		c-0.6,2.6-1,5.4-1.2,8.1c-0.3,10.3-0.4,20.5-0.3,30.8c0,3.7,0.3,7.3,1.2,10.9c2.1,8.1,6.3,11.1,14.7,11.1c11.7,0,23.6,0.1,35.3,0.1
		c6.6,0,13.2-0.1,19.8-0.3c3.7,0,5.1-1.5,5.1-5.1c0-0.6,0-1,0-1.6c0-11.7,0-23.6,0.1-35.3c0-3.5,0.3-6.9,0.4-10.4
		c0-0.1,0.1-0.4,0.4-0.4c3.8,0,7.2-0.3,10.6,0.1c3.2,0.3,5.4,2.5,6,5.7c0.3,2.3,0.4,4.7,0.4,7c0,10-0.1,19.9-0.3,29.9
		c0,1.8-0.1,3.7,0.1,5.4c0.4,3.5,2.2,4.8,5.9,4.8c3.2,0,6.5-0.1,9.7-0.1c1,0,2.1-0.1,3.4-0.3c0.1,0,0.3-0.1,0.3-0.4
		c0.3-3.2,0.6-6.2,0.6-9.2c0-16.3-0.1-32.4-0.3-48.7c0-1.3-0.1-2.6-0.3-3.8c-0.6-4.3-2.9-7.2-6.9-8.7c-2.2-0.7-4.5-1.3-6.7-1.3
		c-12.5-0.1-24.9-0.1-37.4,0c-5,0-6.5,1.3-6.9,6.3c0,0.6,0,1.3,0,1.9c0,11.3,0,22.6-0.1,33.9c0,2.3,0,4.7-0.1,7
		c-0.3,3.1-0.6,3.5-3.8,3.7c-8.7,0.1-17.5,0.1-26.1,0.1c-1.5,0-2.9-0.4-4.3-0.7c-0.1,0-0.3-0.1-0.3-0.3c-0.1-0.7-0.3-1.3-0.3-1.8
		c-0.1-8.1-0.3-16.1-0.4-24.1c0-1,0.1-2.1,0.7-2.9c0.6-0.9,1.5-2.2,2.3-2.2c3.4-0.1,6.9-0.1,10.4,0c0.1,0,0.4,0.1,0.4,0.4v5.1H167.4
		z M50.8,112.6c-0.3,0-0.6,0-0.7,0c-2.9,0.3-3.2,0.6-3.2,3.5c0,4.1-0.1,8.2-0.3,12.5c0,1.5,0.7,2.2,2.1,2.5c0.7,0.1,1.6,0.1,2.3,0.1
		c6.7,0,13.5,0,20.2,0c3.4,0,3.8-0.4,3.8-3.8c0-10.6-0.1-21-0.1-31.5c0-1.6-0.1-3.1-0.4-4.7c-0.4-3.2-2.2-5.3-5.4-5.6
		c-2.6-0.3-5.1-0.7-7.8-0.7c-5.3-0.1-10.7,0-16-0.1c-5.1-0.1-9.7,1.5-14.1,3.8c-3.2,1.8-5.6,4.4-6.5,7.9c-0.6,2.5-1,5.1-1.2,7.6
		c-0.3,10.7-0.4,21.3-0.3,32c0,5,0.4,9.8,2.8,14.4c2.2,4.4,5.9,6.3,10.6,6.9c0.9,0.1,1.8,0,2.8,0c22.3,0,44.6,0,66.9,0
		c3.7,0,7.3,0,10.9,0c5.7-0.1,9.8-2.6,12.2-8.1c1.9-4.5,2.2-9.4,2.2-14.1c0-9.7-0.1-19.5-0.4-29.2c0-2.8-0.4-5.7-0.9-8.5
		c-0.4-3.1-2.1-5.6-4.5-7.5c-4-3.1-8.5-5.1-13.6-5.3c-7.3-0.1-14.8-0.1-22.1,0.1c-8.1,0.4-9.8,2.1-10,10.1
		c-0.3,10.7-0.1,21.6-0.3,32.3c0,3.2,0.4,3.7,3.5,3.7c7,0,14.1,0,21,0c0.6,0,1.3,0,1.9-0.1c1.3-0.3,1.9-1.2,1.9-2.5
		c-0.1-4.1-0.1-8.2-0.3-12.5c0-2.9-0.4-3.2-3.4-3.5c-2.1-0.1-4.1-0.3-6.3-0.4c-0.1,0-0.4-0.1-0.4-0.4v-5.7c0-0.1,0.1-0.4,0.4-0.4
		c2.9-0.1,6-0.3,8.9-0.3c2.6,0,3.5,0.6,4.3,3.1c0.3,1,0.4,2.1,0.4,3.1c0,5.3,0,10.7-0.1,16c0,2.9-0.3,6-0.4,9.2
		c0,0.1-0.1,0.3-0.3,0.4c-2.3,0.3-4.4,0.7-6.5,0.7c-18,0-36.1,0-54.1,0c-2.1,0-4.1-0.4-6.2-0.7c-0.1,0-0.3-0.1-0.3-0.3
		c-0.1-0.7-0.3-1.2-0.3-1.6c-0.1-8.2-0.3-16.3-0.4-24.5c0-1,0.3-2.1,0.7-2.9c0.6-0.9,1.5-2.1,2.3-2.2c1.5-0.1,3.1-0.3,4.5-0.3
		C50.8,110.1,50.6,107.9,50.8,112.6z M18.1,131.6c0.1,0,0.3-0.1,0.3-0.4c0.1-6.2,0.3-12,0.3-17.7c0-1.6-1-2.6-2.8-2.6
		c-2.8-0.1-5.4-0.3-8.2-0.1c-2.3,0.1-4.4,1.5-4.7,3.8c-0.6,4.3-0.6,8.5-0.6,12.8c0,2.1,1.3,3.7,3.5,4
		C9.7,131.9,13.5,132.1,18.1,131.6z"/>
	<g class="st1">
		<path class="st2" d="M167.4,111.8V106c0-0.1-0.1-0.4-0.4-0.4c-3.5,0-7-0.1-10.4,0c-0.9,0-1.8,1.3-2.3,2.2
			c-0.4,0.9-0.7,1.9-0.7,2.9c0.1,8.1,0.3,16.1,0.4,24.1c0,0.6,0.1,1.2,0.3,1.8c0,0.1,0.1,0.3,0.3,0.3c1.5,0.3,2.9,0.7,4.3,0.7
			c8.7,0,17.5,0,26.1-0.1c3.2,0,3.5-0.4,3.8-3.7c0.1-2.3,0.1-4.7,0.1-7c0-11.3,0-22.6,0.1-33.9c0-0.6,0-1.3,0-1.9
			c0.4-5,1.9-6.3,6.9-6.3c12.5,0,24.9,0,37.4,0c2.3,0,4.7,0.6,6.7,1.3c4,1.5,6.3,4.4,6.9,8.7c0.1,1.3,0.3,2.6,0.3,3.8
			c0.1,16.3,0.3,32.4,0.3,48.7c0,2.9-0.3,6-0.6,9.2c0,0.1-0.1,0.3-0.3,0.4c-1.3,0.1-2.3,0.3-3.4,0.3c-3.2,0.1-6.5,0.1-9.7,0.1
			c-3.5,0-5.3-1.3-5.9-4.8c-0.3-1.8-0.1-3.7-0.1-5.4c0-10,0.1-19.9,0.3-29.9c0-2.3-0.1-4.7-0.4-7c-0.4-3.4-2.6-5.4-6-5.7
			s-6.7-0.1-10.6-0.1c-0.1,0-0.4,0.1-0.4,0.4c-0.1,3.5-0.4,6.9-0.4,10.4c-0.1,11.7-0.1,23.6-0.1,35.3c0,0.6,0,1,0,1.6
			c-0.1,3.8-1.5,5.1-5.1,5.1c-6.6,0.1-13.2,0.3-19.8,0.3c-11.7,0-23.6-0.1-35.3-0.1c-8.4,0-12.6-3.1-14.7-11.1
			c-0.9-3.5-1.2-7.2-1.2-10.9c0-10.3,0.1-20.5,0.3-30.8c0-2.6,0.4-5.4,1.2-8.1c0.9-3.7,3.2-6.2,6.3-8.1c4.4-2.5,8.9-4.1,14.1-4
			c5.1,0.1,10.4,0,15.5,0.1c2.6,0,5.4,0.3,8.1,0.7c4.3,0.7,6,2.9,6.2,7.2c0.1,2.8,0,5.4,0,8.2c0,8.8,0,17.6,0,26.4
			c0,3.2-0.4,3.7-3.5,3.7c-6.9,0-13.8,0-20.7,0c-3.8,0-4.1-0.4-4-4.3c0.1-3.5,0-7,0-10.6c0-3.4,0.3-3.7,3.8-4
			c1.8-0.1,3.7-0.3,5.9-0.3C167.2,112.3,167.4,112.1,167.4,111.8z"/>
		<path class="st2" d="M50.8,112.6c-0.1-4.7-0.1-2.6-0.3-7.2c-1.5,0-3.1,0.1-4.5,0.3c-0.9,0.1-1.8,1.3-2.3,2.2
			c-0.4,0.9-0.7,1.9-0.7,2.9c0.1,8.2,0.3,16.3,0.4,24.5c0,0.4,0.1,0.9,0.3,1.6c0,0.1,0.1,0.3,0.3,0.3c2.1,0.3,4.1,0.6,6.2,0.7
			c18,0,36.1,0,54.1,0c2.1,0,4.1-0.4,6.5-0.7c0.1,0,0.3-0.1,0.3-0.4c0.1-3.2,0.4-6.2,0.4-9.2c0.1-5.3,0.1-10.7,0.1-16
			c0-1,0-2.1-0.4-3.1c-0.7-2.5-1.5-3.1-4.3-3.1c-2.9,0-5.9,0.1-8.9,0.3c-0.1,0-0.4,0.1-0.4,0.4v5.7c0,0.1,0.1,0.4,0.4,0.4
			c2.2,0.1,4.3,0.3,6.3,0.4c2.9,0.3,3.4,0.6,3.4,3.5c0,4.1,0.1,8.2,0.3,12.5c0,1.5-0.6,2.2-1.9,2.5c-0.6,0.1-1.3,0.1-1.9,0.1
			c-7,0-14.1,0-21,0c-3.1,0-3.5-0.4-3.5-3.7c0-10.7,0-21.6,0.3-32.3c0.1-8.1,1.9-9.8,10-10.1c7.3-0.3,14.8-0.4,22.1-0.1
			c5,0.1,9.5,2.2,13.6,5.3c2.5,1.9,4.1,4.4,4.5,7.5c0.4,2.8,0.7,5.7,0.9,8.5c0.1,9.7,0.3,19.5,0.4,29.2c0,4.8-0.1,9.5-2.2,14.1
			c-2.3,5.4-6.5,7.9-12.2,8.1c-3.7,0-7.3,0-10.9,0c-22.3,0-44.6,0-66.9,0c-0.9,0-1.8,0-2.8,0c-4.7-0.4-8.4-2.5-10.6-6.9
			c-2.3-4.5-2.8-9.5-2.8-14.4c0-10.7,0.1-21.3,0.3-32c0-2.6,0.6-5.1,1.2-7.6c0.9-3.7,3.2-6.2,6.5-7.9c4.4-2.3,8.9-4,14.1-3.8
			c5.3,0.1,10.7,0,16,0.1c2.6,0,5.1,0.4,7.8,0.7c3.4,0.4,5,2.5,5.4,5.6c0.1,1.5,0.4,3.1,0.4,4.7c0.1,10.6,0.1,21,0.1,31.5
			c0,3.4-0.4,3.8-3.8,3.8c-6.7,0-13.5,0-20.2,0c-0.7,0-1.6,0-2.3-0.1c-1.3-0.3-2.1-1-2.1-2.5c0.1-4.1,0.1-8.2,0.3-12.5
			c0-2.9,0.4-3.4,3.2-3.5C50.4,112.6,50.6,112.6,50.8,112.6z"/>
		<path class="st2" d="M18.4,131.2c0,0.1-0.1,0.4-0.3,0.4c-4.5,0.6-8.4,0.3-12-0.3c-2.2-0.3-3.5-1.9-3.5-4c0-4.3,0.1-8.5,0.6-12.8
			c0.3-2.3,2.5-3.7,4.7-3.8c2.6-0.1,5.4,0,8.2,0.1c1.8,0,2.8,1,2.8,2.6C18.7,119.2,18.5,125,18.4,131.2z"/>
	</g>
	<path class="st3" d="M18.8,114.2v16c0,0.6-0.6,1.2-1.2,1.2H7.8c-2.9,0-5.3-2.3-5.3-5.3v-7.6c0-2.9,2.3-5.3,5.3-5.3h9.8
		C18.4,113,18.8,113.5,18.8,114.2z M230,85h-2.8h-17.9h-14.8c-3.1,0-5.4,2.5-5.4,5.4v14.8v29.5c0,1.3-1,2.3-2.3,2.3h-31.5
		c-0.6,0-1.2-0.4-1.2-1.2v-26.3c0-2.5,2.1-4.5,4.5-4.5h5.4c0.7,0,1.3,0.6,1.3,1.3v5.1c0,0.7-0.6,1.3-1.3,1.3h-3.5
		c-1.9,0-3.4,1.5-3.4,3.4v8.8c0,3.4,2.8,6.2,6.2,6.2h2.1h16.9c1.9,0,3.4-1.5,3.4-3.4V111v-5.9v-5.6c0-8.1-6.6-14.7-14.7-14.7h-5.6
		H154h-0.6c-10.9,0-19.7,8.8-19.7,19.7v0.6v32v5.1c0,8.4,6.7,15.1,15.1,15.1h5.1h35h14.8c2.9,0,5.4-2.5,5.4-5.4v-46.3
		c0-0.3,0.1-0.4,0.4-0.4h10.4c4,0,7,3.2,7,7v40.5c0,2.6,2.1,4.7,4.7,4.7h14.7c0.6,0,1-0.4,1-1v-51.2v-2.8
		C247.5,92.8,239.7,85,230,85z M111.7,85h-0.4H99.9H85.7c-3.4,0-6,2.6-6,6v14.2v7.8v12.2c0,3.4,2.8,6.2,6.2,6.2h8.5
		c3.1,0,5.6-2.5,5.6-5.6v-19.2c0-0.7,0.6-1.3,1.3-1.3h5.4c2.5,0,4.5,2.1,4.5,4.5V136c0,0.6-0.4,1.2-1.2,1.2H97.9H56.7H44.2
		c-0.4,0-0.7-0.4-0.7-0.7v-25.1c0-4.3,1.9-6.2,4.1-6.2h5.9c0.7,0,1.3,0.6,1.3,1.3v5.1c0,0.7-0.6,1.3-1.3,1.3h-3.5
		c-1.9,0-3.4,1.5-3.4,3.4v11.4c0,1.9,1.5,3.4,3.4,3.4h4.7h14.1c3.4,0,6.2-2.8,6.2-6.2v-12.2v-7.8v-5.6c0-8.1-6.6-14.7-14.7-14.7
		h-5.6H43.3h-0.6c-10.9,0-19.7,8.8-19.7,19.7v2.5v32v3.2c0,8.4,6.7,15.1,15.1,15.1h5.1h13.2h41.2h13.2h5.1c8.4,0,15.1-6.7,15.1-15.1
		v-5.1v-32v-0.6C131.5,93.8,122.5,85,111.7,85z"/>
</g>
</svg>
