<?xml version="1.0" encoding="utf-8"?>
<!-- Generator: Adobe Illustrator 23.1.0, SVG Export Plug-In . SVG Version: 6.00 Build 0)  -->
<svg version="1.1" id="Layer_1" xmlns="http://www.w3.org/2000/svg" xmlns:xlink="http://www.w3.org/1999/xlink" x="0px" y="0px"
	 viewBox="0 0 250 250" style="enable-background:new 0 0 250 250;" xml:space="preserve">
<style type="text/css">
	.st0{fill:#FFFFFF;}
</style>
<g id="Calque_1">
	<g>
		<path class="st0" d="M234.1,134.3c-1.3-2.6-3.8-4.5-8.9-6.6c-4.2-1.8-6.3-3-7.6-4.4c-1.1-1.1-1.3-2-1.2-3.8
			c0.1-1.6,0.4-2.6,1.5-3.6c1.2-1.3,3-1.8,5.1-1.4c3.4,0.7,5.6,3.1,7.5,8.1c0.7,1.8,0.8,1.8,1.9,1.4l0.8-0.3v-2
			c0-1.1-0.1-3.5-0.1-5.3l-0.1-3.3l-0.5-0.3c-3.2-1.3-9.1-2.1-12.9-1.8c-4.4,0.4-7.7,1.8-10.1,4.4c-2.5,2.6-3.6,5.5-3.4,9.2
			c0.2,3,1.1,5.1,2.9,7c1.7,1.8,3.1,2.6,7.2,4.1c6.6,2.6,8.3,4.1,8.3,7.2c0,2.6-1.4,4.7-4.1,5.5c-0.9,0.4-3.3,0.4-4.5,0
			c-3.3-0.9-5.7-3.7-7.9-9l-0.5-1.3h-0.6c-0.4,0-0.9,0.1-1.1,0.3l-0.4,0.2v2.3c0,1.2,0.1,4,0.2,5.9l0.1,3.6l0.7,0.4
			c1.5,0.6,6,1.6,8.8,1.9c0.4,0,2.3,0.1,4.3,0c3.4,0,3.7-0.1,5.5-0.5c5.2-1.3,8.5-4.2,10-8.6c0.4-1.3,0.5-1.8,0.6-3.8
			C235.2,137.4,234.9,136.1,234.1,134.3z"/>
		<path class="st0" d="M35.9,100.8h5c5.7,0,6.7,0.1,8.7,1.1c2.9,1.4,5.1,4.3,7,9.2c0.8,2,0.8,2,2.5,1.5l1.1-0.4l-0.1-7.3
			c-0.1-4.1-0.2-7.6-0.2-7.9l-0.1-0.6l-22-0.1c-12,0-22.1,0-22.4,0.1l-0.5,0.1l0.1,1.3l0.1,1.3l1.6,0.2c2.2,0.3,3.4,0.9,4.2,1.9
			c1.8,2.6,2,5.9,2,22.2c0,17.4-0.4,21.5-2,23.7c-0.9,1.1-1.6,1.5-3.5,1.8c-2.6,0.4-2.5,0.4-2.5,1.8c0,0.7,0.1,1.1,0.2,1.1l0,0
			c0.3,0.1,28.2,0.1,28.5,0c0.4-0.2,0.4-2.2,0-2.4c-0.2-0.1-1.1-0.3-2.1-0.4c-1-0.2-2.1-0.4-2.5-0.5c-1.8-0.8-2.8-3-3.3-7
			c-0.3-2.8-0.5-8.1-0.5-12v-3.6l1.7,0.1c3.6,0.1,5.5,0.3,6.3,0.6c1.7,0.7,3,2.7,3.7,5.5l0.4,1.5l1.3,0.1l1.3,0.1v-9.5V115l-1.3,0.1
			l-1.3,0.1l-0.4,1.5c-0.7,2.9-1.9,4.7-3.7,5.5c-0.7,0.4-1.2,0.4-2.9,0.5c-1.1,0.1-2.7,0.1-3.5,0.1h-1.5v-4.7
			c0-4.8,0.3-14.7,0.4-16.3L35.9,100.8z M15.3,96.8L15.3,96.8L15.3,96.8L15.3,96.8z M15.4,98.8L15.4,98.8L15.4,98.8L15.4,98.8z
			 M15.3,151.2c0.2,0.2,0.4,0.4,0.7,0.4h-0.7V151.2z M43.3,151.6c0.1-0.1,0.3-0.2,0.4-0.3v0.3H43.3z M47.7,133.5L47.7,133.5
			L47.7,133.5L47.7,133.5z M49.6,133.5L49.6,133.5L49.6,133.5L49.6,133.5z"/>
		<path class="st0" d="M93,128.7c-0.8-7-3.8-12.2-8.7-15.1c-5.5-3.3-13.7-3.4-19.6-0.4c-4.2,2.1-7.8,6.3-9.2,11
			c-1.6,4.8-1.6,11.3,0,16.3c1.1,3.2,2.4,5.5,4.6,7.7c2.6,2.6,5.9,4.1,9.8,4.8c1.4,0.2,5.7,0.2,7.1,0c0.7-0.1,1.8-0.4,2.6-0.5
			c7-2,11.7-7.4,13.3-15C93,135.4,93.2,130.9,93,128.7z M66.7,138.3c-0.4-2.8-0.4-10.4,0-13.6c0.9-7,3-10.5,6.3-10.5
			c1.5,0,2.4,0.4,3.5,1.6c2.8,2.8,4.1,8.3,4.1,16.9c0,6.9-0.7,11.1-2.2,14.1c-0.7,1.4-2.1,2.7-3.3,3.1
			C71,151.1,67.9,146.9,66.7,138.3z M70.5,152.7c0.1,0,0.1,0,0.2,0C70.6,152.7,70.5,152.7,70.5,152.7L70.5,152.7z M76.4,152.5
			c0.7-0.1,1.3-0.2,1.9-0.4c-0.2,0-0.3,0.1-0.4,0.1l0,0C77.5,152.4,77,152.5,76.4,152.5z"/>
		<path class="st0" d="M121.6,111.1c-1.8,0-2.8,0.2-4.3,0.9c-2.7,1.2-4.8,3.3-6.6,6.5l-0.5,1.1l0.1-1.8c0-1,0.1-2.9,0.2-4.1l0.1-2.4
			h-0.4c-0.5,0-16.2,3.2-16.6,3.3c-0.4,0.1-0.4,0.3-0.4,1.1c0,0.8,0,0.9,0.4,1c0.2,0,0.9,0.2,1.6,0.4c1.4,0.3,1.8,0.4,2.4,1.2
			c1.1,1.4,1.2,3.9,1.2,14.3c0,8.5-0.2,12.8-0.6,14.1c-0.5,1.7-1.4,2.5-2.9,2.7c-0.5,0.1-1.1,0.3-1.5,0.3l-0.5,0.1l-0.1,1.1
			c0,0.8,0,1.1,0.2,1.2l0,0c0.1,0.1,5.5,0.1,11.9,0.1h11.7l0.1-1.2c0-0.7,0-1.2-0.1-1.2c-0.9,0-3.7-0.4-4.1-0.5
			c-1.3-0.5-1.9-1.8-2.2-4.1c-0.4-2.8-0.5-9.9-0.4-15.6c0.1-5.8,0.1-5.8,0.4-6.3c0.9-0.9,3-1.6,4.9-1.6c1.6,0,3.2,0.4,4.8,1.2
			c0.8,0.4,1.6,0.7,1.7,0.6c0.2-0.1,4.1-10.2,4.1-10.7C125.9,111.8,123.7,111.1,121.6,111.1z"/>
		<path class="st0" d="M151.7,112c-1-0.2-1.8-0.3-3.6-0.2c-2.7,0.1-4.6,0.5-6.7,1.4c-0.7,0.4-1.2,0.5-1.3,0.5c-0.1,0,0-4.1,0-9.2
			c0.1-7.1,0.1-9.2-0.1-9.2c-0.5,0-16.6,3.1-16.8,3.3c-0.2,0.1-0.2,0.4-0.2,1c0.1,0.9-0.1,0.8,1.9,1.2c0.6,0.2,1.3,0.4,1.6,0.6
			c0.6,0.4,1.2,1.5,1.6,2.9c0.3,1.1,0.4,1.9,0.4,9.7c0.2,7.9,0.1,16-0.1,31l-0.1,6.2l1.1,0.3c1.7,0.4,6.5,1.1,8,1.3l0,0
			c2.3,0.3,7.7,0.2,9.4-0.1c7.4-1.1,13-5.5,15.6-12.1c0.7-1.8,1.3-4.4,1.6-6.4c0.3-2.4,0.1-7-0.3-8.9
			C162.4,118.2,157.9,113.2,151.7,112z M140.1,122.8l0.1-5.8l1.1-0.4c0.7-0.2,1.5-0.4,2.5-0.4c1.3,0,1.5,0,2.6,0.6
			c2.7,1.3,4.6,4.7,5.5,9.8c0.4,1.8,0.4,7,0.1,9.2c-0.7,5.5-2.6,10-4.9,12.2c-1,0.9-1.8,1.3-3,1.5l0,0c-0.8,0.2-1.1,0.2-2.6,0
			c-0.6-0.1-0.8-0.1-0.9-0.4C140.3,148.8,140,130.2,140.1,122.8z"/>
		<path class="st0" d="M194.2,112.7c-4.3-2.2-11.1-2-15.9,0.4c-4.7,2.3-7.8,6.1-9.7,11.4c-1,2.8-1.2,5-1.1,8.6
			c0.1,2.3,0.2,3.4,0.4,4.5c1.8,8.2,7.5,13.7,15.3,15.2l0,0c1.8,0.4,5.6,0.4,7.4,0c2.5-0.4,5.4-1.6,7.2-2.7c2.2-1.5,4.5-3.8,4.5-4.4
			c0-0.4-0.8-1.4-1.1-1.4h-0.1l0,0l-0.1,0.1c-0.3,0.1-0.7,0.4-1.1,0.6c-2.2,1.4-4.2,1.9-7.1,1.9c-4,0-6.5-1-9-3.5
			c-1.1-1.1-1.6-1.8-2.2-2.9c-1.2-2.5-1.9-5.3-2-8.5l-0.1-1.4h11.7h11.7l0.1-0.8c0-0.4,0-1.6-0.1-2.6
			C202,120.1,199.1,115.1,194.2,112.7z M186,114.2c2.7,0,4.4,3.8,4.8,10.7l0.1,1.9l-2.7,0.1l0,0c-1.5,0.1-4.1,0.1-5.7,0.2l-3,0.1
			v-0.6c0-0.4,0.1-1.3,0.3-2C180.6,118,183,114.2,186,114.2z M190.2,152.5c-0.2,0-0.4,0.1-0.5,0.1c1.9-0.4,4-1,6-1.8
			c0.1,0,0.1-0.1,0.2-0.1C194.1,151.5,192.1,152.1,190.2,152.5z M200.6,147.1c0.3-0.4,0.6-0.7,0.9-1.1c0-0.1,0.1-0.1,0.1-0.2
			C201.5,146.2,201.1,146.6,200.6,147.1z"/>
	</g>
</g>
</svg>
