<?xml version="1.0" encoding="utf-8"?>
<!-- Generator: Adobe Illustrator 23.1.0, SVG Export Plug-In . SVG Version: 6.00 Build 0)  -->
<svg version="1.1" xmlns="http://www.w3.org/2000/svg" xmlns:xlink="http://www.w3.org/1999/xlink" x="0px" y="0px"
	 viewBox="0 0 250 250" style="enable-background:new 0 0 250 250;" xml:space="preserve">
<style type="text/css">
	.st0{fill:#FFFFFF;}
</style>
<g id="Calque_1">
	<g>
		<g>
			<path class="st0" d="M39,122c-2.5,0-4.5,1.2-5.8,3.7c-1.1,2-1.7,4.9-1.8,7.9c-0.1,7,2.8,11.8,7.2,11.9c0,0,0.1,0,0.1,0
				c2.1,0,4.1-0.8,5.6-2.3l0.1-0.1l-0.8-1.7l-0.1,0.1c-1.3,0.8-2.4,1.1-3.7,1c-1.5,0-2.3-1.3-2.8-2.4c-0.6-1.4-0.9-3.2-0.9-5.2
				l8.6,0l0.5-1.2l0,0C45.4,126.4,43.1,122,39,122z M41.2,132.6l-5.1,0.2c0-1.5,0.5-5.7,1.3-7.5c0.6-0.4,1-0.5,1.4-0.5
				C40.7,124.9,41.1,129.7,41.2,132.6z"/>
			<path class="st0" d="M53.8,122c-2.5,0-4.5,1.2-5.8,3.7c-1.1,2-1.7,4.9-1.8,7.9c-0.1,7,2.8,11.8,7.2,11.9c0,0,0.1,0,0.1,0
				c2.1,0,4.1-0.8,5.6-2.3l0.1-0.1l-0.8-1.7l-0.1,0.1c-1.3,0.8-2.4,1.1-3.7,1c-1.5,0-2.3-1.3-2.8-2.4c-0.6-1.4-0.9-3.2-0.9-5.2
				l8.6,0l0.5-1.2l0,0C60.2,126.4,57.9,122,53.8,122z M55.5,127.8c0,0.1,0,0.2,0.1,0.3c0,0,0,0.1,0,0.1c0,0.1,0,0.2,0,0.3
				c0,0.1,0,0.2,0,0.3c0,0.1,0,0.1,0,0.2c0,0.1,0,0.1,0,0.2c0,0.1,0,0.1,0,0.2c0,0,0,0.1,0,0.1c0.1,0.9,0.2,1.9,0.2,3.2l-5.1,0.2
				c0-1.5,0.5-5.7,1.3-7.5c0.6-0.4,1-0.5,1.4-0.5C54.2,124.8,55,125.3,55.5,127.8C55.5,127.8,55.5,127.8,55.5,127.8z"/>
			<path class="st0" d="M31.6,123L31.6,123l-0.8-0.7l-0.2,0c-2.6,0-4.4,0.9-5.4,1.7v-0.4l-0.3-1.3l-5.2,0.7v2l1.9,0.2v17.5l-1.6,0.4
				l-0.1,1.9h7.8l0.1-1.9l-1.8-0.4v-17c0.5-0.3,1.1-0.5,1.8-0.7l0.3,2.6l2.9,0.1L31.6,123L31.6,123z"/>
			<path class="st0" d="M75.3,142.8v-15.5c0-3.2-1.9-5.1-4.9-5.1c-1.7,0-3.2,0.6-4.5,1.9v-0.4l-0.4-1.3l-5.4,0.8v2.2l2.2,0.2v17.4
				l-1.9,0.4l-0.1,2.1h8.3l0.2-2.1l-1.9-0.4v-16.3c0.2-0.3,0.4-0.6,0.7-0.8c0.4-0.1,0.8-0.2,1.3-0.2c1.5,0,2.1,0.8,2.1,2.7v17.1h6.1
				l0.1-2.1L75.3,142.8z"/>
			<path class="st0" d="M11.9,131.5v2.5l2.2,0.6v5.4c0,0-0.5,0.2-0.8,0.4c-0.9,0.5-2.1,1.2-2.6,1.2c-3.4,0-3.9-8.2-3.9-13
				c0-4.3,0.5-10.5,1.6-14c0.9-0.4,1.8-0.6,2.8-0.6c1.1,0,1.5,0.2,2.3,0.5c0.1,0,0.2,0.1,0.4,0.1v8.1l3.2,0.9l1.2-8.6l-0.3-1.8l0,0
				c-1.5-2-3.6-2.9-6.5-2.9c-2.5,0-4.8,1.6-6.5,4.5c-1.9,3.3-3,8.2-3,14.2c0,9.8,3.5,16.9,8.4,16.9c2,0,3.7-0.8,5-2.6l0.7,2.2h2.1
				v-10.7l1.7-0.8v-2.3H11.9z"/>
		</g>
		<path class="st0" d="M247.9,144.3V144h0.2c0.1,0,0.2,0,0.2,0.2c0,0.2-0.2,0.2-0.3,0.2H247.9z M247.9,144.4h0.2l0.3,0.5h0.1
			l-0.3-0.5c0.1,0,0.3-0.1,0.3-0.3c0-0.2-0.1-0.3-0.3-0.3h-0.4v1h0.1V144.4z M248.1,143.6c0.4,0,0.7,0.3,0.7,0.8
			c0,0.4-0.3,0.8-0.7,0.8c-0.4,0-0.7-0.3-0.7-0.8C247.3,143.9,247.6,143.6,248.1,143.6 M248.1,143.5c-0.5,0-0.9,0.4-0.9,0.9
			c0,0.5,0.4,0.9,0.9,0.9c0.5,0,0.9-0.4,0.9-0.9C248.9,143.9,248.5,143.5,248.1,143.5"/>
		<path class="st0" d="M141.3,122c-2.5,0-4.5,1.2-5.8,3.7c-1.1,2-1.7,4.8-1.8,7.9c-0.1,7,2.8,11.8,7.2,11.9c0,0,0.1,0,0.1,0
			c2.1,0,4.1-0.8,5.6-2.3l0.1-0.1l-0.8-1.7l-0.1,0.1c-1.3,0.8-2.4,1.1-3.7,1c-1.5,0-2.4-1.3-2.8-2.4c-0.6-1.4-0.9-3.2-0.9-5.2l8.6,0
			l0.5-1.2l0,0C147.7,126.4,145.3,122,141.3,122z M139.7,125.3c0.6-0.4,1-0.5,1.4-0.5c1.9,0,2.3,4.8,2.4,7.8l-5.1,0.2
			C138.4,131.3,138.8,127.1,139.7,125.3z"/>
		<path class="st0" d="M183.2,122c-2.5,0-4.5,1.2-5.8,3.7c-1.1,2-1.7,4.8-1.8,7.9c-0.1,7,2.8,11.8,7.2,11.9c0,0,0.1,0,0.1,0
			c2.1,0,4.1-0.8,5.6-2.3l0.1-0.1l-0.8-1.7l-0.1,0.1c-1.3,0.8-2.4,1.1-3.7,1c-1.5,0-2.4-1.3-2.8-2.4c-0.6-1.4-0.9-3.2-0.9-5.2l8.6,0
			l0.5-1.2l0,0C189.6,126.4,187.2,122,183.2,122z M181.6,125.3c0.6-0.4,1-0.5,1.4-0.5c1.9,0,2.3,4.8,2.4,7.8l-5.1,0.2
			C180.3,131.3,180.7,127.1,181.6,125.3z"/>
		<path class="st0" d="M213.8,122c0,0-0.1,0-0.1,0c-2.4,0-4.4,1.3-5.7,3.7c-1.1,2-1.7,4.8-1.8,7.9c-0.1,7,2.8,11.8,7.2,11.9
			c0,0,0.1,0,0.1,0c2.1,0,4.1-0.8,5.6-2.3l0.1-0.1l-0.8-1.7l-0.1,0.1c-1.3,0.8-2.4,1.1-3.7,1c-1.5,0-2.4-1.3-2.8-2.4
			c-0.6-1.4-0.9-3.2-0.9-5.2l8.6,0l0.5-1.2l0,0C220.2,126.4,217.8,122,213.8,122z M212.2,125.3c0.6-0.4,1-0.5,1.4-0.5
			c1.9,0,2.3,4.8,2.4,7.8l-5.1,0.2C210.9,131.3,211.3,127.1,212.2,125.3z"/>
		<path class="st0" d="M119.5,142.6c-0.9,0-1.4-0.5-1.4-1.4v-16.8l2.9-0.3l0.2-2.5h-3.2v-3.7l-3.2,0.1l-1,3.5l-2.4,0.1l-0.1,2.5
			l2.1,0.3v16.8c0,3.7,2.7,4.2,4.3,4.2c2,0,3.3-0.5,3.7-0.6l0.1,0l-0.2-2.2H119.5z"/>
		<path class="st0" d="M110.4,142.8v-15.5c0-3.2-1.9-5.1-4.9-5.1c-1.7,0-3.2,0.6-4.5,1.9v-0.4l-0.4-1.3l-5.4,0.8v2.2l2.2,0.2v17.4
			l-1.9,0.4l-0.1,2.1h8.3l0.2-2.1l-1.9-0.4v-16.3c0.2-0.3,0.4-0.6,0.7-0.8c0.4-0.1,0.8-0.2,1.3-0.2c1.5,0,2.1,0.8,2.1,2.7v17.1h6.1
			l0.1-2.1L110.4,142.8z"/>
		<path class="st0" d="M133.6,122.3c-2.2,0-4.2,0.5-5.8,1.6v-0.2l-0.4-1.4l-5.4,0.8v2.2l1.9,0.2v17.4l-1.6,0.4l-0.1,2.1h8.1l0.2-2.1
			l-2-0.4V126c0.5-0.3,1-0.5,1.8-0.6l0.3,2.6l3.4,0.1l0.6-5.1L133.6,122.3L133.6,122.3z"/>
		<path class="st0" d="M204.7,127.3c0-3.2-1.9-5.1-4.9-5.1c-1.7,0-3.2,0.6-4.5,1.9v-0.4l-0.4-1.3l-5.4,0.8v2.2l1.9,0.2v17.4
			l-1.7,0.4l-0.1,2.1h8l0.2-2.1l-1.9-0.4v-16.3c0.2-0.3,0.4-0.6,0.7-0.8c0.4-0.1,0.8-0.2,1.3-0.2c1.5,0,2.1,0.8,2.1,2.7v17.1h6.3
			l0.1-2.1l-1.9-0.4V127.3z"/>
		<path class="st0" d="M235.4,123.8l-0.5-1.7l-6.3,0.7v1.9l2.2,0.2v16.4c-0.3,0.4-0.5,0.7-0.7,0.9c-0.4,0.2-0.9,0.2-1.4,0.2
			c-1.5,0-2.2-0.9-2.2-2.8v-15.9l-0.5-1.7l-6,0.7v1.9l1.9,0.2v15.2c0,1.6,0.5,5.4,5.1,5.4c1.8,0,3-0.8,3.9-1.7l0.4,1.4h5.8l0.2-2.1
			l-1.9-0.4V123.8z"/>
		<path class="st0" d="M249.1,122.3H249c-2,0-3.9,0.5-5.3,1.6v-0.2l-0.4-1.4l-5.4,0.8v2.1l1.9,0.2v17.4l-1.6,0.4l-0.1,2.1h8l0.2-2.1
			l-1.8-0.4V126c0.4-0.3,0.9-0.5,1.6-0.6l0.3,2.6l3.1,0.1l0.6-5.1L249.1,122.3z"/>
		<path class="st0" d="M175.1,122.3H175c-2,0-3.9,0.5-5.3,1.6v-0.2l-0.4-1.4l-5.4,0.8v2.1l1.9,0.2v17.4l-1.6,0.4l-0.1,2.1h8l0.2-2.1
			l-1.8-0.4V126c0.4-0.3,0.9-0.5,1.6-0.6l0.3,2.6l3.1,0.1l0.6-5.1L175.1,122.3z"/>
		<polygon class="st0" points="79,142.7 78.8,145.3 94.6,145.3 94.3,138.4 90.9,138.3 90.5,142.6 86,142.6 86,128.9 87.8,128.9 
			88.3,131 90.8,131 90.8,124.4 88.4,124.3 87.9,126.4 86,126.4 86,113.1 90.4,113.1 90.6,116.9 93.9,117 94.3,110.7 78.8,110.7 
			78.7,113.1 81.1,113.4 81.1,142.3 		"/>
		<path class="st0" d="M157.7,122.2c-2.4,0-4.2,2-4.2,2V124l-0.5-1.7l-5.5,0.8v2l1.9,0.3v25.1l-1.6,0.4l-0.1,2.1h8l0.2-2l-1.8-0.4
			v-6.7c0.8,0.4,1.8,0.6,2.8,0.6c6.7,0,6.7-8.7,6.7-11.5C163.4,127.7,161.9,122.2,157.7,122.2z M159,133.7c0,4.2-0.6,6.9-0.8,7.4
			c-0.6,0.3-1.3,0.5-2.1,0.5c-0.9,0-1.6-0.1-2.1-0.4v-14.6c0.3-0.4,0.6-0.7,0.8-1c0.5-0.2,1-0.3,1.5-0.3
			C157.5,125.3,159,126.2,159,133.7z"/>
	</g>
</g>
<g id="Layer_2">
</g>
</svg>
