<?xml version="1.0" encoding="utf-8"?>
<!-- Generator: Adobe Illustrator 23.0.3, SVG Export Plug-In . SVG Version: 6.00 Build 0)  -->
<svg version="1.1" id="Calque_1" xmlns="http://www.w3.org/2000/svg" xmlns:xlink="http://www.w3.org/1999/xlink" x="0px" y="0px"
	 viewBox="0 0 250 250" style="enable-background:new 0 0 250 250;" xml:space="preserve">
<style type="text/css">
	.st0{fill:#FFFFFF;}
</style>
<path class="st0" d="M216,136.7l-54.6-52.9c-4.8-4.8-12.6-4.6-17.4,0.2l-30,30.2c-3,3-8.1,3-11.2,0l0,0l-29.9-30
	c-1.9-2.1-4.6-3.4-7.5-3.7c-3.8-0.5-7.5,0.8-10.2,3.5L5.3,133.6L0,138.9l0,0l5.3,5.3l17.3,17.3c2.7,2.7,6.4,4.5,10.2,4.8
	c4.6,0.5,9.3-1.3,12.6-4.6l25.1-24.8l0,0l30.8,32.9c4.3,4.5,11.3,4.6,15.8,0.5c0.2-0.2,0.3-0.3,0.5-0.5l30.5-34.2l0,0l29.1,27.6l0,0
	c3.8,3.2,9.6,2.9,13.1-0.6L216,136.7L216,136.7z M93.3,115.3l-2.4-0.5c-4.6-1-9.3,0.3-12.6,3.7l-38.2,38c-3.4,3.4-8.6,3.4-12,0l0,0
	l-17.4-17.4l0,0l49.8-49.7c1.9-1.9,5-1.9,6.9,0l0,0L93.3,115.3z M174.4,107L174.4,107c-0.2,0-7.3-2.1-12.3,2.9l-0.8,0.8l0,0
	l-23.2,23.2c-1.8,1.8-4.3,2.9-6.9,2.9s-5-1-6.9-2.9l-9.9-9.9l34.7-34.7c0.2-0.2,0.3-0.2,0.3-0.3l0.2-0.2l0.3-0.2l0.2-0.2l0.3-0.2
	h0.2c0.2,0,0.2-0.2,0.3-0.2h0.2l0.3-0.2h0.2h0.3h0.2c0.2,0,0.2,0,0.3,0h0.2h0.3l0,0h0.2h0.2h0.3h0.2h0.3h0.2l0.3,0.2h0.2l0.3,0.2
	h0.2c0.2,0,0.2,0.2,0.3,0.2l0.2,0.2l0.3,0.2l0.2,0.2c0.2,0.2,0.3,0.2,0.3,0.3L174.4,107L174.4,107z M250,103.6l-27,27l-29.4-29.4
	l16.3-16.3c5.9-5.9,15.3-5.9,21.2,0L250,103.6z"/>
</svg>
