<?xml version="1.0" encoding="utf-8"?>
<!-- Generator: Adobe Illustrator 23.1.0, SVG Export Plug-In . SVG Version: 6.00 Build 0)  -->
<svg version="1.1" id="Layer_1" xmlns="http://www.w3.org/2000/svg" xmlns:xlink="http://www.w3.org/1999/xlink" x="0px" y="0px"
	 viewBox="0 0 250 250" style="enable-background:new 0 0 250 250;" xml:space="preserve">
<style type="text/css">
	.st0{fill:#FFFFFF;}
</style>
<g id="Calque_1">
	<g>
		<path class="st0" d="M40.7,100v55.1h168.6V100H40.7z M81.6,142.5h-6.8v-16.7c0-2.4-0.5-4.2-1.4-5.4c-0.9-1.1-2.5-1.7-4.7-1.7
			c-1.1,0-2.2,0.3-3.2,0.8s-2,1.2-2.6,2.1v20.9h-6.7v-29H61l1.3,2.7c1.8-2.1,4.5-3.2,8.2-3.2c3.4,0,6.1,1,8.2,3.1c2,2,3,4.9,3,8.6
			V142.5z M135.3,139.2c-2.6,2.6-6.1,3.8-10.5,3.8c-2,0-4-0.4-5.8-1.3v8.4h-6.7v-36.7h6.7v2c1.7-1.6,3.9-2.5,6.2-2.4
			c9.2,0,13.9,5.1,13.9,15.2C139.1,133,137.8,136.6,135.3,139.2z M189.4,119.8c-1.2-0.7-2.6-1.1-4-1.1c-1.6,0-3,0.7-4.1,2.1
			c-1.2,1.5-1.9,3.3-1.8,5.2v16.5h-6.7v-29h6.7v2.8c1.9-2.2,4.4-3.2,7.6-3.2c2.3,0,4,0.3,5.3,1.1L189.4,119.8z"/>
		<path class="st0" d="M123.3,118.7c-1.6,0-3.2,0.7-4.2,1.9v15.2c1.2,1,2.7,1.6,4.2,1.5c3.1,0,5.3-0.7,6.7-2.2s2-3.8,2-7
			c0-3.4-0.7-5.9-2-7.2C128.6,119.4,126.4,118.7,123.3,118.7z"/>
	</g>
</g>
</svg>
