<?xml version="1.0" encoding="utf-8"?>
<!-- Generator: Adobe Illustrator 23.0.3, SVG Export Plug-In . SVG Version: 6.00 Build 0)  -->
<svg version="1.1" id="Calque_1" xmlns="http://www.w3.org/2000/svg" xmlns:xlink="http://www.w3.org/1999/xlink" x="0px" y="0px"
	 viewBox="0 0 250 250" style="enable-background:new 0 0 250 250;" xml:space="preserve">
<style type="text/css">
	.st0{fill:#FFFFFF;}
</style>
<g>
	<path class="st0" d="M125.2,52.3L125.2,52.3C125,52.3,125,52.3,125.2,52.3L125.2,52.3L125.2,52.3z"/>
	<polygon class="st0" points="47.5,168.3 47.5,168.3 47.5,172.5 47.5,172.5 124.9,217.2 201.5,173.1 201.5,173.1 201.5,168.8 
		201.5,168.8 124.9,213 	"/>
	<polygon class="st0" points="47.5,159.7 47.5,159.7 47.5,163.9 47.5,163.9 124.9,208.6 201.5,164.5 201.5,164.5 201.5,160.2 
		201.5,160.2 124.9,204.4 	"/>
	<polygon class="st0" points="124.9,195.8 47.5,151 47.5,151 47.5,155.3 47.5,155.3 124.9,200 201.5,155.8 201.5,155.8 201.5,151.6 
		201.5,151.6 	"/>
	<path class="st0" d="M201.2,143V70l-76.9-37.2L47.6,70v73.2l76.9,44.3L201.2,143z M126.1,177.3v-46.1c4.5,11.8,14.8,16.5,24.9,14.9
		c16-2.6,34.6-17.8,34.6-17.8c-10.8,0.8-18.5-22.3-35.4-23.4c-1.9-0.1-3.8-0.1-5.6,0l48.7-25.8v59.3L126.1,177.3z M124.5,41.5
		l68.9,33.4v0.3l-53.2,28.2c3.8-4,7-9.2,7-15.6v-1c0-13.3-21.3-33.8-22-34.5c-0.7,0.7-22,21.2-22,34.5v1c0,7.1,4,12.9,8.5,17.1
		L55.6,75.2v-0.3L124.5,41.5z M55.6,79.1l48.7,25.8c-1.8-0.1-3.6-0.1-5.6,0c-17,1.1-24.8,24.2-35.4,23.4c0,0,18.6,15,34.6,17.8
		c10.1,1.5,20.4-3.3,24.9-14.9v46.1l-67.1-38.8V79.1z"/>
</g>
</svg>
