<?xml version="1.0" encoding="utf-8"?>
<!-- Generator: Adobe Illustrator 23.0.6, SVG Export Plug-In . SVG Version: 6.00 Build 0)  -->
<svg version="1.1" xmlns="http://www.w3.org/2000/svg" xmlns:xlink="http://www.w3.org/1999/xlink" x="0px" y="0px"
	 viewBox="0 0 2000 2000" style="enable-background:new 0 0 2000 2000;" xml:space="preserve">
<style type="text/css">
	.st0{opacity:0.35;}
	.st1{display:none;}
	.st2{display:inline;fill:url(#SVGID_1_);}
	.st3{display:inline;fill:#4D4D4D;}
	.st4{display:none;opacity:0.34;}
	.st5{display:inline;fill:url(#SVGID_2_);}
	.st6{display:inline;fill:url(#SVGID_3_);}
	.st7{display:inline;fill:url(#SVGID_4_);}
	.st8{fill:#F5F5F5;}
	.st9{fill:#E0EDFE;stroke:#624F77;stroke-width:8;stroke-miterlimit:10;}
	.st10{fill:#FFFFFF;stroke:#624F77;stroke-width:8;stroke-miterlimit:10;}
	.st11{fill:#4D4D4D;stroke:#1A1A1A;stroke-width:8;stroke-miterlimit:10;}
	.st12{fill:#57F2B0;stroke:#337060;stroke-width:8;stroke-miterlimit:10;}
	.st13{display:inline;fill:url(#SVGID_5_);}
	.st14{fill:#337060;}
	.st15{fill:#3FA9F5;}
	.st16{fill:#808080;stroke:#333333;stroke-width:8;stroke-miterlimit:10;}
	.st17{fill:#59C5EF;stroke:#325C6D;stroke-width:8;stroke-miterlimit:10;}
	.st18{fill:#B9E6F9;stroke:#325C6D;stroke-width:8;stroke-miterlimit:10;}
	.st19{fill:#F7DE48;stroke:#CC932E;stroke-width:8;stroke-miterlimit:10;}
	.st20{fill:#F9F9B9;stroke:#CC932E;stroke-width:8;stroke-miterlimit:10;}
	.st21{fill:#B9FCDD;stroke:#337060;stroke-width:8;stroke-miterlimit:10;}
	.st22{fill:#EF5959;stroke:#6D3232;stroke-width:8;stroke-miterlimit:10;}
	.st23{fill:#F9B9B9;stroke:#6D3232;stroke-width:8;stroke-miterlimit:10;}
	.st24{fill:#333333;}
	.st25{fill:#624F77;}
	.st26{fill:#FF6F1F;stroke:#F15A24;stroke-width:8;stroke-miterlimit:10;}
	.st27{fill:#FF931E;stroke:#F15A24;stroke-width:8;stroke-miterlimit:10;}
	.st28{enable-background:new    ;}
	.st29{fill:#F15A24;}
	.st30{fill:#0359D6;stroke:#263FEF;stroke-width:8;stroke-miterlimit:10;}
	.st31{fill:#1F64FF;stroke:#263FEF;stroke-width:8;stroke-miterlimit:10;}
	.st32{fill:#263FEF;}
	.st33{fill:#325C6D;}
	.st34{fill:#6D3232;}
	.st35{fill:#CC932E;}
</style>
<g id="Layer_1" class="st0">
</g>
<g id="Layer_2">
	<g class="st1">
		<linearGradient id="SVGID_1_" gradientUnits="userSpaceOnUse" x1="571.6597" y1="511.864" x2="1067.1329" y2="511.864">
			<stop  offset="0" style="stop-color:#424242"/>
			<stop  offset="3.158564e-02" style="stop-color:#000000"/>
			<stop  offset="0.394" style="stop-color:#1A1919"/>
			<stop  offset="0.6218" style="stop-color:#D1CFCF"/>
			<stop  offset="0.9715" style="stop-color:#FFFFFF"/>
			<stop  offset="0.9955" style="stop-color:#BDBDBD"/>
		</linearGradient>
		<path class="st2" d="M1067.1,504.5L1067.1,504.5l0-85.2l-133.5,3.6l-81.4-43.2c-19.4-10.3-42.8-9.9-61.8,1.2l-83,48.2l-135.8,3.7
			v84.1c-0.3,6.1,2.7,12.3,8.9,15.6L792.7,645c16.8,8.9,37,8.5,53.5-1l211.7-122.9C1064.2,517.4,1067.3,510.9,1067.1,504.5z"/>
		<path class="st3" d="M1057.9,475.5L846.1,598.5c-16.5,9.6-36.7,9.9-53.5,1L580.6,486.9c-5.3-2.8-8.2-7.7-8.8-12.9
			c-0.8,6.5,2.2,13.4,8.8,16.9l212.1,112.6c16.8,8.9,37,8.5,53.5-1l211.7-122.9c6.8-4,9.9-11.2,9.2-18.1
			C1066.4,467,1063.4,472.3,1057.9,475.5z"/>
		<path class="st3" d="M790.5,295.3L580,417.4c-11.4,6.6-11.1,23.2,0.6,29.4l212.1,112.6c16.8,8.9,37,8.5,53.5-1l211.7-122.9
			c12.6-7.3,12.3-25.7-0.6-32.5l-205-108.8C832.8,283.8,809.5,284.2,790.5,295.3z"/>
	</g>
	<g class="st4">
		<linearGradient id="SVGID_2_" gradientUnits="userSpaceOnUse" x1="935.7169" y1="1019.3431" x2="1598.6499" y2="1019.3431">
			<stop  offset="0" style="stop-color:#424242"/>
			<stop  offset="3.158564e-02" style="stop-color:#000000"/>
			<stop  offset="0.394" style="stop-color:#1A1919"/>
			<stop  offset="0.6218" style="stop-color:#D1CFCF"/>
			<stop  offset="0.9715" style="stop-color:#FFFFFF"/>
			<stop  offset="0.9955" style="stop-color:#BDBDBD"/>
		</linearGradient>
		<path class="st5" d="M1598.6,1009.5L1598.6,1009.5l0-114l-178.6,4.8l-109-57.9c-26-13.8-57.2-13.2-82.6,1.6l-111.1,64.5
			l-181.7,4.9V1026c-0.4,8.2,3.6,16.5,11.9,20.9l283.7,150.6c22.5,11.9,49.5,11.4,71.5-1.4l283.3-164.5
			C1594.7,1026.7,1598.8,1018.1,1598.6,1009.5z"/>
		<path class="st3" d="M1228.5,729.5L946.9,893c-15.3,8.9-14.9,31.1,0.7,39.3l283.7,150.6c22.5,11.9,49.5,11.4,71.5-1.4l283.3-164.5
			c16.9-9.8,16.4-34.4-0.8-43.5L1311.1,728C1285.2,714.2,1253.9,714.8,1228.5,729.5z"/>
	</g>
	<g class="st1">
		<linearGradient id="SVGID_3_" gradientUnits="userSpaceOnUse" x1="1016.4984" y1="897.4671" x2="1511.9716" y2="897.4671">
			<stop  offset="0" style="stop-color:#424242"/>
			<stop  offset="3.158564e-02" style="stop-color:#000000"/>
			<stop  offset="0.394" style="stop-color:#1A1919"/>
			<stop  offset="0.6218" style="stop-color:#D1CFCF"/>
			<stop  offset="0.9715" style="stop-color:#FFFFFF"/>
			<stop  offset="0.9955" style="stop-color:#BDBDBD"/>
		</linearGradient>
		<path class="st6" d="M1512,890.1L1512,890.1l0-85.2l-133.5,3.6l-81.4-43.2c-19.4-10.3-42.8-9.9-61.8,1.2l-83,48.2l-135.8,3.7v84.1
			c-0.3,6.1,2.7,12.3,8.9,15.6l212.1,112.6c16.8,8.9,37,8.5,53.5-1l211.7-122.9C1509.1,903,1512.1,896.5,1512,890.1z"/>
		<path class="st3" d="M1502.7,861.1L1291,984.1c-16.5,9.6-36.7,9.9-53.5,1l-212.1-112.6c-5.3-2.8-8.2-7.7-8.8-12.9
			c-0.8,6.5,2.2,13.4,8.8,16.9l212.1,112.6c16.8,8.9,37,8.5,53.5-1l211.7-122.9c6.8-4,9.9-11.2,9.2-18.1
			C1511.3,852.6,1508.2,857.9,1502.7,861.1z"/>
		<path class="st3" d="M1235.3,680.9L1024.9,803c-11.4,6.6-11.1,23.2,0.6,29.4L1237.5,945c16.8,8.9,37,8.5,53.5-1l211.7-122.9
			c12.6-7.3,12.3-25.7-0.6-32.5l-205-108.8C1277.7,669.4,1254.3,669.8,1235.3,680.9z"/>
	</g>
	<g class="st1">
		<linearGradient id="SVGID_4_" gradientUnits="userSpaceOnUse" x1="490.8783" y1="1402.8828" x2="1153.8113" y2="1402.8828">
			<stop  offset="0" style="stop-color:#424242"/>
			<stop  offset="3.158564e-02" style="stop-color:#000000"/>
			<stop  offset="0.394" style="stop-color:#1A1919"/>
			<stop  offset="0.6218" style="stop-color:#D1CFCF"/>
			<stop  offset="0.9715" style="stop-color:#FFFFFF"/>
			<stop  offset="0.9955" style="stop-color:#BDBDBD"/>
		</linearGradient>
		<path class="st7" d="M1153.8,1393.1L1153.8,1393.1l0-114l-178.6,4.8l-109-57.9c-26-13.8-57.2-13.2-82.6,1.6l-111.1,64.5
			l-181.7,4.9v112.5c-0.4,8.2,3.6,16.5,11.9,20.9L786.6,1581c22.5,11.9,49.5,11.4,71.5-1.4l283.3-164.5
			C1149.9,1410.3,1154,1401.6,1153.8,1393.1z"/>
		<path class="st3" d="M783.6,1113.1l-281.6,163.5c-15.3,8.9-14.9,31.1,0.7,39.3l283.7,150.6c22.5,11.9,49.5,11.4,71.5-1.4
			l283.3-164.5c16.9-9.8,16.4-34.4-0.8-43.5l-274.3-145.6C840.3,1097.7,809.1,1098.3,783.6,1113.1z"/>
	</g>
	<path class="st8" d="M1272.2,1156l-105-180.8c-2.7-4.6-6.6-8.4-11.3-10.9L856.2,804.9c-23.3-12.4-51.4-12-74.4,1.2L544.6,942.3
		c-19.5,11.2-19.1,39.5,0.8,50.1l292.4,155.5c4.7,2.5,8.7,6.3,11.4,11L948,1330c5.7,9.8,5,22.1-1.7,31.2l-124,169.4
		c-2.4,3.2-5.4,5.9-8.8,7.9l-268.8,154.3c-19.5,11.2-19.1,39.5,0.8,50.1l262,139.3c23.4,12.4,51.6,12,74.5-1.3l275.9-159.3
		c3.4-2,6.4-4.6,8.7-7.8l132.5-179.2c2.3-3.2,5.3-5.8,8.7-7.8L1576,1372c19.5-11.2,19-39.5-0.9-50.1l-291.6-155.1
		C1278.8,1164.4,1274.9,1160.6,1272.2,1156z"/>
	<path class="st9" d="M1590.3,805h-186.7v32.3l-120.1-63.9c-4.7-2.5-8.6-6.3-11.3-10.9l-105-180.8c-2.7-4.6-6.6-8.4-11.3-10.9
		L856.2,411.4c-23.3-12.4-51.4-12-74.4,1.2L717,449.9v-26.3H530.3v147.2l0,0c0,11,4.1,22.3,15.2,28.2l292.4,155.5
		c4.7,2.5,8.7,6.3,11.4,11L948,936.5c5.7,9.8,5,22.1-1.7,31.2l-124,169.4c-2.4,3.2-5.4,5.9-8.8,7.9l-96.5,55.4v-25.1H530.3v146.2
		l0,0c0,10.7,4.2,22.1,15.2,27.9l262,139.3c23.4,12.4,51.6,12,74.5-1.3l275.9-159.3c3.4-2,6.4-4.6,8.7-7.8l132.5-179.2
		c2.3-3.2,5.3-5.8,8.7-7.8L1576,978.5c10.4-6,14.3-16.7,14.3-27.3l0,0V805z"/>
	<path class="st10" d="M1272.2,611.4l-105-180.8c-2.7-4.6-6.6-8.4-11.3-10.9L856.2,260.4c-23.3-12.4-51.4-12-74.4,1.2L544.6,397.7
		c-19.5,11.2-19.1,39.5,0.8,50.1l292.4,155.5c4.7,2.5,8.7,6.3,11.4,11L948,785.4c5.7,9.8,5,22.1-1.7,31.2L822.3,986
		c-2.4,3.2-5.4,5.9-8.8,7.9l-268.8,154.3c-19.5,11.2-19.1,39.5,0.8,50.1l262,139.3c23.4,12.4,51.6,12,74.5-1.3l275.9-159.3
		c3.4-2,6.4-4.6,8.7-7.8L1299.1,990c2.3-3.2,5.3-5.8,8.7-7.8L1576,827.5c19.5-11.2,19-39.5-0.9-50.1l-291.6-155.1
		C1278.8,619.8,1274.9,616.1,1272.2,611.4z"/>
	<g>
		<path class="st11" d="M1067.1,404.6L1067.1,404.6l0-85.2L933.7,323l-81.4-43.2c-19.4-10.3-42.8-9.9-61.8,1.2l-83,48.2l-135.8,3.7
			v84.1c-0.3,6.1,2.7,12.3,8.9,15.6l212.1,112.6c16.8,8.9,37,8.5,53.5-1l211.7-122.9C1064.2,417.4,1067.3,411,1067.1,404.6z"/>
		<path class="st12" d="M790.5,195.3L580,317.5c-11.4,6.6-11.1,23.2,0.6,29.4l212.1,112.6c16.8,8.9,37,8.5,53.5-1l211.7-122.9
			c12.6-7.3,12.3-25.7-0.6-32.5l-205-108.8C832.8,183.8,809.5,184.3,790.5,195.3z"/>
	</g>
	<g class="st1">
		<linearGradient id="SVGID_5_" gradientUnits="userSpaceOnUse" x1="571.658" y1="1160.546" x2="1067.1311" y2="1160.546">
			<stop  offset="0" style="stop-color:#424242"/>
			<stop  offset="3.158564e-02" style="stop-color:#000000"/>
			<stop  offset="0.394" style="stop-color:#1A1919"/>
			<stop  offset="0.6218" style="stop-color:#D1CFCF"/>
			<stop  offset="0.9715" style="stop-color:#FFFFFF"/>
			<stop  offset="0.9955" style="stop-color:#BDBDBD"/>
		</linearGradient>
		<path class="st13" d="M1067.1,1153.2L1067.1,1153.2l0-85.2l-133.5,3.6l-81.4-43.2c-19.4-10.3-42.8-9.9-61.8,1.2l-83,48.2
			l-135.8,3.7v84.1c-0.3,6.1,2.7,12.3,8.9,15.6l212.1,112.6c16.8,8.9,37,8.5,53.5-1l211.7-122.9
			C1064.2,1166.1,1067.3,1159.6,1067.1,1153.2z"/>
		<path class="st3" d="M1057.9,1124.2l-211.7,122.9c-16.5,9.6-36.7,9.9-53.5,1l-212.1-112.6c-5.3-2.8-8.2-7.7-8.8-12.9
			c-0.8,6.5,2.2,13.4,8.8,16.9l212.1,112.6c16.8,8.9,37,8.5,53.5-1l211.7-122.9c6.8-4,9.9-11.2,9.2-18.1
			C1066.4,1115.7,1063.4,1121,1057.9,1124.2z"/>
		<path class="st3" d="M790.5,943.9L580,1066.1c-11.4,6.6-11.1,23.2,0.6,29.4l212.1,112.6c16.8,8.9,37,8.5,53.5-1l211.7-122.9
			c12.6-7.3,12.3-25.7-0.6-32.5l-205-108.8C832.8,932.5,809.5,932.9,790.5,943.9z"/>
	</g>
	<g>
		<g>
			<g>
				<path class="st14" d="M729.5,362.3c1,0.6,1,1.1,0,1.7l-6.2,3.6c-1,0.6-1.9,0.6-2.9,0l-14.2-8.2l2,3.9c0.5,0.8,0.2,1.4-0.8,2
					l-1.6,0.9c-1,0.6-2,0.7-3.4,0.5l-6.8-1.2l14.2,8.2c1,0.6,1,1.1,0,1.7l-6,3.5c-1,0.6-1.9,0.6-2.9,0l-26.2-15.1
					c-1-0.6-1-1.1,0-1.7l6.5-3.8c0.8-0.5,1.7-0.6,3.1-0.4l10.2,1.7c0.8,0.1,1.1,0.2,1.4,0l0.4-0.2c0.3-0.2,0.2-0.4,0-0.8l-3-5.9
					c-0.4-0.8-0.2-1.3,0.6-1.8l6.5-3.8c1-0.6,1.9-0.6,2.9,0L729.5,362.3z"/>
			</g>
			<g>
				<path class="st14" d="M771.4,330.8c-1.2-0.7-2.1-0.8-3.3-0.1l-5.6,3.3l7.9,4.6c1,0.6,1,1.1,0,1.7l-6.2,3.6c-1,0.6-1.9,0.6-2.9,0
					l-26.2-15.1c-1-0.6-1-1.1,0-1.7l13.4-7.8c6-3.5,10.7-3,14.7-0.7l1.9,1.1c2.3,1.3,3.3,2.6,2.4,4c3.3-1.5,7.3-1.4,10.7,0.6
					l8.6,4.9c1,0.6,1,1.1,0,1.7l-6.2,3.6c-1,0.6-1.9,0.6-2.9,0L771.4,330.8z M755.2,329.8l3-1.8c1.4-0.8,1-1.5-0.1-2.1l-1.4-0.8
					c-1.1-0.6-2.3-0.9-3.7-0.1l-3,1.8L755.2,329.8"/>
			</g>
			<g>
				<path class="st14" d="M756.6,346.6c1,0.6,1,1.1,0,1.7L738,359.1c-1,0.6-1.9,0.6-2.9,0l-26.2-15.1c-1-0.6-1-1.1,0-1.7l18.6-10.8
					c1-0.6,1.9-0.6,2.9,0l4.7,2.7c1,0.6,1,1.1,0,1.7l-11.1,6.4l3.1,1.8l7.8-4.6c1-0.6,1.9-0.6,2.9,0l4.3,2.5c1,0.6,1,1.1,0,1.7
					l-7.8,4.6l3.5,2l11.1-6.4c1-0.6,1.9-0.6,2.9,0L756.6,346.6z"/>
			</g>
			<g>
				<path class="st14" d="M811.8,314.4c1,0.6,1,1.1,0,1.7l-9.8,5.7c-6.7,3.9-12.5,4.2-18.1,1l-12.6-7.3c-5.7-3.3-5.2-6.6,1.6-10.5
					l9.8-5.7c1-0.6,1.9-0.6,2.9,0l4.9,2.8c1,0.6,1,1.1,0,1.7l-8.1,4.7c-1.7,1-1.8,1.8-0.4,2.6l9.6,5.6c1.3,0.8,2.7,0.7,4.4-0.3
					l8.1-4.7c1-0.6,1.9-0.6,2.9,0L811.8,314.4z"/>
			</g>
			<g>
				<path class="st14" d="M885.8,327.6c1,0.6,1,1.1,0,1.7l-6,3.5c-1,0.6-1.9,0.6-2.9,0l-5-2.9l-15.2-0.8l13.3,7.7c1,0.6,1,1.1,0,1.7
					l-6,3.5c-1,0.6-1.9,0.6-2.9,0l-26.2-15.1c-1-0.6-1-1.1,0-1.7l4.2-2.4c1-0.6,2-0.8,3.5-0.7l16.8,0.7l-8.6-5c-1-0.6-1-1.1,0-1.7
					l6-3.5c1-0.6,1.9-0.6,2.9,0L885.8,327.6z"/>
			</g>
			<g>
				<path class="st14" d="M942.9,294.5c1,0.6,1,1.1,0,1.7L924.2,307c-1,0.6-1.9,0.6-2.9,0l-26.2-15.1c-1-0.6-1-1.1,0-1.7l18.6-10.8
					c1-0.6,1.9-0.6,2.9,0l4.7,2.7c1,0.6,1,1.1,0,1.7l-11.1,6.4l3.1,1.8l7.8-4.6c1-0.6,1.9-0.6,2.9,0l4.3,2.5c1,0.6,1,1.1,0,1.7
					l-7.8,4.6l3.5,2l11.1-6.4c1-0.6,1.9-0.6,2.9,0L942.9,294.5z"/>
			</g>
			<g>
				<path class="st14" d="M909.8,306.5c4.9,2.8,5.8,6.2-4.2,12c-10,5.8-15.7,5.3-20.6,2.5l-20-11.6c-1-0.6-1-1.1,0-1.7l6.3-3.7
					c1-0.6,1.9-0.6,2.9,0l18.4,10.6c1.1,0.6,2.4,0.8,5.2-0.8c2.8-1.7,2.5-2.4,1.4-3l-18.4-10.6c-1-0.6-1-1.1,0-1.7l6.1-3.5
					c1-0.6,1.9-0.6,2.9,0L909.8,306.5z"/>
			</g>
			<g>
				<path class="st14" d="M862.1,285.2l-5.7-3.3l-7.1,4.1l5.7,3.3c1,0.6,1,1.1,0,1.7l-5.9,3.4c-1,0.6-1.9,0.6-2.9,0l-10.7-6.2
					c-1.6-0.9-3.2-2.4-4.9-4.6l-5.7-7.3c-0.6-0.7-0.4-1.3,0.7-2l10.8-6.3c1-0.6,2.1-0.7,3.3-0.4l12.7,3.3c3.9,1,6.4,1.9,8,2.8
					l10.7,6.2c1,0.6,1,1.1,0,1.7l-6.1,3.5C864.1,285.8,863.2,285.8,862.1,285.2z M842.4,281.6l6.3-3.7l-8-2.4
					c-0.7-0.2-1.1-0.1-1.5,0l-1,0.6c-0.3,0.2-0.4,0.4-0.1,0.8L842.4,281.6"/>
			</g>
			<g>
				<path class="st14" d="M841.3,297.3c1,0.6,1,1.1,0,1.7l-6.2,3.6c-1,0.6-1.9,0.6-2.9,0l-9-5.2l-6.7,3.9l9,5.2c1,0.6,1,1.1,0,1.7
					l-6.2,3.6c-1,0.6-1.9,0.6-2.9,0l-26.2-15.1c-1-0.6-1-1.1,0-1.7l6.2-3.6c1-0.6,1.9-0.6,2.9,0l8.8,5.1l6.7-3.9l-8.8-5.1
					c-1-0.6-1-1.1,0-1.7l6.2-3.6c1-0.6,1.9-0.6,2.9,0L841.3,297.3z"/>
			</g>
			<g>
				<path class="st14" d="M907.5,234.2c1,0.6,1,1.1,0,1.7l-5.9,3.4l19.8,11.5c1,0.6,1,1.1,0,1.7l-6.5,3.8c-1,0.6-1.9,0.6-2.9,0
					l-19.8-11.5l-5.9,3.4c-1,0.6-1.9,0.6-2.9,0l-4.9-2.8c-1-0.6-1-1.1,0-1.7l21.2-12.3c1-0.6,1.9-0.6,2.9,0L907.5,234.2z"/>
			</g>
			<g>
				<path class="st14" d="M900.9,262.7c1,0.6,1,1.1,0,1.7l-6,3.5c-1,0.6-1.9,0.6-2.9,0l-5-2.9l-15.2-0.8l13.3,7.7c1,0.6,1,1.1,0,1.7
					l-6,3.5c-1,0.6-1.9,0.6-2.9,0L850,261.9c-1-0.6-1-1.1,0-1.7l4.2-2.4c1-0.6,2-0.8,3.5-0.7l16.8,0.7l-8.6-5c-1-0.6-1-1.1,0-1.7
					l6-3.5c1-0.6,1.9-0.6,2.9,0L900.9,262.7z"/>
			</g>
			<g>
				<path class="st14" d="M800.8,377c1,0.6,1,1.1,0,1.7l-18.6,10.8c-1,0.6-1.9,0.6-2.9,0l-26.2-15.1c-1-0.6-1-1.1,0-1.7l18.6-10.8
					c1-0.6,1.9-0.6,2.9,0l4.7,2.7c1,0.6,1,1.1,0,1.7l-11.1,6.4l3.1,1.8l7.8-4.6c1-0.6,1.9-0.6,2.9,0l4.3,2.5c1,0.6,1,1.1,0,1.7
					l-7.8,4.6l3.5,2l11.1-6.4c1-0.6,1.9-0.6,2.9,0L800.8,377z"/>
			</g>
			<g>
				<path class="st14" d="M759.5,393.9c-1.2-0.7-2.1-0.8-3.3-0.1l-5.6,3.3l7.9,4.6c1,0.6,1,1.1,0,1.7l-6.2,3.6c-1,0.6-1.9,0.6-2.9,0
					l-26.2-15.1c-1-0.6-1-1.1,0-1.7l13.4-7.8c6-3.5,10.7-3,14.7-0.7l1.9,1.1c2.3,1.3,3.3,2.6,2.4,4c3.3-1.5,7.3-1.4,10.7,0.6
					l8.6,4.9c1,0.6,1,1.1,0,1.7l-6.2,3.6c-1,0.6-1.9,0.6-2.9,0L759.5,393.9z M743.3,392.8l3-1.8c1.4-0.8,1-1.5-0.1-2.1l-1.4-0.8
					c-1.1-0.6-2.3-0.9-3.7-0.1l-3,1.8L743.3,392.8"/>
			</g>
			<g>
				<path class="st14" d="M814.4,351.2c2.5,1.5,3,2.1,4.5,4.1l6,8c0.6,0.8,0.3,1.4-0.7,2l-10.4,6.1c-1,0.6-2,0.8-3.4,0.4l-13.8-3.4
					c-3.4-0.8-4.5-1.1-7-2.6l-10.7-6.2c-1-0.6-1-1.1,0-1.7l6.4-3.7c1-0.6,2-0.7,3-0.1l11.2,6.4c0.6,0.3,1.2,0.5,2,0.8l7.5,2.2
					c0.7,0.2,1,0.2,1.5,0l0.4-0.3c0.4-0.3,0.4-0.4,0.1-0.8l-3.8-4.4c-0.4-0.5-0.8-0.8-1.3-1.1l-11.1-6.4c-1-0.6-1-1.1,0-1.7l6.3-3.7
					c1-0.6,1.9-0.6,2.9,0L814.4,351.2z"/>
			</g>
			<g>
				<path class="st14" d="M856.4,344.7c1,0.6,1,1.1,0,1.7l-18.6,10.8c-1,0.6-1.9,0.6-2.9,0l-26.2-15.1c-1-0.6-1-1.1,0-1.7l18.6-10.8
					c1-0.6,1.9-0.6,2.9,0l4.7,2.7c1,0.6,1,1.1,0,1.7l-11.1,6.4l3.1,1.8l7.8-4.5c1-0.6,1.9-0.6,2.9,0l4.3,2.5c1,0.6,1,1.1,0,1.7
					l-7.8,4.5l3.5,2l11.1-6.4c1-0.6,1.9-0.6,2.9,0L856.4,344.7z"/>
			</g>
		</g>
	</g>
	<path class="st15" d="M977.1,422.7L977.1,422.7c-6.6-6-16.8-5.8-23.2,0.6c-6.4,6.4-6.5,16.6-0.6,23.1l0,0l336,336l23.8-23.8
		L977.1,422.7z"/>
	<g>
		<path class="st11" d="M1550.9,788.4L1550.9,788.4l0-85.2l-133.5,3.6l-81.4-43.2c-19.4-10.3-42.8-9.9-61.8,1.2l-83,48.2l-135.8,3.7
			v84.1c-0.3,6.1,2.7,12.3,8.9,15.6l212.1,112.6c16.8,8.9,37,8.5,53.5-1L1541.6,805C1548,801.3,1551.1,794.8,1550.9,788.4z"/>
		<path class="st16" d="M1274.2,579.2l-210.4,122.2c-11.4,6.6-11.1,23.2,0.6,29.4l212.1,112.6c16.8,8.9,37,8.5,53.5-1l211.7-122.9
			c12.6-7.3,12.3-25.7-0.6-32.5L1336,578C1316.6,567.7,1293.2,568.1,1274.2,579.2z"/>
	</g>
	<g>
		<path class="st17" d="M1396.7,556.2l-181.8,5.3v73.4c-0.2,5.3,2.4,10.8,7.8,13.6l57.7,31.1c14.7,7.8,32.3,7.5,46.7-0.9l61.5-36.1
			c6.1-3.6,8.4-7.5,8.4-13.8L1396.7,556.2z"/>
		<path class="st18" d="M1282.6,511.1l-60.4,35.4c-10,5.8-9.7,20.3,0.5,25.7l57.7,31.1c14.7,7.8,32.3,7.5,46.7-0.9l61.5-36.1
			c11-6.4,10.7-22.4-0.5-28.4l-51.6-27.8C1319.5,501.1,1299.1,501.5,1282.6,511.1z"/>
	</g>
	<path class="st15" d="M1167.9,822.3L1167.9,822.3c6.6-6,16.8-5.8,23.2,0.6c6.4,6.4,6.5,16.6,0.6,23.1l0,0l-336,336l-23.8-23.8
		L1167.9,822.3z"/>
	<g>
		<path class="st19" d="M1518.8,621.9l-181.8,5.3v73.4c-0.2,5.3,2.4,10.8,7.8,13.6l57.7,31.1c14.7,7.8,32.3,7.5,46.7-0.9l61.5-36.1
			c6.1-3.6,8.4-7.5,8.4-13.8L1518.8,621.9z"/>
		<path class="st20" d="M1404.6,576.8l-60.4,35.4c-10,5.8-9.7,20.3,0.5,25.7l57.7,31.1c14.7,7.8,32.3,7.5,46.7-0.9l61.5-36.1
			c11-6.4,10.7-22.4-0.5-28.4l-51.6-27.8C1441.6,566.8,1421.2,567.2,1404.6,576.8z"/>
	</g>
	<g>
		<path class="st12" d="M1271.4,627.2l-181.8,5.3v73.4c-0.2,5.3,2.4,10.8,7.8,13.6l57.7,31.1c14.7,7.8,32.3,7.5,46.7-0.9l61.5-36.1
			c6.1-3.6,8.4-7.5,8.4-13.8L1271.4,627.2z"/>
		<path class="st21" d="M1157.2,582.1l-60.4,35.4c-10,5.8-9.7,20.3,0.5,25.7l57.7,31.1c14.7,7.8,32.3,7.5,46.7-0.9l61.5-36.1
			c11-6.4,10.7-22.4-0.5-28.4l-51.6-27.8C1194.2,572.1,1173.8,572.5,1157.2,582.1z"/>
	</g>
	<g>
		<path class="st22" d="M1393.4,692.9l-181.8,5.3v73.4c-0.2,5.3,2.4,10.8,7.8,13.6l57.7,31.1c14.7,7.8,32.3,7.5,46.7-0.9l61.5-36.1
			c6.1-3.6,8.4-7.5,8.4-13.8L1393.4,692.9z"/>
		<path class="st23" d="M1279.3,647.8l-60.4,35.4c-10,5.8-9.7,20.3,0.5,25.7l57.7,31.1c14.7,7.8,32.3,7.5,46.7-0.9l61.5-36.1
			c11-6.4,10.7-22.4-0.5-28.4l-51.6-27.8C1316.3,637.8,1295.9,638.2,1279.3,647.8z"/>
	</g>
	<g>
		<g>
			<g>
				<path class="st24" d="M1328.8,871.3c7.4-4.2,9.5-1.8,9.6,3.6l0,5.9c0,5.4-2.2,10.3-9.5,14.6l-4.6,2.7l0,7.7
					c0,1.2-0.4,1.9-1.5,2.5l-6.3,3.6c-1,0.6-1.5,0.3-1.5-0.8L1315,881c0-1.2,0.4-1.9,1.5-2.5L1328.8,871.3z M1329.7,884.3l0-2.5
					c0-1.2-0.3-2.1-1.9-1.2l-3.6,2.1l0,7l3.6-2.1C1329.3,886.7,1329.7,885.5,1329.7,884.3"/>
			</g>
			<g>
				<path class="st24" d="M1363.2,866.7c3-1.3,4.9,0,4.9,3.9l0,9.8c0,1.2-0.4,1.9-1.5,2.5l-6.3,3.6c-1,0.6-1.5,0.3-1.5-0.8l0-7.1
					c0-1.4-0.4-1.8-1.5-1.1l-5.7,3.3l0,9.1c0,1.2-0.4,1.9-1.5,2.5l-6.2,3.6c-1,0.6-1.5,0.3-1.5-0.8l-0.1-30.1c0-1.2,0.4-1.9,1.5-2.5
					l13.5-7.8c6.1-3.5,8-1.4,8,3.2l0,2.1C1365.5,862.7,1364.9,864.8,1363.2,866.7z M1356.5,867.4l0-1.6c0-1.3-0.4-2-1.8-1.2l-3,1.8
					l0,5.9l3-1.8C1356.2,869.8,1356.5,868.7,1356.5,867.4"/>
			</g>
			<g>
				<path class="st24" d="M1384.7,838.3c10.1-5.8,12.5-3.4,12.6,2.3l0,15.8c0,5.7-2.4,10.9-12.5,16.7c-10.1,5.8-12.6,3.5-12.6-2.2
					l0-15.8C1372.2,849.5,1374.6,844.2,1384.7,838.3z M1388.2,860.1l0-12.5c0-1.2-0.5-1.9-3.4-0.2c-2.9,1.7-3.4,2.9-3.4,4.1l0,12.5
					c0,1.3,0.5,1.9,3.4,0.2C1387.7,862.5,1388.2,861.3,1388.2,860.1"/>
			</g>
			<g>
				<path class="st24" d="M1417.5,820.1c6.8-3.9,9.9-2.7,10,3.7l0,14.5c0,6.5-3.1,11.3-9.9,15.2l-13.6,7.9c-1,0.6-1.5,0.3-1.5-0.8
					l-0.1-30.1c0-1.2,0.4-1.9,1.5-2.5L1417.5,820.1z M1418.3,842.1l0-11.3c0-1.5-0.6-1.9-1.9-1.1l-4.8,2.8l0,15.8l4.8-2.8
					C1417.7,844.7,1418.3,843.6,1418.3,842.1"/>
			</g>
			<g>
				<path class="st24" d="M1455.9,798c1-0.6,1.5-0.3,1.5,0.8l0.1,23c0,5.7-2.4,10.9-12.5,16.7c-10,5.8-12.5,3.4-12.5-2.3l-0.1-23
					c0-1.2,0.4-1.9,1.5-2.5l6.3-3.7c1-0.6,1.5-0.3,1.5,0.8l0.1,21.2c0,1.3,0.5,1.9,3.3,0.3c2.9-1.7,3.3-2.9,3.3-4.1l-0.1-21.2
					c0-1.2,0.4-1.9,1.5-2.5L1455.9,798z"/>
			</g>
			<g>
				<path class="st24" d="M1482,782.8c1-0.6,1.5-0.3,1.5,0.8l0,5.6c0,1.2-0.4,1.9-1.5,2.5l-8.1,4.7c-1.7,1-2.5,2.2-2.5,3.7l0,11
					c0,1.5,0.8,1.8,2.5,0.8l8.1-4.7c1-0.6,1.5-0.3,1.5,0.8l0,5.5c0,1.2-0.4,1.9-1.5,2.5l-9.9,5.7c-6.8,3.9-9.9,2.7-10-3.7l0-14.4
					c0-6.5,3.1-11.3,9.9-15.3L1482,782.8z"/>
			</g>
			<g>
				<path class="st24" d="M1509.2,767.2c1-0.6,1.5-0.3,1.5,0.8l0,5.6c0,1.2-0.4,1.9-1.5,2.5l-5.9,3.4l0.1,22.8
					c0,1.2-0.4,1.9-1.5,2.5l-6.5,3.8c-1,0.6-1.5,0.3-1.5-0.8l-0.1-22.8l-5.9,3.4c-1,0.6-1.5,0.3-1.5-0.8l0-5.6
					c0-1.2,0.4-1.9,1.5-2.5L1509.2,767.2z"/>
			</g>
			<g>
				<path class="st24" d="M1533.5,753.1c1-0.6,1.5-0.3,1.5,0.8l0,5.5c0,1.2-0.4,1.9-1.5,2.5l-9.4,5.4c-0.7,0.4-1.1,1.2-1.1,2
					c0,0.8,0.4,1.2,1.1,0.9l6-2.5c3.8-1.5,6.3-1.1,6.3,4.1l0,4.9c0,5.3-3.1,10-8.3,13l-12.8,7.4c-1,0.6-1.5,0.3-1.5-0.8l0-5.4
					c0-1.2,0.4-1.9,1.5-2.5l10.9-6.3c0.7-0.4,1-1.2,1-2c0-1.1-0.4-1.3-1.1-1l-6.1,2.5c-3.8,1.5-6.3,1.1-6.3-4.1l0-4.9
					c0-5.3,3.1-10,8.3-13L1533.5,753.1z"/>
			</g>
		</g>
	</g>
	<g>
		<g>
			<g>
				<path class="st25" d="M1306.7,1043.8c1-0.6,1.5-0.3,1.5,0.8l0,5.6c0,1.2-0.4,1.9-1.5,2.5l-5.9,3.4l0.1,22.8
					c0,1.2-0.4,1.9-1.5,2.5l-6.5,3.8c-1,0.6-1.5,0.3-1.5-0.8l-0.1-22.8l-5.9,3.4c-1,0.6-1.5,0.3-1.5-0.8l0-5.6
					c0-1.2,0.4-1.9,1.4-2.5L1306.7,1043.8z"/>
			</g>
			<g>
				<path class="st25" d="M1324.2,1033c10.1-5.8,12.5-3.4,12.6,2.3l0,15.8c0,5.7-2.4,10.9-12.5,16.7s-12.6,3.5-12.6-2.2l0-15.8
					C1311.7,1044.1,1314.1,1038.8,1324.2,1033z M1327.7,1054.7l0-12.5c0-1.2-0.5-1.9-3.4-0.2c-2.9,1.7-3.4,2.9-3.4,4.1l0,12.5
					c0,1.3,0.5,1.9,3.4,0.2C1327.3,1057.2,1327.7,1056,1327.7,1054.7"/>
			</g>
			<g>
				<path class="st25" d="M1365.1,1010.1c0.9-0.5,1.3-0.2,0.9,1l-4.1,13.2c3-1.6,5-0.3,5,3.4l0,13.1c0,1.2-0.4,1.9-1.4,2.5l-6.2,3.6
					c-1,0.6-1.5,0.3-1.5-0.8l0-9.1c0-1-0.5-1.3-1.3-0.8l-5.3,3.1l0,10.6c0,1.2-0.4,1.9-1.5,2.5l-6.3,3.6c-1,0.6-1.5,0.3-1.5-0.8
					l-0.1-30.1c0-1.2,0.4-1.9,1.5-2.5l6.3-3.6c1-0.6,1.5-0.3,1.5,0.8l0,10.7l1.6-0.9l4.1-13.2c0.4-1.3,1-2.1,2-2.7L1365.1,1010.1z"
					/>
			</g>
			<g>
				<path class="st25" d="M1392.3,994.4c1-0.6,1.5-0.3,1.5,0.8l0,5.4c0,1.2-0.4,1.9-1.5,2.5l-11.2,6.4l0,3.6l7.9-4.6
					c1-0.6,1.5-0.3,1.5,0.8l0,5c0,1.2-0.4,1.9-1.4,2.5l-7.9,4.6l0,4l11.2-6.4c1-0.6,1.5-0.3,1.5,0.8l0,5.4c0,1.2-0.4,1.9-1.5,2.5
					l-18.8,10.8c-1,0.6-1.5,0.3-1.5-0.8l-0.1-30.1c0-1.2,0.4-1.9,1.5-2.5L1392.3,994.4z"/>
			</g>
			<g>
				<path class="st25" d="M1421.9,977.3c1-0.6,1.5-0.3,1.5,0.8l0.1,30.1c0,1.2-0.4,1.9-1.5,2.5l-6.1,3.5c-1,0.6-1.5,0.3-1.5-0.8
					l0-5.7l-6.9-5.6l0,15.3c0,1.2-0.4,1.9-1.4,2.5l-6.1,3.5c-1,0.6-1.5,0.3-1.5-0.8l-0.1-30.1c0-1.2,0.4-1.9,1.5-2.5l4.2-2.4
					c1.1-0.6,1.7-0.7,2.4-0.1l7.9,5.8l0-9.9c0-1.2,0.4-1.9,1.5-2.5L1421.9,977.3z"/>
			</g>
			<g>
				<path class="st25" d="M1441,965.6c10.1-5.8,12.5-3.4,12.6,2.3l0,15.8c0,5.7-2.4,10.9-12.5,16.7c-10.1,5.8-12.6,3.5-12.6-2.2
					l0-15.8C1428.5,976.7,1430.9,971.4,1441,965.6z M1444.5,987.3l0-12.5c0-1.2-0.5-1.9-3.4-0.2c-2.9,1.7-3.4,2.9-3.4,4.1l0,12.5
					c0,1.3,0.5,1.9,3.4,0.2C1444.1,989.7,1444.5,988.5,1444.5,987.3"/>
			</g>
			<g>
				<path class="st25" d="M1486,940.3c1-0.6,1.5-0.3,1.5,0.8l0.1,30.1c0,1.2-0.4,1.9-1.5,2.5l-6.2,3.6c-1.1,0.6-1.5,0.3-1.5-0.8
					l0-16.3l-2.4,6.4c-0.5,1.3-1.1,2.1-2.1,2.7l-1.6,0.9c-1.1,0.6-1.7,0.5-2.1-0.2l-2.4-3.7l0,16.3c0,1.2-0.4,1.9-1.5,2.5l-6,3.5
					c-1,0.6-1.5,0.3-1.5-0.8l-0.1-30.1c0-1.2,0.4-1.9,1.4-2.5l6.5-3.8c0.8-0.5,1.4-0.4,1.9,0.3l3.7,5.5c0.3,0.4,0.4,0.6,0.7,0.4
					l0.4-0.2c0.3-0.2,0.4-0.5,0.7-1.2l3.6-9.6c0.5-1.3,1-2,1.9-2.5L1486,940.3z"/>
			</g>
			<g>
				<path class="st25" d="M1511,925.8c1-0.6,1.5-0.3,1.5,0.8l0,5.6c0,1.2-0.4,1.9-1.5,2.5l-3.9,2.3l0,15.6l3.9-2.3
					c1-0.6,1.5-0.3,1.5,0.8l0,5.5c0,1.2-0.4,1.9-1.5,2.5l-17.2,9.9c-1,0.6-1.5,0.3-1.5-0.8l0-5.5c0-1.2,0.4-1.9,1.5-2.5l4-2.3
					l0-15.6l-4,2.3c-1,0.6-1.5,0.3-1.5-0.8l0-5.6c0-1.2,0.4-1.9,1.5-2.5L1511,925.8z"/>
			</g>
			<g>
				<path class="st25" d="M1536.8,911c1-0.6,1.5-0.3,1.5,0.8l0,5.6c0,1.2-0.4,1.9-1.4,2.5l-8.1,4.7c-1.7,1-2.5,2.2-2.5,3.7l0,11.1
					c0,1.5,0.8,1.8,2.5,0.8l8.1-4.7c1-0.6,1.5-0.3,1.5,0.8l0,5.5c0,1.2-0.4,1.9-1.4,2.5l-9.9,5.7c-6.8,3.9-9.9,2.7-10-3.7l0-14.4
					c0-6.5,3.1-11.3,9.9-15.3L1536.8,911z"/>
			</g>
			<g>
				<path class="st25" d="M1561.8,896.5c1-0.6,1.5-0.3,1.5,0.8l0,5.5c0,1.2-0.4,1.9-1.5,2.5l-9.4,5.4c-0.7,0.4-1.1,1.2-1.1,2
					c0,0.8,0.4,1.2,1.1,0.9l6-2.5c3.8-1.5,6.3-1.1,6.3,4.1l0,4.9c0,5.3-3.1,10-8.3,13l-12.8,7.4c-1,0.6-1.5,0.3-1.5-0.8l0-5.4
					c0-1.2,0.4-1.9,1.5-2.5l10.9-6.3c0.7-0.4,1-1.2,1-1.9c0-1.1-0.4-1.3-1.1-1l-6.1,2.5c-3.8,1.5-6.3,1.1-6.3-4.1l0-4.9
					c0-5.3,3.1-10,8.3-13L1561.8,896.5z"/>
			</g>
		</g>
	</g>
	<g>
		<g>
			<g>
				<path class="st25" d="M897,1359.1c1-0.6,1.5-0.3,1.5,0.8l0,5.5c0,1.2-0.4,1.9-1.5,2.5l-10.3,5.9l0,4.8l7-4.1
					c1-0.6,1.5-0.3,1.5,0.8l0,5.6c0,1.2-0.4,1.9-1.5,2.5l-7,4.1l0,9.1c0,1.2-0.4,1.9-1.5,2.5l-6.3,3.6c-1,0.6-1.5,0.3-1.5-0.8
					l-0.1-30.1c0-1.2,0.4-1.9,1.5-2.5L897,1359.1z"/>
			</g>
			<g>
				<path class="st25" d="M922.7,1344.2c1-0.6,1.5-0.3,1.5,0.8l0,5.4c0,1.2-0.4,1.9-1.5,2.5l-11.2,6.4l0,3.6l7.9-4.6
					c1-0.6,1.5-0.3,1.5,0.8l0,5c0,1.2-0.4,1.9-1.4,2.5l-7.9,4.6l0,4l11.2-6.4c1-0.6,1.5-0.3,1.5,0.8l0,5.4c0,1.2-0.4,1.9-1.5,2.5
					l-18.8,10.8c-1,0.6-1.5,0.3-1.5-0.8l-0.1-30.1c0-1.2,0.4-1.9,1.5-2.5L922.7,1344.2z"/>
			</g>
			<g>
				<path class="st25" d="M949.2,1329c1-0.6,1.5-0.3,1.5,0.8l0,5.4c0,1.2-0.4,1.9-1.4,2.5l-11.2,6.4l0,3.6l7.9-4.6
					c1-0.6,1.5-0.3,1.5,0.8l0,5c0,1.2-0.4,1.9-1.5,2.5l-7.9,4.6l0,4l11.2-6.4c1-0.6,1.5-0.3,1.5,0.8l0,5.4c0,1.2-0.4,1.9-1.4,2.5
					l-18.8,10.8c-1,0.6-1.5,0.3-1.5-0.8l-0.1-30.1c0-1.2,0.4-1.9,1.5-2.5L949.2,1329z"/>
			</g>
			<g>
				<path class="st25" d="M895.7,1415.7c1-0.6,1.5-0.3,1.5,0.8l0,5.6c0,1.2-0.4,1.9-1.5,2.5l-3.9,2.3l0,15.6l3.9-2.3
					c1-0.6,1.5-0.3,1.5,0.8l0,5.5c0,1.2-0.4,1.9-1.5,2.5l-17.2,9.9c-1,0.6-1.5,0.3-1.5-0.8l0-5.5c0-1.2,0.4-1.9,1.5-2.5l4-2.3
					l0-15.6l-4,2.3c-1,0.6-1.5,0.3-1.5-0.8l0-5.6c0-1.2,0.4-1.9,1.5-2.5L895.7,1415.7z"/>
			</g>
			<g>
				<path class="st25" d="M925.5,1398.4c1-0.6,1.5-0.3,1.5,0.8l0.1,30.1c0,1.2-0.4,1.9-1.5,2.5l-6.1,3.5c-1,0.6-1.5,0.3-1.5-0.8
					l0-5.7l-6.9-5.6l0,15.3c0,1.2-0.4,1.9-1.5,2.5l-6.1,3.5c-1,0.6-1.5,0.3-1.5-0.8l-0.1-30.1c0-1.2,0.4-1.9,1.5-2.5l4.2-2.4
					c1.1-0.6,1.7-0.7,2.4-0.1l7.9,5.8l0-9.9c0-1.2,0.4-1.9,1.5-2.5L925.5,1398.4z"/>
			</g>
			<g>
				<path class="st25" d="M951.9,1383.2c1-0.6,1.5-0.3,1.5,0.8l0,5.6c0,1.2-0.4,1.9-1.5,2.5l-8.1,4.7c-1.7,1-2.5,2.2-2.5,3.7l0,11.1
					c0,1.5,0.8,1.8,2.5,0.8l8.1-4.7c1-0.6,1.5-0.3,1.5,0.8l0,5.5c0,1.2-0.4,1.9-1.5,2.5l-9.9,5.7c-6.8,3.9-9.9,2.7-10-3.7l0-14.4
					c0-6.5,3.1-11.3,9.9-15.3L951.9,1383.2z"/>
			</g>
			<g>
				<path class="st25" d="M978.2,1368.1c1-0.6,1.5-0.3,1.5,0.8l0,5.4c0,1.2-0.4,1.9-1.5,2.5l-11.2,6.4l0,3.6l7.9-4.6
					c1-0.6,1.5-0.3,1.5,0.8l0,5c0,1.2-0.4,1.9-1.5,2.5l-7.9,4.6l0,4l11.2-6.4c1-0.6,1.5-0.3,1.5,0.8l0,5.4c0,1.2-0.4,1.9-1.5,2.5
					l-18.8,10.8c-1,0.6-1.5,0.3-1.5-0.8l-0.1-30.1c0-1.2,0.4-1.9,1.5-2.5L978.2,1368.1z"/>
			</g>
			<g>
				<path class="st25" d="M1007.8,1350.9c1-0.6,1.5-0.3,1.5,0.8l0.1,30.1c0,1.2-0.4,1.9-1.5,2.5l-6.1,3.5c-1,0.6-1.5,0.3-1.5-0.8
					l0-5.7l-6.9-5.6l0,15.3c0,1.2-0.4,1.9-1.5,2.5l-6.1,3.5c-1,0.6-1.5,0.3-1.5-0.8l-0.1-30.1c0-1.2,0.4-1.9,1.5-2.5l4.2-2.4
					c1-0.6,1.7-0.7,2.4-0.1l7.9,5.8l0-9.9c0-1.2,0.4-1.9,1.5-2.5L1007.8,1350.9z"/>
			</g>
			<g>
				<path class="st25" d="M1036,1334.7c1-0.6,1.5-0.3,1.5,0.8l0,5.6c0,1.2-0.4,1.9-1.5,2.5l-5.9,3.4l0.1,22.8c0,1.2-0.4,1.9-1.5,2.5
					l-6.5,3.8c-1,0.6-1.5,0.3-1.5-0.8l-0.1-22.8l-5.9,3.4c-1,0.6-1.5,0.3-1.5-0.8l0-5.6c0-1.2,0.4-1.9,1.4-2.5L1036,1334.7z"/>
			</g>
			<g>
				<path class="st25" d="M1059.4,1321.2c1-0.6,1.5-0.3,1.5,0.8l0,5.6c0,1.2-0.4,1.9-1.5,2.5l-3.9,2.3l0,15.6l3.9-2.3
					c1-0.6,1.5-0.3,1.5,0.8l0,5.5c0,1.2-0.4,1.9-1.5,2.5l-17.2,9.9c-1,0.6-1.5,0.3-1.5-0.8l0-5.5c0-1.2,0.4-1.9,1.4-2.5l4-2.3
					l0-15.6l-4,2.3c-1,0.6-1.5,0.3-1.5-0.8l0-5.6c0-1.2,0.4-1.9,1.4-2.5L1059.4,1321.2z"/>
			</g>
			<g>
				<path class="st25" d="M1088.9,1304.1c1-0.6,1.5-0.3,1.5,0.8l0,12.3c0,2.9-0.3,4-1.3,7.3l-3.9,13.7c-0.4,1.4-1,2.1-2.1,2.7
					l-10.5,6.1c-1.1,0.6-1.7,0.6-2.1-0.3l-4-9.1c-1-2.2-1.3-2.9-1.3-5.9l0-12.3c0-1.2,0.4-1.9,1.5-2.5l6.4-3.7
					c1-0.6,1.6-0.4,1.6,0.8l0,12.8c0,0.7,0.1,1.1,0.3,1.7l1.9,5.4c0.2,0.5,0.3,0.6,0.8,0.3l0.4-0.3c0.4-0.3,0.6-0.5,0.8-1.2l1.9-7.6
					c0.2-0.8,0.3-1.4,0.3-2.1l0-12.8c0-1.2,0.4-1.9,1.5-2.5L1088.9,1304.1z"/>
			</g>
			<g>
				<path class="st25" d="M1115.5,1288.8c1-0.6,1.5-0.3,1.5,0.8l0,5.4c0,1.2-0.4,1.9-1.5,2.5l-11.2,6.4l0,3.6l7.9-4.6
					c1-0.6,1.5-0.3,1.5,0.8l0,5c0,1.2-0.4,1.9-1.5,2.5l-7.9,4.6l0,4l11.2-6.4c1-0.6,1.5-0.3,1.5,0.8l0,5.4c0,1.2-0.4,1.9-1.5,2.5
					l-18.8,10.8c-1,0.6-1.5,0.3-1.5-0.8l-0.1-30.1c0-1.2,0.4-1.9,1.5-2.5L1115.5,1288.8z"/>
			</g>
			<g>
				<path class="st25" d="M1140.7,1274.2c1-0.6,1.5-0.3,1.5,0.8l0,5.5c0,1.2-0.4,1.9-1.5,2.5l-9.4,5.4c-0.7,0.4-1.1,1.2-1.1,2
					c0,0.8,0.4,1.2,1.1,0.9l6-2.6c3.8-1.5,6.3-1.1,6.3,4.1l0,4.9c0,5.3-3.1,10-8.3,13l-12.8,7.4c-1,0.6-1.5,0.3-1.5-0.8l0-5.4
					c0-1.2,0.4-1.9,1.5-2.5l10.9-6.3c0.7-0.4,1.1-1.2,1-2c0-1.1-0.4-1.3-1.1-1l-6.1,2.5c-3.8,1.5-6.3,1.1-6.3-4.1l0-4.9
					c0-5.3,3.1-10,8.3-13L1140.7,1274.2z"/>
			</g>
		</g>
	</g>
	<g>
		<g>
			<g>
				<path class="st25" d="M787.3,620.9l13.8,23.8l-23.8,13.6l-25.8-44.6l11.7-6.7c3.3-1.9,7.7-1.3,12.1,1.2
					C779.6,610.8,784,615.2,787.3,620.9z"/>
			</g>
			<g>
				<path class="st25" d="M715.4,571.7c2.8,1.6,5.6,4.5,7.6,7.9l47.9,81.3l-22.7,12.9c-1.7,1-3.9,0.7-6.1-0.6
					c-1.9-1.1-3.8-2.9-5.4-5.3l-25.5-42.7l-27,19.1c-2,1.3-4.6,1-7.3-0.5c-2.6-1.5-5.2-4.2-7.2-7.7l-27-49l-22.2,12.4
					c-2.7,1.5-6.2,1.2-10-1c-0.4-0.2-0.8-0.5-1.2-0.7c-3.4-2.3-6.6-5.9-9-10.1l-15.1-26.2l-4.7-8.1l4.7-2.7l44.1-24.9
					c2.1-1.2,4.8-0.9,7.7,0.8c0.4,0.2,0.8,0.5,1.3,0.8c2.5,1.8,4.8,4.5,6.5,7.5l26.2,45.4c1.4,2.4,3.2,4.2,4.9,5.2
					c1.8,1,3.6,1.3,5,0.5l26.6-15.2C709.7,569.7,712.5,570,715.4,571.7z M660.8,575.1l2.1,1.7L640,537.3c-0.8-1.4-1.9-2.5-3-3.2
					s-2.2-0.8-3-0.3l-44.1,24.9l15.3,26.5c1.5,2.5,3.4,4.5,5.3,5.6s3.8,1.4,5.3,0.5l33.8-19c2.3-1.3,5.4-1,8.5,0.9
					C659,573.8,659.9,574.4,660.8,575.1 M734.5,609.8l-16.1-27.4c-0.1-0.2-0.2-0.4-0.3-0.5c-0.2-0.3-0.3-0.4-0.3-0.5l-0.1-0.2
					c-0.1-0.1-0.2-0.2-0.2-0.3l-0.1-0.2c-0.1-0.1-0.2-0.2-0.2-0.3l-0.2-0.2c-0.1-0.1-0.1-0.1-0.2-0.2l-0.2-0.1
					c-0.1-0.1-0.1-0.1-0.2-0.2l-0.2-0.1c-0.1,0-0.1-0.1-0.2-0.2l-0.2-0.1c-0.1,0-0.1-0.1-0.2-0.1c-0.1-0.1-0.2-0.1-0.2-0.1l-0.2-0.1
					c-0.1,0-0.2-0.1-0.2-0.1l-0.2-0.1c-0.1,0-0.2-0.1-0.2-0.1l-0.2,0c-0.1,0-0.2,0-0.2,0l-0.2,0c-0.1,0-0.2,0-0.2,0l-0.1,0
					c-0.1,0-0.2,0-0.2,0l-0.1,0c-0.1,0-0.2,0-0.2,0.1c-0.2,0.1-0.3,0.1-0.4,0.2l-30.6,17.5l8.8,15.2c0.9,1.5,1.9,2.9,3,4
					c1,1,2,1.8,3,2.4c1.1,0.6,2.2,1,3.2,1.1c1,0.1,2,0,2.8-0.5l20.5-11.7l0.7-0.4c2.4-1.4,5.4-0.3,7.6,1
					C733.1,608.5,734.4,609.7,734.5,609.8"/>
			</g>
		</g>
	</g>
	<g>
		<path class="st26" d="M928.5,998.5l-338.9,91.6v84.1c-0.3,6.1,2.7,12.3,8.9,15.6l55.5,29.3c16.8,8.9,37,8.5,53.5-1l211.7-122.9
			c6.9-4,9.3-11.5,9.3-18.4C928.5,1076.5,928.5,998.5,928.5,998.5z"/>
		<path class="st27" d="M808.3,952.6l-210.4,122.2c-11.4,6.6-11.1,23.2,0.6,29.4l55.5,29.3c16.8,8.9,37,8.5,53.5-1l211.7-122.9
			c12.6-7.3,12.3-25.7-0.6-32.5l-48.5-25.5C850.7,941.2,827.3,941.6,808.3,952.6z"/>
	</g>
	<g>
		<g>
			<g class="st28">
				<g>
					<path class="st29" d="M791.1,1028.6c-1.2-0.7-2.1-0.8-3.3-0.1l-5.6,3.3l7.9,4.6c1,0.6,1,1.1,0,1.7l-6.2,3.6
						c-1,0.6-1.9,0.6-2.9,0l-26.2-15.1c-1-0.6-1-1.1,0-1.7l13.4-7.8c6-3.5,10.7-3,14.7-0.7l1.9,1.1c2.3,1.3,3.3,2.6,2.4,4
						c3.3-1.5,7.3-1.4,10.7,0.6l8.6,4.9c1,0.6,1,1.1,0,1.7l-6.2,3.6c-1,0.6-1.9,0.6-2.9,0L791.1,1028.6z M775,1027.5l3-1.7
						c1.4-0.8,1-1.5-0.1-2.1l-1.4-0.8c-1.1-0.6-2.3-0.9-3.7-0.1l-3,1.7L775,1027.5"/>
				</g>
				<g>
					<path class="st29" d="M769.6,1041.1c4.9,2.8,5.8,6.2-4.2,12c-10,5.8-15.7,5.3-20.6,2.5l-20-11.6c-1-0.6-1-1.1,0-1.7l6.3-3.7
						c1-0.6,1.9-0.6,2.9,0l18.4,10.6c1.1,0.6,2.4,0.8,5.2-0.8c2.9-1.7,2.5-2.4,1.4-3l-18.4-10.6c-1-0.6-1.1-1.1,0-1.7l6.1-3.5
						c1-0.6,1.9-0.6,2.9,0L769.6,1041.1z"/>
				</g>
			</g>
			<g>
				<path class="st29" d="M741.5,1058.6c4.5,2.6,4.2,5.2-1.2,8.4l-15.4,9c-1,0.6-1.9,0.6-2.9,0l-26.2-15.1c-1-0.6-1-1.1,0-1.7
					l12.8-7.4c5.3-3.1,9.7-3.4,13.9-0.9l1.9,1.1c2.3,1.3,2.9,2.6,2,3.9c3.8-1.8,7.4-1.6,11.3,0.7L741.5,1058.6z M725.6,1067.5l5.2-3
					c1-0.6,1-1.2-0.1-1.8l-1.6-0.9c-1.1-0.6-2.1-0.6-3.1,0l-5.2,3L725.6,1067.5 M714.6,1061.2l3.4-2c1-0.6,1-1.2-0.1-1.8l-1.1-0.7
					c-1.1-0.6-2.1-0.7-3.1,0l-3.4,2L714.6,1061.2"/>
			</g>
			<g>
				<path class="st29" d="M835.6,1009.9c1,0.6,1,1.1,0,1.7l-6,3.5c-1,0.6-1.9,0.6-2.9,0l-5-2.9l-15.2-0.8l13.3,7.7
					c1,0.6,1,1.1,0,1.7l-6,3.5c-1,0.6-1.9,0.6-2.9,0l-26.2-15.1c-1-0.6-1-1.1,0-1.7l4.2-2.4c1-0.6,2-0.8,3.5-0.7l16.8,0.7l-8.6-5
					c-1-0.6-1-1.1,0-1.7l6-3.5c1-0.6,1.9-0.6,2.9,0L835.6,1009.9z"/>
			</g>
		</g>
	</g>
	<g>
		<path class="st30" d="M1085,1083l-338.9,91.6v84.1c-0.3,6.1,2.7,12.3,8.9,15.6l55.5,29.3c16.8,8.9,37,8.5,53.5-1l211.7-122.9
			c6.9-4,9.3-11.5,9.3-18.4C1085,1161,1085,1083,1085,1083z"/>
		<path class="st31" d="M964.9,1037.1l-210.4,122.2c-11.4,6.6-11.1,23.2,0.6,29.4l55.5,29.3c16.8,8.9,37,8.5,53.5-1l211.7-122.9
			c12.6-7.3,12.3-25.7-0.6-32.5l-48.5-25.5C1007.2,1025.6,983.9,1026.1,964.9,1037.1z"/>
	</g>
	<g>
		<g>
			<g>
				<path class="st32" d="M882.5,1146.7c4.6,2.7,4,5.9-1.2,8.9l-12.7,7.4c-1,0.6-1.9,0.6-2.9,0l-4.7-2.7c-1-0.6-1-1.1,0-1.7
					l10.8-6.3c0.7-0.4,0.5-0.9-0.1-1.3c-0.9-0.5-1.7-0.5-2.4-0.2l-6.9,3c-4.3,1.9-8.4,2.4-12.9-0.3l-4.2-2.5c-4.6-2.7-4-5.9,1.2-8.9
					l11.2-6.5c1-0.6,1.9-0.6,2.9,0l4.8,2.8c1,0.6,1,1.1,0,1.7l-9.4,5.4c-0.7,0.4-0.6,0.9,0.1,1.3c0.7,0.4,1.6,0.5,2.4,0.1l6.8-3
					c4.3-1.9,8.5-2.4,13,0.2L882.5,1146.7z"/>
			</g>
			<g>
				<path class="st32" d="M934.1,1123.2l-5.7-3.3l-7.1,4.1l5.7,3.3c1,0.6,1,1.1,0,1.7l-5.9,3.4c-1,0.6-1.9,0.6-2.9,0l-10.7-6.2
					c-1.6-0.9-3.2-2.4-4.9-4.6l-5.7-7.3c-0.6-0.7-0.4-1.3,0.7-2l10.8-6.3c1-0.6,2.1-0.7,3.3-0.4l12.7,3.3c3.9,1,6.4,1.9,8,2.8
					l10.7,6.2c1,0.6,1,1.1,0,1.7l-6.1,3.5C936.1,1123.8,935.1,1123.8,934.1,1123.2z M914.4,1119.6l6.3-3.7l-8-2.5
					c-0.7-0.2-1.1-0.1-1.4,0l-1,0.6c-0.3,0.2-0.4,0.4-0.1,0.8L914.4,1119.6"/>
			</g>
			<g>
				<path class="st32" d="M893.6,1122.1c1,0.6,1,1.1,0,1.7l-5.9,3.4l19.8,11.5c1,0.6,1,1.1,0,1.7l-6.5,3.8c-1,0.6-1.9,0.6-2.9,0
					l-19.8-11.5l-5.9,3.4c-1,0.6-1.9,0.6-2.9,0l-4.9-2.8c-1-0.6-1-1.1,0-1.7l21.2-12.3c1-0.6,1.9-0.6,2.9,0L893.6,1122.1z"/>
			</g>
			<g>
				<path class="st32" d="M999.6,1085.2c1,0.6,1,1.1,0,1.7l-18.6,10.8c-1,0.6-1.9,0.6-2.9,0l-26.2-15.1c-1-0.6-1-1.1,0-1.7
					l18.6-10.8c1-0.6,1.9-0.6,2.9,0l4.7,2.7c1,0.6,1,1.1,0,1.7l-11.1,6.4l3.1,1.8l7.8-4.6c1-0.6,1.9-0.6,2.9,0l4.3,2.5
					c1,0.6,1,1.1,0,1.7l-7.8,4.6l3.5,2l11.1-6.4c1-0.6,1.9-0.6,2.9,0L999.6,1085.2z"/>
			</g>
			<g>
				<path class="st32" d="M972.9,1100.7c1,0.6,1,1.1,0,1.7l-6.2,3.6c-1,0.6-1.9,0.6-2.9,0l-7.9-4.5c-0.9-0.5-1.8-0.5-2.7,0l-5.3,3.1
					l9.3,5.3c1,0.6,1,1.1,0,1.7l-6.2,3.6c-1,0.6-1.9,0.6-2.9,0L922,1100c-1-0.6-1-1.1,0-1.7l6.2-3.6c1-0.6,1.9-0.6,2.9,0l9.3,5.4
					l1.6-0.9l-5.3-7.8c-0.6-0.8-0.4-1.3,0.7-1.9l6.2-3.6c0.7-0.4,1.3-0.5,1.8-0.2c0.2,0.1,0.3,0.2,0.5,0.4l5.3,7.8
					c3.2-1.7,7.2-1.6,10.4,0.3L972.9,1100.7z"/>
			</g>
		</g>
	</g>
	<g>
		<g>
			<g>
				<polygon class="st33" points="1317.8,552.6 1308.3,558.1 1297,551.6 1306.5,546.1 				"/>
			</g>
			<g>
				<polygon class="st33" points="1357.8,552.2 1317.3,575.8 1291.3,576 1331.9,552.5 1290.6,528.6 1316.5,528.4 				"/>
			</g>
			<g>
				<polygon class="st33" points="1299.5,542.1 1282.8,551.8 1301.1,562.3 1291.7,567.7 1264.4,551.9 1290.5,536.8 				"/>
			</g>
		</g>
	</g>
	<g>
		<g>
			<g>
				<path class="st14" d="M1145,649.4c0.2,0.1,0.2,0.4,0,0.5l-3.5,2c-1.1,0.6-2.8,0.6-3.8,0l-2.7-1.6c-1.1-0.6-1.1-1.6,0-2.2l3.5-2
					c0.2-0.1,0.6-0.1,0.8,0L1145,649.4z"/>
			</g>
			<g>
				<path class="st14" d="M1189.4,628.6c3,1.7,3,4.5,0,6.3l-1.8,1.1l-4.7,2.7l-14.7,8.5l-4.7,2.7l-1.8,1.1c-3,1.7-7.8,1.7-10.8,0
					l-1.1-0.7l-11.5-6.6l-0.9-0.5c-3.9-2.3-3.9-5.9,0-8.2l0.2-0.1l4-2.3l2-1.2c2.9-1.7,7.6-1.7,10.4,0l2,1.2l2.8,1.6l4.4,2.5
					c1.2,0.7,1.2,1.8,0,2.5l-5,2.9l-1.7,1c-0.7,0.4-1.8,0.4-2.4,0l-4.1-2.4c-0.7-0.4-0.7-1,0-1.4l1.2-0.7c0.3-0.1,0.3-0.4,0-0.5
					l-1.9-1.1c-0.3-0.2-0.7-0.1-0.9,0l-2.1,1.2c-0.8,0.5-0.8,1.2,0.7,2.1l9,5.2c0.1,0.1,0.4,0.1,0.5,0l4.5-2.6l14.7-8.5l4.3-2.5
					c0.2-0.1,0.2-0.3,0-0.5l-9.4-5.4c-0.9-0.5-2.4-0.5-3.3,0l-1.9,1.1c-0.3,0.2-0.3,0.4,0,0.5l6.9,4c1.1,0.6,1.1,1.7,0,2.3l-3,1.8
					c-1.2,0.7-3.2,0.7-4.4,0l-4.4-2.5l-2.8-1.6l-5.1-3c-1.2-0.7-1.2-1.8,0-2.5l5.1-3l4-2.3l0.2-0.1c3.9-2.3,10.2-2.3,14.1,0l0.2,0.1
					l11.5,6.6L1189.4,628.6z"/>
			</g>
			<g>
				<path class="st14" d="M1212.8,602.5c-1.4-0.8-3.7-0.8-5.1,0l-3.7,2.2c-0.1,0-0.1,0.1,0,0.2l16.6,9.6c1.1,0.6,1.1,1.6,0,2.2
					l-5.3,3.1l-12.5,7.3l-1.8,1.1c-3,1.7-7.8,1.7-10.8,0l-1.8-1.1l-11.5-6.6l-0.2-0.1c-3.9-2.3-3.9-5.9,0-8.2l0.2-0.1l4-2.3l2-1.2
					c2.9-1.7,7.6-1.7,10.4,0l2,1.2l2.1,1.2l6,3.5c0.7,0.4,0.7,1,0,1.4l-6,3.5l-0.7,0.4c-1.2,0.7-3.2,0.7-4.4,0l-3.1-1.8
					c-0.7-0.4-0.7-1,0-1.4l1.2-0.7c0.3-0.2,0.3-0.4,0-0.5l-1.9-1.1c-0.3-0.2-0.7-0.2-0.9,0l-1.9,1.1c-0.9,0.5-0.9,1.4,0,1.9l9.4,5.4
					c0.2,0.1,0.6,0.1,0.8,0l11.2-6.5c0.5-0.3,0.5-0.7,0-1l-10.6-6.1l-5.3-3.1c-1.1-0.6-1.1-1.6,0-2.3l5.3-3.1l6.4-3.7l1-0.6
					c3.4-2,9-2,12.5,0l1,0.6l18.4,10.6c0.2,0.1,0.2,0.3,0,0.4l-5.2,3c-0.9,0.5-2.4,0.5-3.3,0L1212.8,602.5z"/>
			</g>
		</g>
	</g>
	<g>
		<g>
			<g>
				<polygon class="st34" points="1275.8,676.1 1275.8,676.1 1275.8,676.1 1275.8,676.1 				"/>
			</g>
			<g>
				<polygon class="st34" points="1350.3,684.3 1337.6,712 1289.4,719.4 1287.7,718.4 1336,711 1348.6,683.4 				"/>
			</g>
			<g>
				<path class="st34" d="M1341.7,679.5l-12.7,27.7l-47.8,7.4l-29-16.8l15.5-26.1l45-9L1341.7,679.5z M1257.3,697.2l33.9-5.9
					c-3.5,0.1-7.3-0.3-10.1-2l-0.4-0.2c-5.3-3.1-5-12.6-4.9-12.9c0.5,0,17.1-0.2,22.4,2.9l0.4,0.2c2.5,1.4,3.3,3.3,3.4,5.1l9.8-18.6
					l-40.5,8L1257.3,697.2 M1282.5,711.7l41.9-6.5l-18.3-10.6c2.9,3.7,0.7,7.2-3.9,9.1c-7.4,3.1-20,3.8-20.7,3.8
					c4.5-2.3-1.5-9.3,4.7-13.5c0.7-0.5,1.4-0.9,2.2-1.3l-29.5,5.2L1282.5,711.7 M1336.8,680.2l-23.5-13.6l-9,17.1
					c0.6-0.4,1.4-0.8,2.2-1.3c7.2-3.6,19.3-0.1,23.3-2.8c-0.1,0.4-1.3,7.7-6.6,12c-3.4,2.7-9.4,3.9-15.7,2.3l18.3,10.6L1336.8,680.2
					"/>
			</g>
			<g>
				<polygon class="st34" points="1346.9,682.4 1334.2,710 1286,717.4 1284.3,716.5 1332.5,709 1345.2,681.4 				"/>
			</g>
			<g>
				<polygon class="st34" points="1353.7,686.3 1341.1,713.9 1292.8,721.4 1291.1,720.4 1339.4,713 1352,685.3 				"/>
			</g>
		</g>
	</g>
	<g>
		<g>
			<g>
				<path class="st35" d="M1444.4,644.7c-9.9,6-20.1,6.1-30.2,0.4l-26.5-15.3c-9.9-5.7-9.7-11.8,0.5-17.5l9.9-5.8
					c0.1-0.1,0.2-0.1,0.3-0.2c0.5-0.3,1.1-0.6,1.6-0.9l10-5.8l10.1-5.8c9.8-6,20.3-6.2,30-0.5c0.1,0,0.1,0.1,0.2,0.1l26.6,15.3
					c10,5.8,9.8,11.7-0.6,17.5l-10,5.8l-10.1,5.9c-0.5,0.3-1.1,0.6-1.5,0.9c-0.1,0-0.2,0.1-0.3,0.2L1444.4,644.7z M1460.4,628.7
					l11-6.4c6.3-3.7,6.1-6.6-0.9-10.6c-0.1-0.1-0.2-0.1-0.3-0.2l-24.7-14.3c-0.1-0.1-0.2-0.1-0.3-0.2c-7-4-11.9-4.1-18.3-0.5
					l-10.9,6.3l-11,6.4c-6.2,3.7-6.1,6.5,0.9,10.6c0.1,0.1,0.3,0.1,0.4,0.2l24.7,14.3c0.1,0.1,0.2,0.1,0.3,0.2
					c7,4,11.9,4.2,18.3,0.5L1460.4,628.7"/>
			</g>
		</g>
	</g>
</g>
<g id="Layer_3">
</g>
</svg>
