<?xml version="1.0" encoding="utf-8"?>
<!-- Generator: Adobe Illustrator 23.0.3, SVG Export Plug-In . SVG Version: 6.00 Build 0)  -->
<svg version="1.1" id="Calque_1" xmlns="http://www.w3.org/2000/svg" xmlns:xlink="http://www.w3.org/1999/xlink" x="0px" y="0px"
	 viewBox="0 0 250 250" style="enable-background:new 0 0 250 250;" xml:space="preserve">
<style type="text/css">
	.st0{display:none;opacity:0.12;fill:#1D2339;}
	.st1{display:none;}
	.st2{display:inline;opacity:0.26;fill:#1D2339;}
	.st3{fill:#1D2339;}
</style>
<g>
	<path class="st0" d="M151.3,114.8c0,0.1-0.1,0.3-0.3,0.3c-1.5,0.1-2.8,0.1-4,0.2c-2.4,0.2-2.6,0.4-2.6,2.7c0,2.4,0.1,4.8,0,7.2
		c-0.1,2.6,0.1,2.9,2.7,2.9c4.7,0,9.4,0,14.1,0c2.1,0,2.4-0.3,2.4-2.5c0-6,0-12,0-18c0-1.9,0-3.7,0-5.6c-0.1-2.9-1.3-4.4-4.2-4.9
		c-1.8-0.3-3.7-0.5-5.5-0.5c-3.5-0.1-7.1,0-10.6-0.1c-3.5-0.1-6.6,1-9.6,2.7c-2.2,1.2-3.8,3-4.3,5.5c-0.4,1.8-0.7,3.7-0.8,5.5
		c-0.2,7-0.3,14-0.2,21c0,2.5,0.2,5,0.8,7.4c1.4,5.5,4.3,7.6,10,7.6c8,0,16.1,0.1,24.1,0.1c4.5,0,9-0.1,13.5-0.2
		c2.5,0,3.5-1,3.5-3.5c0-0.4,0-0.7,0-1.1c0-8,0-16.1,0.1-24.1c0-2.4,0.2-4.7,0.3-7.1c0-0.1,0.1-0.3,0.3-0.3c2.6,0,4.9-0.2,7.2,0.1
		c2.2,0.2,3.7,1.7,4.1,3.9c0.2,1.6,0.3,3.2,0.3,4.8c0,6.8-0.1,13.6-0.2,20.4c0,1.2-0.1,2.5,0.1,3.7c0.3,2.4,1.5,3.3,4,3.3
		c2.2,0,4.4-0.1,6.6-0.1c0.7,0,1.4-0.1,2.3-0.2c0.1,0,0.2-0.1,0.2-0.3c0.2-2.2,0.4-4.2,0.4-6.3c0-11.1-0.1-22.1-0.2-33.2
		c0-0.9-0.1-1.8-0.2-2.6c-0.4-2.9-2-4.9-4.7-5.9c-1.5-0.5-3.1-0.9-4.6-0.9c-8.5-0.1-17-0.1-25.5,0c-3.4,0-4.4,0.9-4.7,4.3
		c0,0.4,0,0.9,0,1.3c0,7.7,0,15.4-0.1,23.1c0,1.6,0,3.2-0.1,4.8c-0.2,2.1-0.4,2.4-2.6,2.5c-5.9,0.1-11.9,0.1-17.8,0.1
		c-1,0-2-0.3-2.9-0.5c-0.1,0-0.2-0.1-0.2-0.2c-0.1-0.5-0.2-0.9-0.2-1.2c-0.1-5.5-0.2-11-0.3-16.4c0-0.7,0.1-1.4,0.5-2
		c0.4-0.6,1-1.5,1.6-1.5c2.3-0.1,4.7-0.1,7.1,0c0.1,0,0.3,0.1,0.3,0.3V114.8z M71.8,115.3c-0.2,0-0.4,0-0.5,0
		c-2,0.2-2.2,0.4-2.2,2.4c0,2.8-0.1,5.6-0.2,8.5c0,1,0.5,1.5,1.4,1.7c0.5,0.1,1.1,0.1,1.6,0.1c4.6,0,9.2,0,13.8,0
		c2.3,0,2.6-0.3,2.6-2.6c0-7.2-0.1-14.3-0.1-21.5c0-1.1-0.1-2.1-0.3-3.2c-0.3-2.2-1.5-3.6-3.7-3.8c-1.8-0.2-3.5-0.5-5.3-0.5
		c-3.6-0.1-7.3,0-10.9-0.1c-3.5-0.1-6.6,1-9.6,2.6c-2.2,1.2-3.8,3-4.4,5.4c-0.4,1.7-0.7,3.5-0.8,5.2c-0.2,7.3-0.3,14.5-0.2,21.8
		c0,3.4,0.3,6.7,1.9,9.8c1.5,3,4,4.3,7.2,4.7c0.6,0.1,1.2,0,1.9,0c15.2,0,30.4,0,45.6,0c2.5,0,5,0,7.4,0c3.9-0.1,6.7-1.8,8.3-5.5
		c1.3-3.1,1.5-6.4,1.5-9.6c0-6.6-0.1-13.3-0.3-19.9c0-1.9-0.3-3.9-0.6-5.8c-0.3-2.1-1.4-3.8-3.1-5.1c-2.7-2.1-5.8-3.5-9.3-3.6
		c-5-0.1-10.1-0.1-15.1,0.1c-5.5,0.3-6.7,1.4-6.8,6.9c-0.2,7.3-0.1,14.7-0.2,22c0,2.2,0.3,2.5,2.4,2.5c4.8,0,9.6,0,14.3,0
		c0.4,0,0.9,0,1.3-0.1c0.9-0.2,1.3-0.8,1.3-1.7c-0.1-2.8-0.1-5.6-0.2-8.5c0-2-0.3-2.2-2.3-2.4c-1.4-0.1-2.8-0.2-4.3-0.3
		c-0.1,0-0.3-0.1-0.3-0.3v-3.9c0-0.1,0.1-0.3,0.3-0.3c2-0.1,4.1-0.2,6.1-0.2c1.8,0,2.4,0.4,2.9,2.1c0.2,0.7,0.3,1.4,0.3,2.1
		c0,3.6,0,7.3-0.1,10.9c0,2-0.2,4.1-0.3,6.3c0,0.1-0.1,0.2-0.2,0.3c-1.6,0.2-3,0.5-4.4,0.5c-12.3,0-24.6,0-36.9,0
		c-1.4,0-2.8-0.3-4.2-0.5c-0.1,0-0.2-0.1-0.2-0.2c-0.1-0.5-0.2-0.8-0.2-1.1c-0.1-5.6-0.2-11.1-0.3-16.7c0-0.7,0.2-1.4,0.5-2
		c0.4-0.6,1-1.4,1.6-1.5c1-0.1,2.1-0.2,3.1-0.2C71.8,113.6,71.7,112.1,71.8,115.3z M49.5,128.3c0.1,0,0.2-0.1,0.2-0.3
		c0.1-4.2,0.2-8.2,0.2-12.1c0-1.1-0.7-1.8-1.9-1.8c-1.9-0.1-3.7-0.2-5.6-0.1c-1.6,0.1-3,1-3.2,2.6c-0.4,2.9-0.4,5.8-0.4,8.7
		c0,1.4,0.9,2.5,2.4,2.7C43.8,128.5,46.4,128.6,49.5,128.3z"/>
	<g class="st1">
		<path class="st2" d="M151.3,114.8v-4c0-0.1-0.1-0.3-0.3-0.3c-2.4,0-4.8-0.1-7.1,0c-0.6,0-1.2,0.9-1.6,1.5c-0.3,0.6-0.5,1.3-0.5,2
			c0.1,5.5,0.2,11,0.3,16.4c0,0.4,0.1,0.8,0.2,1.2c0,0.1,0.1,0.2,0.2,0.2c1,0.2,2,0.5,2.9,0.5c5.9,0,11.9,0,17.8-0.1
			c2.2,0,2.4-0.3,2.6-2.5c0.1-1.6,0.1-3.2,0.1-4.8c0-7.7,0-15.4,0.1-23.1c0-0.4,0-0.9,0-1.3c0.3-3.4,1.3-4.3,4.7-4.3
			c8.5,0,17,0,25.5,0c1.6,0,3.2,0.4,4.6,0.9c2.7,1,4.3,3,4.7,5.9c0.1,0.9,0.2,1.8,0.2,2.6c0.1,11.1,0.2,22.1,0.2,33.2
			c0,2-0.2,4.1-0.4,6.3c0,0.1-0.1,0.2-0.2,0.3c-0.9,0.1-1.6,0.2-2.3,0.2c-2.2,0.1-4.4,0.1-6.6,0.1c-2.4,0-3.6-0.9-4-3.3
			c-0.2-1.2-0.1-2.5-0.1-3.7c0-6.8,0.1-13.6,0.2-20.4c0-1.6-0.1-3.2-0.3-4.8c-0.3-2.3-1.8-3.7-4.1-3.9c-2.3-0.2-4.6-0.1-7.2-0.1
			c-0.1,0-0.3,0.1-0.3,0.3c-0.1,2.4-0.3,4.7-0.3,7.1c-0.1,8-0.1,16.1-0.1,24.1c0,0.4,0,0.7,0,1.1c-0.1,2.6-1,3.5-3.5,3.5
			c-4.5,0.1-9,0.2-13.5,0.2c-8,0-16.1-0.1-24.1-0.1c-5.7,0-8.6-2.1-10-7.6c-0.6-2.4-0.8-4.9-0.8-7.4c0-7,0.1-14,0.2-21
			c0-1.8,0.3-3.7,0.8-5.5c0.6-2.5,2.2-4.2,4.3-5.5c3-1.7,6.1-2.8,9.6-2.7c3.5,0.1,7.1,0,10.6,0.1c1.8,0,3.7,0.2,5.5,0.5
			c2.9,0.5,4.1,2,4.2,4.9c0.1,1.9,0,3.7,0,5.6c0,6,0,12,0,18c0,2.2-0.3,2.5-2.4,2.5c-4.7,0-9.4,0-14.1,0c-2.6,0-2.8-0.3-2.7-2.9
			c0.1-2.4,0-4.8,0-7.2c0-2.3,0.2-2.5,2.6-2.7c1.2-0.1,2.5-0.2,4-0.2C151.2,115.1,151.3,115,151.3,114.8z"/>
		<path class="st2" d="M71.8,115.3c-0.1-3.2-0.1-1.8-0.2-4.9c-1,0-2.1,0.1-3.1,0.2c-0.6,0.1-1.2,0.9-1.6,1.5c-0.3,0.6-0.5,1.3-0.5,2
			c0.1,5.6,0.2,11.1,0.3,16.7c0,0.3,0.1,0.6,0.2,1.1c0,0.1,0.1,0.2,0.2,0.2c1.4,0.2,2.8,0.4,4.2,0.5c12.3,0,24.6,0,36.9,0
			c1.4,0,2.8-0.3,4.4-0.5c0.1,0,0.2-0.1,0.2-0.3c0.1-2.2,0.3-4.2,0.3-6.3c0.1-3.6,0.1-7.3,0.1-10.9c0-0.7,0-1.4-0.3-2.1
			c-0.5-1.7-1-2.1-2.9-2.1c-2,0-4,0.1-6.1,0.2c-0.1,0-0.3,0.1-0.3,0.3v3.9c0,0.1,0.1,0.3,0.3,0.3c1.5,0.1,2.9,0.2,4.3,0.3
			c2,0.2,2.3,0.4,2.3,2.4c0,2.8,0.1,5.6,0.2,8.5c0,1-0.4,1.5-1.3,1.7c-0.4,0.1-0.9,0.1-1.3,0.1c-4.8,0-9.6,0-14.3,0
			c-2.1,0-2.4-0.3-2.4-2.5c0-7.3,0-14.7,0.2-22c0.1-5.5,1.3-6.7,6.8-6.9c5-0.2,10.1-0.3,15.1-0.1c3.4,0.1,6.5,1.5,9.3,3.6
			c1.7,1.3,2.8,3,3.1,5.1c0.3,1.9,0.5,3.9,0.6,5.8c0.1,6.6,0.2,13.3,0.3,19.9c0,3.3-0.1,6.5-1.5,9.6c-1.6,3.7-4.4,5.4-8.3,5.5
			c-2.5,0-5,0-7.4,0c-15.2,0-30.4,0-45.6,0c-0.6,0-1.2,0-1.9,0c-3.2-0.3-5.7-1.7-7.2-4.7c-1.6-3.1-1.9-6.5-1.9-9.8
			c0-7.3,0.1-14.5,0.2-21.8c0-1.8,0.4-3.5,0.8-5.2c0.6-2.5,2.2-4.2,4.4-5.4c3-1.6,6.1-2.7,9.6-2.6c3.6,0.1,7.3,0,10.9,0.1
			c1.8,0,3.5,0.3,5.3,0.5c2.3,0.3,3.4,1.7,3.7,3.8c0.1,1,0.3,2.1,0.3,3.2c0.1,7.2,0.1,14.3,0.1,21.5c0,2.3-0.3,2.6-2.6,2.6
			c-4.6,0-9.2,0-13.8,0c-0.5,0-1.1,0-1.6-0.1c-0.9-0.2-1.4-0.7-1.4-1.7c0.1-2.8,0.1-5.6,0.2-8.5c0-2,0.3-2.3,2.2-2.4
			C71.5,115.3,71.7,115.3,71.8,115.3z"/>
		<path class="st2" d="M49.7,128c0,0.1-0.1,0.3-0.2,0.3c-3.1,0.4-5.7,0.2-8.2-0.2c-1.5-0.2-2.4-1.3-2.4-2.7c0-2.9,0.1-5.8,0.4-8.7
			c0.2-1.6,1.7-2.5,3.2-2.6c1.8-0.1,3.7,0,5.6,0.1c1.2,0,1.9,0.7,1.9,1.8C49.9,119.8,49.8,123.8,49.7,128z"/>
	</g>
	<path class="st3" d="M50,116.4v10.9c0,0.4-0.4,0.8-0.8,0.8h-6.7c-2,0-3.6-1.6-3.6-3.6v-5.2c0-2,1.6-3.6,3.6-3.6h6.7
		C49.7,115.6,50,115.9,50,116.4z M194,96.5h-1.9h-12.2h-10.1c-2.1,0-3.7,1.7-3.7,3.7v10.1v20.1c0,0.9-0.7,1.6-1.6,1.6h-21.5
		c-0.4,0-0.8-0.3-0.8-0.8v-17.9c0-1.7,1.4-3.1,3.1-3.1h3.7c0.5,0,0.9,0.4,0.9,0.9v3.5c0,0.5-0.4,0.9-0.9,0.9h-2.4
		c-1.3,0-2.3,1-2.3,2.3v6c0,2.3,1.9,4.2,4.2,4.2h1.4h11.5c1.3,0,2.3-1,2.3-2.3v-11.5v-4v-3.8c0-5.5-4.5-10-10-10h-3.8h-7.7h-0.4
		c-7.4,0-13.4,6-13.4,13.4v0.4v21.8v3.5c0,5.7,4.6,10.3,10.3,10.3h3.5h23.9h10.1c2,0,3.7-1.7,3.7-3.7v-31.6c0-0.2,0.1-0.3,0.3-0.3
		h7.1c2.7,0,4.8,2.2,4.8,4.8v27.6c0,1.8,1.4,3.2,3.2,3.2h10c0.4,0,0.7-0.3,0.7-0.7v-34.9v-1.9C205.9,101.8,200.6,96.5,194,96.5z
		 M113.3,96.5H113h-7.7h-9.7c-2.3,0-4.1,1.8-4.1,4.1v9.7v5.3v8.3c0,2.3,1.9,4.2,4.2,4.2h5.8c2.1,0,3.8-1.7,3.8-3.8v-13.1
		c0-0.5,0.4-0.9,0.9-0.9h3.7c1.7,0,3.1,1.4,3.1,3.1v17.9c0,0.4-0.3,0.8-0.8,0.8h-8.3H75.8h-8.5c-0.3,0-0.5-0.3-0.5-0.5v-17.1
		c0-2.9,1.3-4.2,2.8-4.2h4c0.5,0,0.9,0.4,0.9,0.9v3.5c0,0.5-0.4,0.9-0.9,0.9h-2.4c-1.3,0-2.3,1-2.3,2.3v7.8c0,1.3,1,2.3,2.3,2.3h3.2
		h9.6c2.3,0,4.2-1.9,4.2-4.2v-8.3v-5.3v-3.8c0-5.5-4.5-10-10-10h-3.8h-7.7h-0.4c-7.4,0-13.4,6-13.4,13.4v1.7v21.8v2.2
		c0,5.7,4.6,10.3,10.3,10.3h3.5h9h28.1h9h3.5c5.7,0,10.3-4.6,10.3-10.3v-3.5v-21.8v-0.4C126.8,102.5,120.7,96.5,113.3,96.5z"/>
</g>
</svg>
