<?xml version="1.0" encoding="utf-8"?>
<!-- Generator: Adobe Illustrator 23.0.3, SVG Export Plug-In . SVG Version: 6.00 Build 0)  -->
<svg version="1.1" id="Calque_1" xmlns="http://www.w3.org/2000/svg" xmlns:xlink="http://www.w3.org/1999/xlink" x="0px" y="0px"
	 viewBox="0 0 250 250" style="enable-background:new 0 0 250 250;" xml:space="preserve">
<style type="text/css">
	.st0{fill:#FFFFFF;}
	.st1{fill:#1D2339;}
</style>
<rect id="XMLID_142_" class="st0" width="250" height="250"/>
<path class="st1" d="M184.5,133.9l-34.2-33.1c-3-3-7.9-2.9-10.9,0.1l-18.8,18.9c-1.9,1.9-5.1,1.9-7,0l0,0L94.9,101
	c-1.2-1.3-2.9-2.1-4.7-2.3c-2.4-0.3-4.7,0.5-6.4,2.2L52.6,132l-3.3,3.3l0,0l3.3,3.3l10.8,10.8c1.7,1.7,4,2.8,6.4,3
	c2.9,0.3,5.8-0.8,7.9-2.9L93.4,134l0,0l19.3,20.6c2.7,2.8,7.1,2.9,9.9,0.3c0.1-0.1,0.2-0.2,0.3-0.3l19.1-21.4l0,0l18.2,17.3l0,0
	c2.4,2,6,1.8,8.2-0.4L184.5,133.9L184.5,133.9z M107.7,120.5l-1.5-0.3c-2.9-0.6-5.8,0.2-7.9,2.3l-23.9,23.8c-2.1,2.1-5.4,2.1-7.5,0
	l0,0L56,135.4l0,0l31.2-31.1c1.2-1.2,3.1-1.2,4.3,0l0,0L107.7,120.5z M158.5,115.3L158.5,115.3c-0.1,0-4.6-1.3-7.7,1.8l-0.5,0.5l0,0
	l-14.5,14.5c-1.1,1.1-2.7,1.8-4.3,1.8s-3.1-0.6-4.3-1.8l-6.2-6.2l21.7-21.7c0.1-0.1,0.2-0.1,0.2-0.2l0.1-0.1l0.2-0.1l0.1-0.1
	l0.2-0.1h0.1c0.1,0,0.1-0.1,0.2-0.1h0.1l0.2-0.1h0.1h0.2h0.1c0.1,0,0.1,0,0.2,0h0.1h0.2l0,0h0.1h0.1h0.2h0.1h0.2h0.1l0.2,0.1h0.1
	l0.2,0.1h0.1c0.1,0,0.1,0.1,0.2,0.1l0.1,0.1l0.2,0.1l0.1,0.1c0.1,0.1,0.2,0.1,0.2,0.2L158.5,115.3L158.5,115.3z M205.8,113.2
	l-16.9,16.9l-18.4-18.4l10.2-10.2c3.7-3.7,9.6-3.7,13.3,0L205.8,113.2z"/>
</svg>
