<?xml version="1.0" encoding="utf-8"?>
<!-- Generator: Adobe Illustrator 23.0.3, SVG Export Plug-In . SVG Version: 6.00 Build 0)  -->
<svg version="1.1" id="Calque_1" xmlns="http://www.w3.org/2000/svg" xmlns:xlink="http://www.w3.org/1999/xlink" x="0px" y="0px"
	 viewBox="0 0 250 250" style="enable-background:new 0 0 250 250;" xml:space="preserve">
<style type="text/css">
	.st0{fill:#1D2339;}
</style>
<g>
	<path class="st0" d="M125,76.9L125,76.9C124.9,76.9,124.9,76.9,125,76.9C125,76.9,125,76.9,125,76.9L125,76.9z"/>
	<polygon class="st0" points="68.2,161.7 68.2,161.7 68.2,164.8 68.2,164.8 124.8,197.5 180.8,165.2 180.8,165.2 180.8,162.1 
		180.8,162.1 124.8,194.4 	"/>
	<polygon class="st0" points="68.2,155.4 68.2,155.4 68.2,158.5 68.2,158.5 124.8,191.2 180.8,158.9 180.8,158.9 180.8,155.8 
		180.8,155.8 124.8,188.1 	"/>
	<polygon class="st0" points="124.8,181.8 68.2,149.1 68.2,149.1 68.2,152.2 68.2,152.2 124.8,184.9 180.8,152.6 180.8,152.6 
		180.8,149.5 180.8,149.5 	"/>
	<path class="st0" d="M180.6,143.2V89.8l-56.2-27.2L68.3,89.8v53.5l56.2,32.4L180.6,143.2z M125.7,168.3v-33.7
		c3.3,8.6,10.8,12.1,18.2,10.9c11.7-1.9,25.3-13,25.3-13c-7.9,0.6-13.5-16.3-25.9-17.1c-1.4-0.1-2.8-0.1-4.1,0l35.6-18.9v43.4
		L125.7,168.3z M124.5,69l50.4,24.4v0.2L136,114.2c2.8-2.9,5.1-6.7,5.1-11.4v-0.7c0-9.7-15.6-24.7-16.1-25.2
		c-0.5,0.5-16.1,15.5-16.1,25.2v0.7c0,5.2,2.9,9.4,6.2,12.5L74.1,93.6v-0.2L124.5,69z M74.1,96.5l35.6,18.9c-1.3-0.1-2.6-0.1-4.1,0
		c-12.4,0.8-18.1,17.7-25.9,17.1c0,0,13.6,11,25.3,13c7.4,1.1,14.9-2.4,18.2-10.9v33.7l-49.1-28.4V96.5z"/>
</g>
</svg>
