<svg xmlns="http://www.w3.org/2000/svg" xmlns:xlink="http://www.w3.org/1999/xlink" width="146" height="28" viewBox="0 0 146 28">
    <defs>
        <path id="a" d="M33.846 6.114c1.029 0 2.026.24 2.99.721.966.482 1.701 1.105 2.206 1.87.418.624.716 1.337.895 2.14l.08.41c.144.665.216 1.726.216 3.184H29.61c.045 1.466.393 2.642 1.042 3.528.65.886 1.655 1.329 3.018 1.329 1.271 0 2.286-.418 3.044-1.255.433-.486.74-1.048.92-1.687h2.395c-.063.531-.273 1.123-.63 1.775-.356.652-.755 1.185-1.197 1.599-.74.72-1.655 1.205-2.746 1.457a8.367 8.367 0 0 1-1.99.216c-1.803 0-3.332-.655-4.586-1.964C27.627 18.13 27 16.296 27 13.94c0-2.32.631-4.205 1.894-5.653 1.263-1.448 2.914-2.172 4.952-2.172zm-.148 2.118c-1.119 0-2.057.402-2.815 1.208-.757.805-1.159 1.828-1.204 3.07h8.05c-.098-1.053-.329-1.894-.69-2.524-.667-1.17-1.78-1.754-3.341-1.754zm8.145-1.795h3.153l3.328 5.087 3.37-5.087 2.962.068-4.884 6.976 5.101 7.407h-3.112l-3.6-5.424-3.49 5.424h-3.085l5.101-7.407-4.844-7.044zm20.824-.418c1.632 0 2.96.396 3.984 1.188 1.024.791 1.64 2.154 1.847 4.088H66.13c-.144-.89-.473-1.63-.987-2.22-.515-.589-1.34-.884-2.476-.884-1.552 0-2.661.756-3.329 2.267-.433.98-.65 2.19-.65 3.63 0 1.448.307 2.667.92 3.656.614.99 1.58 1.484 2.896 1.484 1.01 0 1.811-.308 2.402-.924.59-.616.999-1.46 1.224-2.53h2.368c-.27 1.916-.947 3.317-2.03 4.203-1.082.886-2.466 1.33-4.153 1.33-1.895 0-3.405-.691-4.533-2.072-1.128-1.38-1.691-3.105-1.691-5.174 0-2.537.618-4.511 1.853-5.923 1.236-1.413 2.81-2.119 4.723-2.119zM70.934 1h2.435v7.394c.578-.729 1.096-1.241 1.556-1.538.785-.513 1.764-.77 2.936-.77 2.102 0 3.527.734 4.276 2.2.406.8.609 1.911.609 3.333v9.269h-2.503V11.78c0-1.06-.136-1.839-.406-2.334-.442-.791-1.272-1.187-2.49-1.187-1.01 0-1.926.346-2.746 1.039-.821.692-1.232 2.001-1.232 3.926v7.664h-2.435V1zm21.094 5.087c1.705 0 3.09.323 4.154.971 1.055.648 1.583 1.655 1.583 3.022v8.325c0 .252.052.455.155.607.104.153.323.23.657.23.108 0 .23-.007.365-.02.135-.014.28-.034.433-.061v1.794l-.411.11a4.532 4.532 0 0 1-.455.093c-.198.027-.47.04-.812.04-.839 0-1.448-.297-1.826-.89-.199-.315-.339-.76-.42-1.336-.496.648-1.209 1.21-2.138 1.687-.929.476-1.953.715-3.071.715-1.344 0-2.442-.407-3.295-1.221-.852-.814-1.278-1.833-1.278-3.056 0-1.34.419-2.38 1.258-3.117.839-.738 1.94-1.192 3.301-1.363l3.884-.486c.559-.072.933-.306 1.123-.701.108-.216.162-.527.162-.931 0-.828-.295-1.428-.886-1.802-.591-.373-1.437-.56-2.537-.56-1.272 0-2.174.342-2.706 1.026-.298.378-.492.94-.582 1.687h-2.273c.045-1.782.624-3.02 1.738-3.718 1.114-.697 2.407-1.045 3.877-1.045zm3.301 7.448c-.297.188-.68.346-1.15.472-.469.126-.929.216-1.38.27l-1.475.188c-.884.117-1.547.302-1.989.554-.748.422-1.123 1.097-1.123 2.024 0 .701.257 1.254.771 1.66.515.404 1.124.606 1.827.606.857 0 1.687-.198 2.49-.593 1.353-.657 2.03-1.732 2.03-3.225v-1.956zm6.427-7.098h2.314v2.051c.686-.845 1.412-1.452 2.178-1.821.767-.369 1.62-.553 2.558-.553 2.056 0 3.446.715 4.167 2.145.397.783.596 1.902.596 3.36v9.269h-2.477V11.78c0-.881-.13-1.592-.392-2.131-.433-.9-1.218-1.35-2.354-1.35-.578 0-1.051.059-1.421.176-.668.198-1.254.593-1.759 1.187-.406.477-.67.97-.792 1.478-.121.508-.182 1.234-.182 2.179v7.569h-2.436V6.438zm20.526-.256c1.137 0 2.129.279 2.977.837.46.314.929.773 1.407 1.376V6.572h2.246v13.142c0 1.835-.27 3.283-.812 4.345-1.01 1.96-2.918 2.941-5.723 2.941-1.56 0-2.873-.349-3.937-1.046-1.065-.697-1.66-1.787-1.787-3.272h2.477c.117.648.351 1.147.703 1.498.55.54 1.416.81 2.598.81 1.867 0 3.09-.657 3.667-1.97.343-.774.5-2.155.473-4.142-.487.737-1.073 1.286-1.759 1.646-.685.36-1.592.54-2.72.54-1.569 0-2.942-.556-4.12-1.667-1.176-1.11-1.765-2.948-1.765-5.512 0-2.42.593-4.308 1.78-5.667 1.185-1.358 2.617-2.037 4.295-2.037zm.447 2.145c-1.714 0-2.887.801-3.518 2.402-.334.855-.5 1.974-.5 3.36 0 1.628.33 2.867.994 3.717.663.85 1.553 1.275 2.672 1.275 1.75 0 2.981-.787 3.694-2.361.397-.89.595-1.93.595-3.117 0-1.79-.37-3.117-1.11-3.98-.74-.864-1.682-1.296-2.827-1.296zm15.885-2.212c1.028 0 2.025.24 2.99.721.965.482 1.7 1.105 2.205 1.87.418.624.716 1.337.895 2.14l.08.41c.144.665.216 1.726.216 3.184h-10.621c.045 1.466.392 2.642 1.041 3.528.65.886 1.656 1.329 3.018 1.329 1.272 0 2.286-.418 3.044-1.255.433-.486.74-1.048.92-1.687h2.395c-.063.531-.273 1.123-.63 1.775-.355.652-.755 1.185-1.197 1.599-.74.72-1.655 1.205-2.746 1.457a8.367 8.367 0 0 1-1.99.216c-1.803 0-3.332-.655-4.586-1.964-1.254-1.308-1.88-3.141-1.88-5.498 0-2.32.63-4.205 1.893-5.653 1.263-1.448 2.914-2.172 4.953-2.172zm-.15 2.118c-1.118 0-2.056.402-2.814 1.208-.757.805-1.159 1.828-1.204 3.07h8.05c-.098-1.053-.328-1.894-.69-2.524-.667-1.17-1.78-1.754-3.341-1.754z"/>
    </defs>
    <g fill="none" fill-rule="evenodd">
        <g fill-rule="nonzero">
            <use fill="#000" xlink:href="#a"/>
            <use fill="#FFF" xlink:href="#a"/>
        </g>
        <path fill="#5A81EA" d="M11 14l11 11H0z"/>
        <path fill="#E14B51" d="M11 14L22 3H0z"/>
    </g>
</svg>
