<?xml version="1.0" encoding="utf-8"?>
<!-- Generator: Adobe Illustrator 23.0.3, SVG Export Plug-In . SVG Version: 6.00 Build 0)  -->
<svg version="1.1" id="Layer_1" xmlns="http://www.w3.org/2000/svg" xmlns:xlink="http://www.w3.org/1999/xlink" x="0px" y="0px"
	 viewBox="0 0 512 512" style="enable-background:new 0 0 512 512;" xml:space="preserve">
<style type="text/css">
	.st0{opacity:0.5;clip-path:url(#SVGID_2_);fill:#1D2339;enable-background:new    ;}
	.st1{opacity:0.5;clip-path:url(#SVGID_4_);fill:#1D2339;enable-background:new    ;}
	.st2{clip-path:url(#SVGID_6_);fill:#1D2339;}
</style>
<g>
	<g>
		<g>
			<g>
				<defs>
					<rect id="SVGID_1_" width="512" height="512"/>
				</defs>
				<clipPath id="SVGID_2_">
					<use xlink:href="#SVGID_1_"  style="overflow:visible;"/>
				</clipPath>
				<path class="st0" d="M-75.4,630.8c0,0,89.6-215.9,294.9-242.7c205.3-26.8,184.1-186,184.1-186S368-64.1,751.5-13.9
					S919.7,705,919.7,705L283.1,846.2L-75.4,630.8z"/>
			</g>
		</g>
	</g>
	<g>
		<g>
			<g>
				<defs>
					<rect id="SVGID_3_" width="512" height="512"/>
				</defs>
				<clipPath id="SVGID_4_">
					<use xlink:href="#SVGID_3_"  style="overflow:visible;"/>
				</clipPath>
				<path class="st1" d="M207.2,1431.5c0,0-414-277.4-389.1-415.9s-62-346.9,310.1-605.6s462.3,105.7,462.3,105.7
					s-239.4,828.6-264.8,816.7C300.4,1320.6,207.2,1431.5,207.2,1431.5z"/>
			</g>
		</g>
	</g>
	<g>
		<g>
			<g>
				<defs>
					<rect id="SVGID_5_" width="512" height="512"/>
				</defs>
				<clipPath id="SVGID_6_">
					<use xlink:href="#SVGID_5_"  style="overflow:visible;"/>
				</clipPath>
				<path class="st2" d="M-189.4,683.3c0,0,222-252.8,416.9-280.4s447.2-67.8,438-259.6s282.6,625.6,282.6,625.6
					S99.9,909.6,93.9,909.8C87.9,910.1-189.4,683.3-189.4,683.3z"/>
			</g>
		</g>
	</g>
</g>
</svg>
