<?xml version="1.0" encoding="utf-8"?>
<!-- Generator: Adobe Illustrator 23.0.3, SVG Export Plug-In . SVG Version: 6.00 Build 0)  -->
<svg version="1.1" id="Layer_1" xmlns="http://www.w3.org/2000/svg" xmlns:xlink="http://www.w3.org/1999/xlink" x="0px" y="0px"
	 viewBox="0 0 402.8 236" style="enable-background:new 0 0 402.8 236;" xml:space="preserve">
<style type="text/css">
	.st0{opacity:0.1;fill:#1D2339;enable-background:new    ;}
	.st1{fill:#FFFFFF;}
</style>
<path class="st0" d="M348.3,118.2l-87.2-84.5c-3.7-3.6-8.7-5.6-13.8-5.6c-5.3,0-10.3,2.1-14,5.8L185,82c-5,5-13,5-18,0l-47.8-47.8
	c-3.2-3.2-7.4-5.4-11.9-5.9c-6.1-0.7-12,1.4-16.3,5.6l-79.8,79.4l-8.5,8.5l0,0l8.5,8.5l27.5,27.5c4.4,4.4,10.1,7.3,16.3,7.8
	c7.6,0.6,14.9-2.1,20.3-7.4l40.2-39.8l0,0l49.2,52.7c7.1,7.5,19.2,7.4,26.2-0.2l48.9-54.7l0,0l46.5,44.1l0,0
	c6.2,5,15.3,4.6,20.9-1.1L348.3,118.2L348.3,118.2z M152,84l-3.8-0.9c-1.6-0.4-3.2-0.5-4.8-0.5c-5.7,0-11.3,2.3-15.4,6.4l-61.1,60.7
	c-2.7,2.7-6.1,4-9.6,4s-7-1.3-9.6-4l-27.9-27.9l0,0l79.8-79.4c1.5-1.5,3.5-2.3,5.5-2.3s3.9,0.8,5.5,2.3L152,84L152,84z M282,70.7
	L282,70.7c-0.3-0.1-11.8-3.2-19.6,4.6l-1.3,1.3l0,0l-37,37c-1.5,1.5-3.3,2.6-5.1,3.4c-1.9,0.8-3.8,1.1-5.8,1.1c-1.9,0-3.7-0.3-5.5-1
	c-2-0.8-3.9-1.9-5.5-3.5l-15.9-15.9l55.4-55.4c0.2-0.2,0.4-0.4,0.6-0.5c0.1-0.1,0.1-0.1,0.2-0.1c0.1-0.1,0.3-0.2,0.4-0.3
	c0.1-0.1,0.2-0.1,0.2-0.1c0.1-0.1,0.3-0.2,0.4-0.3c0.1,0,0.2-0.1,0.3-0.1c0.1-0.1,0.3-0.1,0.4-0.2c0.1,0,0.2-0.1,0.3-0.1
	c0.1-0.1,0.3-0.1,0.4-0.1c0.1,0,0.2-0.1,0.3-0.1s0.3-0.1,0.4-0.1c0.1,0,0.2,0,0.3,0s0.3,0,0.4-0.1c0.1,0,0.2,0,0.3,0s0.3,0,0.4,0
	l0,0c0.1,0,0.2,0,0.4,0c0.1,0,0.2,0,0.3,0s0.3,0,0.4,0.1c0.1,0,0.2,0,0.3,0s0.3,0.1,0.4,0.1c0.1,0,0.2,0,0.3,0.1
	c0.1,0,0.3,0.1,0.4,0.1c0.1,0,0.2,0.1,0.3,0.1c0.1,0.1,0.3,0.1,0.4,0.2c0.1,0,0.2,0.1,0.3,0.1c0.1,0.1,0.3,0.2,0.4,0.2
	c0.1,0,0.2,0.1,0.2,0.1c0.1,0.1,0.3,0.2,0.4,0.3c0.1,0,0.1,0.1,0.2,0.1c0.2,0.2,0.4,0.3,0.6,0.5L282,70.7L282,70.7L282,70.7z
	 M402.8,65.3l-43.1,43.1l-46.9-46.9l26.1-26.1c9.4-9.4,24.6-9.4,33.9,0L402.8,65.3z M24.6,191.2l-6.3,11.9c-1.8,0.2-3.2,0.2-5,0
	l-6.3-12v20.8c-2,0.2-5,0.2-7.2,0v-33.1c2.1-0.2,5.5-0.2,7.5,0l8.5,16.3l8.5-16.3c2.1-0.2,5.4-0.2,7.4,0v33.1c-2,0.2-5.1,0.2-7.2,0
	v-20.7H24.6z M52.2,208.4h-0.3c-0.9,3.1-3.9,4.1-7.9,4.1c-4.8,0-8.3-1.9-8.3-7.3v-18.6c1.7-0.2,5.3-0.2,7,0V202
	c0,3.9,1.8,4.5,4.2,4.5c3,0,4.2-0.8,4.9-3.5v-16.4c1.7-0.2,5.3-0.2,7,0V212c-1.6,0.2-4.6,0.2-6.2,0L52.2,208.4z M63,176.8
	c1.7-0.2,5.3-0.2,7,0v35.1c-1.7,0.2-5.3,0.2-7,0V176.8z M82.4,192.2v9.7c0,4.4,1.9,4.7,3.7,4.7c1,0,2.1-0.1,2.9-0.3
	c0.2,1.7,0.2,4.2,0,5.8c-1.6,0.3-3.1,0.4-4.9,0.4c-4.6,0-8.8-1.9-8.8-8.2v-12.1h-3.6c-0.2-1.7-0.2-3.6,0-5.2l3.6-0.2v-6.5
	c1.8-0.2,5.3-0.2,7,0v6.4H89c0.2,1.7,0.2,3.9,0,5.6L82.4,192.2L82.4,192.2z M98.3,182.7c-1.7,0.2-5.6,0.2-7.3,0l-0.1-5.6
	c1.8-0.2,5.8-0.2,7.6,0L98.3,182.7z M91.1,186.6c1.7-0.2,5.3-0.2,7,0v25.3c-1.7,0.2-5.3,0.2-7,0V186.6z M101.6,194.2
	c0-6.4,4.3-8.3,10.8-8.3c2.5,0,5,0.1,7.7,0.7c0.2,1.8,0.2,4.1,0,5.8c-2.2-0.4-3.8-0.6-6.4-0.6c-2.7,0-5.2,0.4-5.2,3.9v7.1
	c0,3.4,2.5,3.8,5.2,3.8c2.6,0,4.1-0.2,6.4-0.7c0.2,1.7,0.2,4.1,0,5.7c-2.7,0.6-5.2,0.9-7.7,0.9c-6.6,0-10.8-2.1-10.8-8.2V194.2z
	 M139.2,196.4c0-4-1.8-4.5-4.3-4.5c-3,0-4.1,0.7-4.9,3.5v16.5c-1.7,0.2-5.3,0.2-7,0v-35.1c1.7-0.2,5.3-0.2,7,0v9.2l-0.3,4.2h0.3
	c0.9-3.1,3.9-4.2,7.9-4.2c4.8,0,8.3,1.9,8.3,7.3V212c-1.8,0.2-5.3,0.2-7,0V196.4z M164.6,208.4h-0.3c-0.8,3-3.8,4.1-7.7,4.1
	c-4.6,0-8.2-2-8.2-7.3c0-6.8,3.8-8.3,9.2-8.3c2.4,0,4.3,0.2,6.7,0.5v-1.8c0-2.5-1.5-3.9-6.5-3.9c-2,0-4.4,0.2-7.3,0.7
	c-0.2-1.8-0.2-3.8,0-5.6c3.4-0.6,6.4-0.8,9.4-0.8c7.5,0,11.4,2.1,11.4,8.1v18.1c-1.6,0.2-4.6,0.2-6.2,0L164.6,208.4z M164.2,201.8
	c-1.6-0.3-3.2-0.5-4.4-0.5c-2.8,0-4.5,0.3-4.5,3c0,2.5,1.7,2.8,3.8,2.8c2.6,0,4-0.8,5-2.7L164.2,201.8L164.2,201.8z M182,182.7
	c-1.7,0.2-5.6,0.2-7.3,0l-0.1-5.6c1.8-0.2,5.8-0.2,7.6,0L182,182.7z M174.8,186.6c1.7-0.2,5.3-0.2,7,0v25.3c-1.7,0.2-5.3,0.2-7,0
	V186.6z M202.2,196.4c0-4-1.8-4.5-4.3-4.5c-3,0-4.1,0.7-4.9,3.5v16.5c-1.7,0.2-5.3,0.2-7,0v-25.5c1.6-0.2,4.6-0.2,6.2,0l0.4,3.7h0.3
	c0.9-3.1,3.9-4.2,7.9-4.2c4.8,0,8.3,1.9,8.3,7.3v18.7c-1.8,0.2-5.3,0.2-7,0v-15.5H202.2z M218.7,178.8c2.1-0.2,5.4-0.2,7.4,0l7.1,23
	l7-23c2.1-0.2,5.2-0.2,7.2,0l-10.8,33.1c-2.1,0.2-4.7,0.2-6.7,0L218.7,178.8z M268,201.3c-3.3,0.2-10.8,0.3-15,0v1.2
	c0,3.5,2,4.1,6.2,4.1c2.9,0,4.9-0.2,7.7-0.8c0.2,1.7,0.2,4,0,5.7c-3.4,0.6-6.2,0.9-9.4,0.9c-7.1,0-11.5-2.1-11.5-8.3v-9.8
	c0-6.5,4.7-8.4,11.2-8.4c6.5,0,10.8,2.7,10.8,9.8L268,201.3L268,201.3z M261.2,195.4c0-3.3-1.9-3.7-4.1-3.7s-4.1,0.4-4.1,3.7v1.9
	l3.8-0.2h4.4L261.2,195.4L261.2,195.4z M287.4,196.4c0-4-1.8-4.5-4.3-4.5c-3,0-4.1,0.7-4.9,3.5v16.5c-1.7,0.2-5.3,0.2-7,0v-25.5
	c1.6-0.2,4.6-0.2,6.2,0l0.4,3.7h0.3c0.9-3.1,3.9-4.2,7.9-4.2c4.8,0,8.3,1.9,8.3,7.3v18.7c-1.8,0.2-5.3,0.2-7,0v-15.5H287.4z
	 M306.4,192.2v9.7c0,4.4,1.9,4.7,3.7,4.7c1,0,2.1-0.1,2.9-0.3c0.2,1.7,0.2,4.2,0,5.8c-1.6,0.3-3.1,0.4-4.9,0.4
	c-4.6,0-8.8-1.9-8.8-8.2v-12.1h-3.6c-0.2-1.7-0.2-3.6,0-5.2l3.6-0.2v-6.5c1.8-0.2,5.3-0.2,7,0v6.4h6.7c0.2,1.7,0.2,3.9,0,5.6
	L306.4,192.2L306.4,192.2z M331.2,208.4h-0.3c-0.9,3.1-3.9,4.1-7.9,4.1c-4.8,0-8.3-1.9-8.3-7.3v-18.6c1.7-0.2,5.3-0.2,7,0V202
	c0,3.9,1.8,4.5,4.2,4.5c3,0,4.2-0.8,4.9-3.5v-16.4c1.7-0.2,5.3-0.2,7,0V212c-1.6,0.2-4.6,0.2-6.2,0L331.2,208.4z M342,186.4
	c2.1-0.1,4.1-0.1,6.2,0l0.4,4.2h0.3c0.8-3.3,4-4.7,8.4-4.7c0.2,1.7,0.2,4.4,0,6.1c-5.5,0-7.1,1.1-8.4,4.7v15.2c-1.7,0.2-5.3,0.2-7,0
	v-25.5H342z M380.3,201.3c-3.3,0.2-10.8,0.3-15,0v1.2c0,3.5,2,4.1,6.2,4.1c2.9,0,4.9-0.2,7.7-0.8c0.2,1.7,0.2,4,0,5.7
	c-3.4,0.6-6.2,0.9-9.4,0.9c-7.1,0-11.5-2.1-11.5-8.3v-9.8c0-6.5,4.7-8.4,11.2-8.4s10.8,2.7,10.8,9.8L380.3,201.3L380.3,201.3z
	 M373.5,195.4c0-3.3-1.9-3.7-4.1-3.7s-4.1,0.4-4.1,3.7v1.9l3.8-0.2h4.4L373.5,195.4L373.5,195.4z M400.7,205.9
	c0,4.8-3.7,6.6-9.8,6.6c-2.6,0-5.6-0.2-8.4-0.7c-0.2-1.8-0.2-3.8,0-5.5c2.6,0.4,5.3,0.6,7.3,0.6s3.8-0.1,3.8-1.8v-0.9
	c0-1.4-1-1.7-2.6-2.1l-4.4-1.3c-2.8-0.8-4.3-2.5-4.3-5.8v-2.7c0-4.6,3.9-6.4,10.1-6.4c2.4,0,5,0.2,7.8,0.8c0.2,1.8,0.2,3.7,0,5.4
	c-3-0.5-4.9-0.7-7.1-0.7c-2.1,0-3.9,0.1-3.9,1.8v0.9c0,1.2,1.1,1.7,2.6,2.1l4.1,1.1c3,0.8,4.6,2.4,4.6,6.1v2.5H400.7z"/>
<path class="st1" d="M348.3,90.2L261.1,5.6C257.4,2,252.4,0,247.3,0c-5.3,0-10.3,2.1-14,5.8L185,54c-5,5-13,5-18,0L119.3,6.3
	c-3.2-3.2-7.4-5.4-11.9-5.9c-6.1-0.7-12,1.4-16.3,5.6L11.3,85.4l-8.5,8.5l0,0l8.5,8.5l27.5,27.5c4.4,4.4,10.1,7.3,16.3,7.8
	c7.6,0.6,14.9-2.1,20.3-7.4l40.2-39.8l0,0l49.2,52.7c7.1,7.5,19.2,7.4,26.2-0.2l48.9-54.7l0,0l46.5,44.1l0,0
	c6.2,5,15.3,4.6,20.9-1.1L348.3,90.2L348.3,90.2z M152,56l-3.8-0.9c-1.6-0.4-3.2-0.5-4.8-0.5c-5.7,0-11.3,2.3-15.4,6.4l-61.1,60.7
	c-2.7,2.7-6.1,4-9.6,4s-7-1.3-9.6-4L19.8,93.8l0,0l79.8-79.4c1.5-1.5,3.5-2.3,5.5-2.3s3.9,0.8,5.5,2.3L152,56L152,56z M282,42.7
	L282,42.7c-0.3-0.1-11.8-3.2-19.6,4.6l-1.3,1.3l0,0l-37,37c-1.5,1.5-3.3,2.6-5.1,3.4c-1.9,0.8-3.8,1.1-5.8,1.1c-1.9,0-3.7-0.3-5.5-1
	c-2-0.8-3.9-1.9-5.5-3.5l-15.9-15.9l55.4-55.4c0.2-0.2,0.4-0.4,0.6-0.5c0.1-0.1,0.1-0.1,0.2-0.1c0.1-0.1,0.3-0.2,0.4-0.3
	c0.1-0.1,0.2-0.1,0.2-0.1c0.1-0.1,0.3-0.2,0.4-0.3c0.1,0,0.2-0.1,0.3-0.1c0.1-0.1,0.3-0.1,0.4-0.2c0.1,0,0.2-0.1,0.3-0.1
	c0.1-0.1,0.3-0.1,0.4-0.1c0.1,0,0.2-0.1,0.3-0.1s0.3-0.1,0.4-0.1c0.1,0,0.2,0,0.3,0s0.3,0,0.4-0.1c0.1,0,0.2,0,0.3,0s0.3,0,0.4,0
	l0,0c0.1,0,0.2,0,0.4,0c0.1,0,0.2,0,0.3,0s0.3,0,0.4,0.1c0.1,0,0.2,0,0.3,0s0.3,0.1,0.4,0.1c0.1,0,0.2,0,0.3,0.1
	c0.1,0,0.3,0.1,0.4,0.1c0.1,0,0.2,0.1,0.3,0.1c0.1,0.1,0.3,0.1,0.4,0.2c0.1,0,0.2,0.1,0.3,0.1c0.1,0.1,0.3,0.2,0.4,0.2
	c0.1,0,0.2,0.1,0.2,0.1c0.1,0.1,0.3,0.2,0.4,0.3c0.1,0,0.1,0.1,0.2,0.1c0.2,0.2,0.4,0.3,0.6,0.5L282,42.7L282,42.7L282,42.7z
	 M402.8,37.3l-43.1,43.1l-46.9-46.9l26.1-26.1c9.4-9.4,24.6-9.4,33.9,0L402.8,37.3z M24.6,187.2l-6.3,11.9c-1.8,0.2-3.2,0.2-5,0
	l-6.3-12v20.8c-2,0.2-5,0.2-7.2,0v-33.1c2.1-0.2,5.5-0.2,7.5,0l8.5,16.3l8.5-16.3c2.1-0.2,5.4-0.2,7.4,0v33.1c-2,0.2-5.1,0.2-7.2,0
	v-20.7H24.6z M52.2,204.4h-0.3c-0.9,3.1-3.9,4.1-7.9,4.1c-4.8,0-8.3-1.9-8.3-7.3v-18.6c1.7-0.2,5.3-0.2,7,0V198
	c0,3.9,1.8,4.5,4.2,4.5c3,0,4.2-0.8,4.9-3.5v-16.4c1.7-0.2,5.3-0.2,7,0V208c-1.6,0.2-4.6,0.2-6.2,0L52.2,204.4z M63,172.8
	c1.7-0.2,5.3-0.2,7,0v35.1c-1.7,0.2-5.3,0.2-7,0V172.8z M82.4,188.2v9.7c0,4.4,1.9,4.7,3.7,4.7c1,0,2.1-0.1,2.9-0.3
	c0.2,1.7,0.2,4.2,0,5.8c-1.6,0.3-3.1,0.4-4.9,0.4c-4.6,0-8.8-1.9-8.8-8.2v-12.1h-3.6c-0.2-1.7-0.2-3.6,0-5.2l3.6-0.2v-6.5
	c1.8-0.2,5.3-0.2,7,0v6.4H89c0.2,1.7,0.2,3.9,0,5.6L82.4,188.2L82.4,188.2z M98.3,178.7c-1.7,0.2-5.6,0.2-7.3,0l-0.1-5.6
	c1.8-0.2,5.8-0.2,7.6,0L98.3,178.7z M91.1,182.6c1.7-0.2,5.3-0.2,7,0v25.3c-1.7,0.2-5.3,0.2-7,0V182.6z M101.6,190.2
	c0-6.4,4.3-8.3,10.8-8.3c2.5,0,5,0.1,7.7,0.7c0.2,1.8,0.2,4.1,0,5.8c-2.2-0.4-3.8-0.6-6.4-0.6c-2.7,0-5.2,0.4-5.2,3.9v7.1
	c0,3.4,2.5,3.8,5.2,3.8c2.6,0,4.1-0.2,6.4-0.7c0.2,1.7,0.2,4.1,0,5.7c-2.7,0.6-5.2,0.9-7.7,0.9c-6.6,0-10.8-2.1-10.8-8.2V190.2z
	 M139.2,192.4c0-4-1.8-4.5-4.3-4.5c-3,0-4.1,0.7-4.9,3.5v16.5c-1.7,0.2-5.3,0.2-7,0v-35.1c1.7-0.2,5.3-0.2,7,0v9.2l-0.3,4.2h0.3
	c0.9-3.1,3.9-4.2,7.9-4.2c4.8,0,8.3,1.9,8.3,7.3V208c-1.8,0.2-5.3,0.2-7,0V192.4z M164.6,204.4h-0.3c-0.8,3-3.8,4.1-7.7,4.1
	c-4.6,0-8.2-2-8.2-7.3c0-6.8,3.8-8.3,9.2-8.3c2.4,0,4.3,0.2,6.7,0.5v-1.8c0-2.5-1.5-3.9-6.5-3.9c-2,0-4.4,0.2-7.3,0.7
	c-0.2-1.8-0.2-3.8,0-5.6c3.4-0.6,6.4-0.8,9.4-0.8c7.5,0,11.4,2.1,11.4,8.1v18.1c-1.6,0.2-4.6,0.2-6.2,0L164.6,204.4z M164.2,197.8
	c-1.6-0.3-3.2-0.5-4.4-0.5c-2.8,0-4.5,0.3-4.5,3c0,2.5,1.7,2.8,3.8,2.8c2.6,0,4-0.8,5-2.7L164.2,197.8L164.2,197.8z M182,178.7
	c-1.7,0.2-5.6,0.2-7.3,0l-0.1-5.6c1.8-0.2,5.8-0.2,7.6,0L182,178.7z M174.8,182.6c1.7-0.2,5.3-0.2,7,0v25.3c-1.7,0.2-5.3,0.2-7,0
	V182.6z M202.2,192.4c0-4-1.8-4.5-4.3-4.5c-3,0-4.1,0.7-4.9,3.5v16.5c-1.7,0.2-5.3,0.2-7,0v-25.5c1.6-0.2,4.6-0.2,6.2,0l0.4,3.7h0.3
	c0.9-3.1,3.9-4.2,7.9-4.2c4.8,0,8.3,1.9,8.3,7.3v18.7c-1.8,0.2-5.3,0.2-7,0v-15.5H202.2z M218.7,174.8c2.1-0.2,5.4-0.2,7.4,0l7.1,23
	l7-23c2.1-0.2,5.2-0.2,7.2,0l-10.8,33.1c-2.1,0.2-4.7,0.2-6.7,0L218.7,174.8z M268,197.3c-3.3,0.2-10.8,0.3-15,0v1.2
	c0,3.5,2,4.1,6.2,4.1c2.9,0,4.9-0.2,7.7-0.8c0.2,1.7,0.2,4,0,5.7c-3.4,0.6-6.2,0.9-9.4,0.9c-7.1,0-11.5-2.1-11.5-8.3v-9.8
	c0-6.5,4.7-8.4,11.2-8.4c6.5,0,10.8,2.7,10.8,9.8L268,197.3L268,197.3z M261.2,191.4c0-3.3-1.9-3.7-4.1-3.7s-4.1,0.4-4.1,3.7v1.9
	l3.8-0.2h4.4L261.2,191.4L261.2,191.4z M287.4,192.4c0-4-1.8-4.5-4.3-4.5c-3,0-4.1,0.7-4.9,3.5v16.5c-1.7,0.2-5.3,0.2-7,0v-25.5
	c1.6-0.2,4.6-0.2,6.2,0l0.4,3.7h0.3c0.9-3.1,3.9-4.2,7.9-4.2c4.8,0,8.3,1.9,8.3,7.3v18.7c-1.8,0.2-5.3,0.2-7,0v-15.5H287.4z
	 M306.4,188.2v9.7c0,4.4,1.9,4.7,3.7,4.7c1,0,2.1-0.1,2.9-0.3c0.2,1.7,0.2,4.2,0,5.8c-1.6,0.3-3.1,0.4-4.9,0.4
	c-4.6,0-8.8-1.9-8.8-8.2v-12.1h-3.6c-0.2-1.7-0.2-3.6,0-5.2l3.6-0.2v-6.5c1.8-0.2,5.3-0.2,7,0v6.4h6.7c0.2,1.7,0.2,3.9,0,5.6
	L306.4,188.2L306.4,188.2z M331.2,204.4h-0.3c-0.9,3.1-3.9,4.1-7.9,4.1c-4.8,0-8.3-1.9-8.3-7.3v-18.6c1.7-0.2,5.3-0.2,7,0V198
	c0,3.9,1.8,4.5,4.2,4.5c3,0,4.2-0.8,4.9-3.5v-16.4c1.7-0.2,5.3-0.2,7,0V208c-1.6,0.2-4.6,0.2-6.2,0L331.2,204.4z M342,182.4
	c2.1-0.1,4.1-0.1,6.2,0l0.4,4.2h0.3c0.8-3.3,4-4.7,8.4-4.7c0.2,1.7,0.2,4.4,0,6.1c-5.5,0-7.1,1.1-8.4,4.7v15.2c-1.7,0.2-5.3,0.2-7,0
	v-25.5H342z M380.3,197.3c-3.3,0.2-10.8,0.3-15,0v1.2c0,3.5,2,4.1,6.2,4.1c2.9,0,4.9-0.2,7.7-0.8c0.2,1.7,0.2,4,0,5.7
	c-3.4,0.6-6.2,0.9-9.4,0.9c-7.1,0-11.5-2.1-11.5-8.3v-9.8c0-6.5,4.7-8.4,11.2-8.4s10.8,2.7,10.8,9.8L380.3,197.3L380.3,197.3z
	 M373.5,191.4c0-3.3-1.9-3.7-4.1-3.7s-4.1,0.4-4.1,3.7v1.9l3.8-0.2h4.4L373.5,191.4L373.5,191.4z M400.7,201.9
	c0,4.8-3.7,6.6-9.8,6.6c-2.6,0-5.6-0.2-8.4-0.7c-0.2-1.8-0.2-3.8,0-5.5c2.6,0.4,5.3,0.6,7.3,0.6s3.8-0.1,3.8-1.8v-0.9
	c0-1.4-1-1.7-2.6-2.1l-4.4-1.3c-2.8-0.8-4.3-2.5-4.3-5.8v-2.7c0-4.6,3.9-6.4,10.1-6.4c2.4,0,5,0.2,7.8,0.8c0.2,1.8,0.2,3.7,0,5.4
	c-3-0.5-4.9-0.7-7.1-0.7c-2.1,0-3.9,0.1-3.9,1.8v0.9c0,1.2,1.1,1.7,2.6,2.1l4.1,1.1c3,0.8,4.6,2.4,4.6,6.1v2.5H400.7z"/>
</svg>
