<?xml version="1.0" encoding="utf-8"?>
<!-- Generator: Adobe Illustrator 24.0.0, SVG Export Plug-In . SVG Version: 6.00 Build 0)  -->
<svg version="1.1" id="Layer_1" xmlns="http://www.w3.org/2000/svg" xmlns:xlink="http://www.w3.org/1999/xlink" x="0px" y="0px"
	 viewBox="0 0 1801.19 173.71" style="enable-background:new 0 0 1801.19 173.71;" xml:space="preserve">
<style type="text/css">
	.st0{display:none;opacity:0.15;}
	.st1{display:inline;fill:#FFFFFF;}
	.st2{display:inline;}
	.st3{display:none;fill:#FFFFFF;}
	.st4{fill:#1D2339;}
	.st5{enable-background:new    ;}
</style>
<g class="st0">
	<path class="st1" d="M113.58,105.22c1.38,1.22,2.12,1.76,2.73,2.43c13.21,14.43,26.39,28.88,39.63,43.29
		c1.97,2.15,4.05,4.25,6.32,6.06c8.99,7.17,20.27,3.45,25.9-2.59c9.76-10.48,19.19-21.26,28.82-31.86c4.45-4.9,8.98-9.74,13.6-14.48
		c2.58-2.65,2.83-2.72,5.74-0.42c7.72,6.11,15.33,12.34,22.93,18.6c5.35,4.4,10.55,8.97,15.92,13.35c3.34,2.72,6.92,5.15,10.3,7.82
		c6.86,5.43,15.71,6.13,23.3,1.78c2.8-1.61,5.66-3.11,8.45-4.74c2.1-1.23,4.39-2.3,6.12-3.94c8.41-7.92,16.67-15.99,24.96-24.04
		c0.62-0.61,1.02-1.45,1.75-2.52c-1.73-1.9-3.33-3.73-5.01-5.49c-11.62-12.12-23.44-24.06-34.86-36.37
		c-11.5-12.4-23.72-24.09-34.51-37.21c-6.69-8.13-15.27-14.76-23.39-21.6c-2.26-1.91-5.86-2.65-8.95-2.98
		c-1.58-0.17-3.52,1.57-5.06,2.77c-9.49,7.38-18.51,15.26-27.12,23.69c-10,9.8-20.58,19.02-31.01,28.38
		c-4.36,3.91-8.71,3.77-13.25-0.09c-2.23-1.9-4.44-3.81-6.58-5.8c-8.92-8.27-17.67-16.73-26.74-24.83
		c-8.84-7.89-17.97-15.46-27.05-23.08c-0.83-0.69-2.26-1.16-3.3-1.01c-4.44,0.67-8.63,1.91-11.74,5.62
		c-1.57,1.87-3.64,3.31-5.47,4.97C57.41,46.97,29.73,73.96,2.82,101.74c-0.92,0.95-1.59,2.12-2.82,3.78
		c1.55,1.24,2.97,2.19,4.16,3.37c9.97,9.85,20.04,19.62,29.77,29.7c4.07,4.22,7.81,8.56,13.32,11.11
		c6.17,2.85,15.79,1.43,20.28-3.01c9.84-9.73,19.74-19.41,29.92-28.79C102.4,113.36,108.03,109.55,113.58,105.22z M309.94,45.99
		c1.54,1.63,2.63,2.88,3.82,4.04c12.27,11.91,24.54,23.82,36.86,35.69c3.77,3.63,7.65,7.16,11.56,10.65c2.73,2.43,3.83,2.46,6.3,0.1
		c12.49-11.9,24.95-23.84,37.4-35.78c0.86-0.83,1.55-1.84,2.66-3.16c-2.54-2.48-4.91-4.85-7.33-7.16
		c-6.14-5.84-12.24-11.7-18.47-17.44c-4.76-4.38-9.61-8.67-14.57-12.8c-1.48-1.23-3.4-2.19-5.27-2.64
		c-3.43-0.83-6.96-1.38-10.48-1.72c-5.57-0.54-10.76,0.64-15.02,4.52c-7.86,7.16-15.67,14.37-23.47,21.59
		C312.69,42.99,311.59,44.26,309.94,45.99z"/>
	<path class="st2" d="M113.58,105.22c-5.55,4.33-11.18,8.14-16.12,12.69c-10.18,9.37-20.08,19.06-29.92,28.79
		c-4.49,4.44-14.12,5.86-20.28,3.01c-5.51-2.55-9.25-6.89-13.32-11.11c-9.73-10.08-19.8-19.85-29.77-29.7
		c-1.19-1.18-2.62-2.13-4.16-3.37c1.23-1.66,1.91-2.84,2.82-3.78C29.73,73.96,57.41,46.97,86,20.92c1.82-1.66,3.9-3.1,5.47-4.97
		c3.11-3.71,7.3-4.95,11.74-5.62c1.04-0.16,2.48,0.31,3.3,1.01c9.08,7.62,18.21,15.18,27.05,23.08c9.07,8.1,17.82,16.55,26.74,24.83
		c2.14,1.99,4.35,3.91,6.58,5.8c4.54,3.86,8.89,4.01,13.25,0.09c10.43-9.36,21.01-18.58,31.01-28.38
		c8.6-8.43,17.63-16.31,27.12-23.69c1.53-1.19,3.48-2.94,5.06-2.77c3.09,0.33,6.69,1.08,8.95,2.98c8.12,6.84,16.7,13.48,23.39,21.6
		C286.46,48,298.67,59.7,310.17,72.1c11.42,12.31,23.23,24.25,34.86,36.37c1.68,1.75,3.28,3.59,5.01,5.49
		c-0.73,1.07-1.12,1.91-1.75,2.52c-8.28,8.05-16.55,16.12-24.96,24.04c-1.74,1.64-4.03,2.71-6.12,3.94
		c-2.79,1.63-5.65,3.13-8.45,4.74c-7.58,4.35-16.44,3.64-23.3-1.78c-3.38-2.68-6.96-5.1-10.3-7.82
		c-5.37-4.37-10.57-8.95-15.92-13.35c-7.6-6.25-15.21-12.49-22.93-18.6c-2.9-2.3-3.16-2.23-5.74,0.42
		c-4.62,4.75-9.15,9.58-13.6,14.48c-9.63,10.6-19.06,21.39-28.82,31.86c-5.63,6.04-16.91,9.76-25.9,2.59
		c-2.27-1.81-4.35-3.91-6.32-6.06c-13.24-14.4-26.42-28.86-39.63-43.29C115.7,106.99,114.96,106.44,113.58,105.22z M150.57,68.69
		c-0.54-0.78-0.87-1.46-1.38-1.96c-10.28-10.18-20.53-20.41-32.21-29.02c-4.07-3-8.4-5.65-12.7-8.32c-2.37-1.48-4.63-1.1-6.71,0.89
		c-6.9,6.59-13.82,13.15-20.79,19.65c-12.26,11.43-24.59,22.8-36.86,34.23c-7.09,6.61-14.11,13.28-21.14,19.95
		c-0.51,0.48-0.79,1.2-1.07,1.65c4.38,4.98,8.43,9.8,12.72,14.4c4.5,4.82,9.07,9.61,13.9,14.09c4.37,4.05,10.03,5.61,15.67,0.55
		c8.7-7.82,17.61-15.4,26.14-23.4c13.68-12.82,27.08-25.94,40.71-38.81c3.94-3.72,8.81-5.57,14.37-4.99
		C144.24,67.91,147.24,68.3,150.57,68.69z M183.94,79.97c0.66,1.08,0.87,1.7,1.29,2.08c5.95,5.35,11.75,10.88,17.96,15.92
		c5.1,4.14,11.86,4.23,16.15,0.57c5.93-5.05,11.76-10.23,17.42-15.58c8.5-8.04,16.75-16.34,25.26-24.37
		c1.6-1.51,3.81-2.83,5.93-3.24c3.67-0.71,7.49-0.63,11.22-0.88c-0.16-0.19-0.58-0.79-1.1-1.29c-4.68-4.45-9.42-8.84-14.05-13.34
		c-4.61-4.48-9.14-9.03-14.54-12.6c-1.64-1.08-3.16-1.89-5.02-0.47c-4.88,3.72-9.96,7.19-14.63,11.15
		c-5.75,4.88-11.15,10.16-16.71,15.26C203.48,62.04,193.84,70.88,183.94,79.97z"/>
	<path class="st2" d="M309.94,45.99c1.65-1.72,2.75-2.99,3.98-4.13c7.8-7.22,15.61-14.44,23.47-21.59
		c4.26-3.88,9.45-5.06,15.02-4.52c3.52,0.34,7.05,0.89,10.48,1.72c1.87,0.45,3.79,1.41,5.27,2.64c4.97,4.14,9.82,8.42,14.57,12.8
		c6.23,5.74,12.33,11.61,18.47,17.44c2.43,2.31,4.79,4.67,7.33,7.16c-1.11,1.33-1.8,2.33-2.66,3.16
		c-12.45,11.95-24.91,23.88-37.4,35.78c-2.48,2.36-3.57,2.34-6.3-0.1c-3.91-3.49-7.79-7.01-11.56-10.65
		c-12.32-11.86-24.59-23.78-36.86-35.69C312.57,48.87,311.48,47.62,309.94,45.99z"/>
	<path class="st1" d="M150.57,68.69c-3.34-0.39-6.34-0.78-9.34-1.09c-5.56-0.58-10.42,1.27-14.37,4.99
		c-13.64,12.87-27.03,25.99-40.71,38.81c-8.53,7.99-17.44,15.58-26.14,23.4c-5.64,5.06-11.3,3.5-15.67-0.55
		c-4.83-4.48-9.4-9.26-13.9-14.09c-4.29-4.6-8.34-9.42-12.72-14.4c0.29-0.45,0.57-1.17,1.07-1.65c7.02-6.67,14.05-13.34,21.14-19.95
		c12.26-11.43,24.59-22.79,36.86-34.23c6.98-6.5,13.9-13.06,20.79-19.65c2.08-1.99,4.33-2.37,6.71-0.89
		c4.29,2.68,8.63,5.33,12.7,8.32c11.69,8.6,21.93,18.84,32.21,29.02C149.7,67.23,150.03,67.91,150.57,68.69z"/>
	<path class="st1" d="M183.94,79.97c9.91-9.09,19.54-17.94,29.18-26.78c5.56-5.1,10.96-10.38,16.71-15.26
		c4.67-3.96,9.76-7.43,14.63-11.15c1.86-1.42,3.39-0.61,5.02,0.47c5.4,3.57,9.93,8.12,14.54,12.6c4.63,4.5,9.37,8.88,14.05,13.34
		c0.52,0.49,0.93,1.09,1.1,1.29c-3.73,0.25-7.55,0.17-11.22,0.88c-2.12,0.41-4.33,1.73-5.93,3.24
		c-8.51,8.03-16.76,16.33-25.26,24.37c-5.66,5.35-11.49,10.53-17.42,15.58c-4.29,3.66-11.05,3.57-16.15-0.57
		c-6.21-5.03-12.01-10.57-17.96-15.92C184.8,81.67,184.59,81.05,183.94,79.97z"/>
</g>
<path class="st3" d="M149.21,68.86l-3.77-0.85c-7.3-1.65-14.94,0.56-20.23,5.85l-61.13,60.72c-5.31,5.31-13.91,5.31-19.21,0
	l-27.89-27.89l79.79-79.38c3.01-3.01,7.89-3.01,10.9,0L149.21,68.86z"/>
<path class="st3" d="M279.21,55.55c0,0-11.65-3.35-19.63,4.63l-38.3,38.3c-6.04,6.04-15.83,6.04-21.86,0l-15.94-15.94l55.39-55.39
	c3.03-3.03,7.94-3.07,11.02-0.08L279.21,55.55z"/>
<path class="st4" d="M345.49,103.01l-87.24-84.54c-3.7-3.6-8.66-5.61-13.83-5.61c-5.26,0-10.31,2.09-14.04,5.81l-48.2,48.2
	c-4.97,4.97-13.02,4.97-17.98,0l-47.76-47.76c-3.21-3.21-7.38-5.41-11.89-5.93c-6.12-0.7-12,1.37-16.27,5.64L8.48,98.2L0,106.69
	c0,0,0,0,0,0l8.48,8.48l27.54,27.54c4.38,4.38,10.11,7.25,16.28,7.75c7.63,0.62,14.92-2.07,20.25-7.41l40.22-39.81c0,0,0,0,0,0
	l49.23,52.69c7.14,7.52,19.16,7.43,26.18-0.2l48.87-54.72c0,0,0,0,0,0l46.48,44.11c0,0,0,0,0,0c6.22,5.05,15.25,4.58,20.92-1.09
	L345.49,103.01C345.5,103.01,345.5,103.01,345.49,103.01z M149.2,68.86l-3.76-0.85c-1.59-0.36-3.21-0.54-4.8-0.54
	c-5.72,0-11.29,2.25-15.42,6.39l-61.13,60.72c-2.65,2.65-6.13,3.98-9.61,3.98s-6.95-1.33-9.61-3.98l-27.89-27.89c0,0,0,0,0,0
	l79.79-79.38c1.51-1.51,3.48-2.26,5.45-2.26s3.95,0.75,5.45,2.26L149.2,68.86C149.2,68.85,149.2,68.86,149.2,68.86z M279.2,55.55
	l-0.01-0.01c-0.34-0.09-11.75-3.22-19.61,4.63l-1.3,1.3c0,0,0,0-0.01,0.01l-37,37c-1.51,1.51-3.25,2.64-5.11,3.4
	c-1.86,0.75-3.84,1.13-5.82,1.13c-1.85,0-3.7-0.34-5.45-1c-2-0.75-3.87-1.92-5.48-3.52l-15.94-15.94l55.39-55.39
	c0.19-0.19,0.39-0.37,0.59-0.54c0.06-0.05,0.13-0.09,0.19-0.14c0.14-0.11,0.29-0.22,0.44-0.32c0.08-0.05,0.16-0.09,0.24-0.14
	c0.14-0.09,0.28-0.18,0.43-0.25c0.09-0.05,0.18-0.08,0.27-0.13c0.14-0.07,0.28-0.14,0.42-0.19c0.1-0.04,0.2-0.07,0.3-0.11
	c0.14-0.05,0.28-0.1,0.42-0.15c0.1-0.03,0.21-0.05,0.31-0.08c0.14-0.04,0.28-0.08,0.42-0.1c0.11-0.02,0.22-0.03,0.33-0.05
	c0.14-0.02,0.28-0.05,0.42-0.06c0.11-0.01,0.23-0.01,0.34-0.02c0.14-0.01,0.27-0.02,0.41-0.02c0.01,0,0.02,0,0.03,0
	c0.12,0,0.25,0.01,0.37,0.02c0.12,0.01,0.23,0.01,0.34,0.02c0.14,0.01,0.27,0.04,0.41,0.06c0.11,0.02,0.22,0.03,0.33,0.05
	c0.14,0.03,0.28,0.06,0.41,0.1c0.1,0.03,0.21,0.05,0.31,0.08c0.14,0.04,0.28,0.09,0.41,0.14c0.1,0.03,0.2,0.06,0.3,0.1
	c0.14,0.06,0.28,0.13,0.42,0.19c0.09,0.04,0.18,0.08,0.27,0.12c0.14,0.07,0.28,0.16,0.42,0.24c0.08,0.05,0.16,0.09,0.24,0.14
	c0.15,0.09,0.29,0.2,0.43,0.31c0.07,0.05,0.14,0.09,0.2,0.15c0.2,0.16,0.4,0.34,0.59,0.52L279.2,55.55
	C279.21,55.55,279.2,55.55,279.2,55.55C279.2,55.55,279.2,55.55,279.2,55.55z M399.94,50.12l-43.1,43.1l-46.91-46.91l26.13-26.13
	c9.37-9.37,24.57-9.37,33.94,0L399.94,50.12z"/>
<g class="st5">
	<path class="st4" d="M543.47,73.85l-20.98,39.82c-5.9,0.66-10.82,0.66-16.72,0l-21.14-40.15v69.65c-6.72,0.66-16.88,0.66-23.93,0
		V32.38c7.05-0.66,18.52-0.66,25.24,0l28.35,54.41l28.35-54.41c6.88-0.66,18.03-0.66,24.75,0v110.78c-6.72,0.66-17.04,0.66-23.93,0
		V73.85z"/>
	<path class="st4" d="M635.74,131.37h-0.98c-2.95,10.32-12.95,13.76-26.55,13.76c-15.9,0-27.7-6.23-27.7-24.25V58.77
		c5.74-0.82,17.86-0.82,23.43,0v51.3c0,13.11,6.06,15.08,14.09,15.08c10.16,0,13.93-2.79,16.55-11.63V58.77
		c5.74-0.82,17.86-0.82,23.44,0v84.89c-5.41,0.82-15.41,0.82-20.81,0L635.74,131.37z"/>
	<path class="st4" d="M672.29,25.67c5.57-0.82,17.7-0.82,23.43,0v117.5c-5.74,0.82-17.86,0.82-23.43,0V25.67z"/>
	<path class="st4" d="M737.35,77.12v32.45c0,14.58,6.39,15.57,12.45,15.57c3.44,0,6.88-0.33,9.83-0.98c0.82,5.57,0.82,13.93,0,19.5
		c-5.24,0.98-10.32,1.47-16.39,1.47c-15.4,0-29.34-6.23-29.34-27.53V77.12h-11.96c-0.82-5.57-0.82-11.96,0-17.54l11.96-0.82V37.14
		c5.9-0.66,17.7-0.66,23.44,0v21.3h22.29c0.82,5.57,0.82,13.11,0,18.68H737.35z"/>
	<path class="st4" d="M790.45,45.33c-5.74,0.82-18.68,0.82-24.58,0l-0.33-18.68c5.9-0.82,19.5-0.82,25.4,0L790.45,45.33z
		 M766.53,58.6c5.57-0.82,17.7-0.82,23.43,0v84.56c-5.74,0.82-17.86,0.82-23.43,0V58.6z"/>
	<path class="st4" d="M801.93,84.01c0-21.3,14.42-27.7,36.22-27.7c8.52,0,16.72,0.49,25.89,2.29c0.82,5.9,0.82,13.77,0,19.34
		c-7.38-1.31-12.78-1.97-21.31-1.97c-9.01,0-17.37,1.47-17.37,12.94v23.6c0,11.31,8.36,12.78,17.37,12.78
		c8.69,0,13.77-0.82,21.31-2.46c0.82,5.57,0.82,13.76,0,19.17c-9.18,2.13-17.37,3.11-25.89,3.11c-21.96,0-36.22-7.05-36.22-27.37
		V84.01z"/>
	<path class="st4" d="M927.63,91.38c0-13.27-5.9-15.08-14.26-15.08c-10.16,0-13.6,2.46-16.55,11.63v55.23
		c-5.74,0.82-17.86,0.82-23.43,0V25.67c5.57-0.82,17.7-0.82,23.43,0v30.65l-1.15,13.93h0.98c2.95-10.33,12.95-13.93,26.55-13.93
		c15.9,0,27.86,6.23,27.86,24.25v62.6c-5.9,0.82-17.7,0.82-23.43,0V91.38z"/>
	<path class="st4" d="M1012.69,131.37h-0.98c-2.62,10-12.78,13.76-25.89,13.76c-15.4,0-27.37-6.72-27.37-24.42
		c0-22.78,12.78-27.7,30.81-27.7c8.03,0,14.26,0.66,22.29,1.64V88.6c0-8.36-4.92-13.11-21.8-13.11c-6.55,0-14.58,0.66-24.25,2.29
		c-0.82-5.9-0.82-12.78,0-18.68c11.47-2.13,21.3-2.79,31.3-2.79c25.24,0,38.18,7.05,38.18,27.04v60.64c-5.41,0.82-15.4,0.82-20.81,0
		L1012.69,131.37z M1011.54,109.24c-5.24-0.98-10.82-1.64-14.58-1.64c-9.51,0-14.91,1.15-14.91,10.16c0,8.36,5.74,9.51,12.78,9.51
		c8.85,0,13.44-2.62,16.72-9.18V109.24z"/>
	<path class="st4" d="M1071.03,45.33c-5.74,0.82-18.68,0.82-24.58,0l-0.33-18.68c5.9-0.82,19.5-0.82,25.4,0L1071.03,45.33z
		 M1047.11,58.6c5.57-0.82,17.7-0.82,23.43,0v84.56c-5.74,0.82-17.86,0.82-23.43,0V58.6z"/>
	<path class="st4" d="M1139.05,91.38c0-13.27-5.9-15.08-14.26-15.08c-10.16,0-13.6,2.46-16.55,11.63v55.23
		c-5.74,0.82-17.86,0.82-23.43,0V57.95c5.41-0.66,15.4-0.66,20.81,0l1.47,12.29h0.98c2.95-10.33,12.95-13.93,26.55-13.93
		c15.9,0,27.86,6.23,27.86,24.25v62.6c-5.9,0.82-17.7,0.82-23.44,0V91.38z"/>
</g>
<g class="st5">
	<path class="st4" d="M1192.47,32.38c6.88-0.66,18.03-0.66,24.91,0l23.76,77.03l23.27-77.03c6.89-0.66,17.54-0.66,24.09,0
		l-36.22,110.78c-7.05,0.66-15.57,0.66-22.45,0L1192.47,32.38z"/>
</g>
<g class="st5">
	<path class="st4" d="M1357.69,107.77c-10.98,0.82-36.22,0.98-50.31,0.16v4.1c0,11.64,6.72,13.77,20.81,13.77
		c9.67,0,16.55-0.82,25.73-2.62c0.66,5.57,0.66,13.44,0,19.01c-11.47,1.97-20.65,2.95-31.47,2.95c-23.6,0-38.51-7.05-38.51-27.86
		V84.5c0-21.79,15.73-28.19,37.53-28.19c21.63,0,36.22,9.18,36.22,32.61V107.77z M1334.75,87.94c0-11.14-6.39-12.45-13.6-12.45
		c-7.21,0-13.77,1.31-13.77,12.45v6.39l12.62-0.82h14.75V87.94z"/>
	<path class="st4" d="M1422.76,91.38c0-13.27-5.9-15.08-14.26-15.08c-10.16,0-13.6,2.46-16.55,11.63v55.23
		c-5.74,0.82-17.86,0.82-23.44,0V57.95c5.41-0.66,15.4-0.66,20.81,0l1.48,12.29h0.98c2.95-10.33,12.94-13.93,26.55-13.93
		c15.89,0,27.86,6.23,27.86,24.25v62.6c-5.9,0.82-17.7,0.82-23.44,0V91.38z"/>
	<path class="st4" d="M1486.35,77.12v32.45c0,14.58,6.39,15.57,12.45,15.57c3.44,0,6.88-0.33,9.83-0.98c0.82,5.57,0.82,13.93,0,19.5
		c-5.25,0.98-10.33,1.47-16.39,1.47c-15.4,0-29.34-6.23-29.34-27.53V77.12h-11.96c-0.82-5.57-0.82-11.96,0-17.54l11.96-0.82V37.14
		c5.9-0.66,17.7-0.66,23.44,0v21.3h22.29c0.82,5.57,0.82,13.11,0,18.68H1486.35z"/>
	<path class="st4" d="M1569.28,131.37h-0.98c-2.95,10.32-12.95,13.76-26.55,13.76c-15.9,0-27.7-6.23-27.7-24.25V58.77
		c5.74-0.82,17.86-0.82,23.43,0v51.3c0,13.11,6.07,15.08,14.09,15.08c10.16,0,13.93-2.79,16.55-11.63V58.77
		c5.74-0.82,17.86-0.82,23.44,0v84.89c-5.41,0.82-15.4,0.82-20.81,0L1569.28,131.37z"/>
	<path class="st4" d="M1605.83,57.95c6.89-0.49,13.77-0.49,20.81,0l1.48,13.93h0.98c2.62-10.98,13.27-15.57,28.19-15.57
		c0.66,5.57,0.66,14.75,0,20.32c-18.52,0-23.6,3.77-28.02,15.57v50.97c-5.74,0.82-17.86,0.82-23.44,0V57.95z"/>
	<path class="st4" d="M1734.15,107.77c-10.98,0.82-36.22,0.98-50.31,0.16v4.1c0,11.64,6.72,13.77,20.81,13.77
		c9.67,0,16.55-0.82,25.73-2.62c0.65,5.57,0.65,13.44,0,19.01c-11.47,1.97-20.65,2.95-31.47,2.95c-23.6,0-38.51-7.05-38.51-27.86
		V84.5c0-21.79,15.73-28.19,37.53-28.19c21.63,0,36.22,9.18,36.22,32.61V107.77z M1711.21,87.94c0-11.14-6.39-12.45-13.6-12.45
		c-7.21,0-13.76,1.31-13.76,12.45v6.39l12.62-0.82h14.75V87.94z"/>
	<path class="st4" d="M1802.5,123.17c0,15.9-12.45,21.96-32.78,21.96c-8.69,0-18.68-0.66-28.03-2.29c-0.82-5.9-0.82-12.62,0-18.36
		c8.85,1.48,17.7,1.97,24.58,1.97c6.56,0,12.78-0.49,12.78-6.06v-3.11c0-4.75-3.28-5.57-8.85-7.05l-14.75-4.26
		c-9.34-2.62-14.42-8.52-14.42-19.34v-9.02c0-15.24,13.11-21.3,33.92-21.3c8.2,0,16.72,0.66,26.22,2.62c0.82,5.9,0.82,12.45,0,18.19
		c-10-1.8-16.39-2.3-23.6-2.3c-7.05,0-13.11,0.49-13.11,6.07v3.11c0,4.1,3.77,5.57,8.85,7.05l13.76,3.77
		c10.16,2.79,15.4,7.87,15.4,20.32V123.17z"/>
</g>
</svg>
