<svg xmlns="http://www.w3.org/2000/svg" viewBox="0 0 406.58 220.55"><defs><style>.cls-1,.cls-2{fill:#1d2339;}.cls-2{font-size:49px;font-family:Obvia-Medium, Obvia;font-weight:500;letter-spacing:-0.06em;}.cls-3{letter-spacing:-0.1em;}</style></defs><title>Asset 2</title><g id="Layer_2" data-name="Layer 2"><g id="Layer_1-2" data-name="Layer 1"><path class="cls-1" d="M352.13,90.16,264.89,5.61a19.86,19.86,0,0,0-27.87.2L188.82,54a12.74,12.74,0,0,1-18,0L123.07,6.25A20.22,20.22,0,0,0,111.18.33,19.64,19.64,0,0,0,94.91,6L15.12,85.35,6.64,93.83h0l8.48,8.49,27.54,27.54a26.23,26.23,0,0,0,16.28,7.76,25.5,25.5,0,0,0,20.26-7.41L119.41,90.4h0l49.22,52.69a17.92,17.92,0,0,0,26.19-.2L243.7,88.17h0l46.48,44.11h0a15.66,15.66,0,0,0,20.92-1.09l41-41ZM155.84,56l-3.77-.85A21.78,21.78,0,0,0,131.84,61L70.71,121.72a13.58,13.58,0,0,1-19.21,0L23.61,93.83h0l79.78-79.38a7.71,7.71,0,0,1,10.91,0L155.84,56Zm130-13.3h0c-.34-.09-11.76-3.22-19.61,4.63l-1.31,1.31h0l-37,37A15.47,15.47,0,0,1,217,90.16a15.65,15.65,0,0,1-10.93-4.53L190.12,69.69,245.51,14.3c.19-.19.39-.37.59-.54l.19-.14.44-.32.24-.14c.14-.09.28-.18.43-.26l.27-.12.42-.2.3-.1c.14-.05.28-.11.42-.15l.31-.08.42-.1.32-.05c.14,0,.28,0,.42-.06l.34,0,.41,0h0l.37,0h.34l.41.06a1.88,1.88,0,0,1,.33.05c.14,0,.27.06.41.09l.31.08.42.14.3.1.42.19.27.12c.14.07.28.16.42.24l.24.14.43.31a1.49,1.49,0,0,1,.2.15,5.88,5.88,0,0,1,.6.52L285.84,42.7h0Zm120.74-5.44-43.1,43.1-46.9-46.91L342.7,7.33a24,24,0,0,1,33.94,0Z"/><text class="cls-2" transform="translate(0 207.91)">Multichain <tspan class="cls-3" x="221.57" y="0">V</tspan><tspan x="246.91" y="0">entures</tspan></text></g></g></svg>