<svg xmlns="http://www.w3.org/2000/svg" viewBox="0 0 399.94 148.68"><defs><style>.cls-1{fill:#fff;}</style></defs><title>Asset 1</title><g id="Layer_2" data-name="Layer 2"><g id="Layer_1-2" data-name="Layer 1"><path class="cls-1" d="M345.5,90.16,258.25,5.61a19.85,19.85,0,0,0-27.86.2L182.18,54a12.72,12.72,0,0,1-18,0L116.43,6.25A20.16,20.16,0,0,0,104.54.33,19.64,19.64,0,0,0,88.27,6L8.48,85.35,0,93.83H0l8.48,8.49L36,129.86a26.2,26.2,0,0,0,16.28,7.76,25.47,25.47,0,0,0,20.25-7.41L112.78,90.4h0L162,143.09a17.91,17.91,0,0,0,26.18-.2l48.87-54.72h0l46.49,44.11h0a15.66,15.66,0,0,0,20.92-1.09l41-41ZM149.2,56l-3.76-.85A21.78,21.78,0,0,0,125.21,61L64.08,121.72a13.59,13.59,0,0,1-19.22,0L17,93.83h0L96.76,14.45a7.7,7.7,0,0,1,10.9,0L149.2,56Zm130-13.3h0c-.33-.09-11.75-3.22-19.61,4.63l-1.3,1.31h0l-37,37a15.52,15.52,0,0,1-10.93,4.53,15.65,15.65,0,0,1-10.93-4.53L183.48,69.69,238.87,14.3a7.7,7.7,0,0,1,.6-.54l.19-.14.44-.32.24-.14.42-.26.28-.12c.14-.07.27-.14.42-.2l.29-.1.42-.15.31-.08.42-.1.33-.05.42-.06.34,0,.4,0h0l.37,0h.35l.4.06a1.88,1.88,0,0,1,.33.05l.42.09.31.08.41.14.3.1.42.19.27.12.42.24.24.14.43.31.21.15a7.08,7.08,0,0,1,.59.52L279.21,42.7h0Zm120.74-5.44-43.09,43.1L309.94,33.45,336.07,7.33a24,24,0,0,1,33.94,0Z"/></g></g></svg>