<svg id="Layer_1" data-name="Layer 1" xmlns="http://www.w3.org/2000/svg" viewBox="0 0 399.94 148.68"><defs><style>.cls-1{fill:#1d2339;}</style></defs><title>mv-logo</title><path class="cls-1" d="M651.29,485.16,564,400.61a19.85,19.85,0,0,0-27.86.2L488,449a12.72,12.72,0,0,1-18,0l-47.77-47.77a20.16,20.16,0,0,0-11.89-5.92A19.64,19.64,0,0,0,394.06,401l-79.79,79.38-8.48,8.48h0l8.48,8.49,27.55,27.54a26.23,26.23,0,0,0,16.28,7.76,25.47,25.47,0,0,0,20.25-7.41l40.22-39.81h0l49.23,52.69a17.91,17.91,0,0,0,26.18-.2l48.87-54.72h0l46.48,44.11h0a15.66,15.66,0,0,0,20.92-1.09l41-41ZM455,451l-3.76-.85A21.78,21.78,0,0,0,431,456l-61.13,60.72a13.59,13.59,0,0,1-19.22,0l-27.89-27.89h0l79.79-79.38a7.7,7.7,0,0,1,10.9,0L455,451Zm130-13.3h0c-.33-.09-11.75-3.22-19.61,4.63l-1.3,1.31h0l-37,37a15.52,15.52,0,0,1-10.93,4.53,15.65,15.65,0,0,1-10.93-4.53l-15.94-15.94,55.39-55.39a7.7,7.7,0,0,1,.6-.54l.19-.14.44-.32.24-.14.42-.26.28-.12c.14-.07.27-.14.42-.2l.29-.1.42-.15.31-.08.42-.1.33,0c.14,0,.28-.05.42-.06l.34,0,.41,0h0l.37,0h.35l.4.06a1.88,1.88,0,0,1,.33.05l.42.09.31.08.41.14.3.1.42.19.27.12c.15.07.28.16.42.24l.25.14.42.31.21.15a7.08,7.08,0,0,1,.59.52L585,437.7h0Zm120.75-5.44-43.1,43.1-46.91-46.91,26.13-26.12a24,24,0,0,1,33.94,0Z" transform="translate(-305.79 -395)"/></svg>