<?xml version="1.0" encoding="utf-8"?>
<!-- Generator: Adobe Illustrator 24.2.1, SVG Export Plug-In . SVG Version: 6.00 Build 0)  -->
<svg version="1.1" id="Layer_1" xmlns="http://www.w3.org/2000/svg" xmlns:xlink="http://www.w3.org/1999/xlink" x="0px" y="0px"
	 viewBox="0 0 399.9 148.7" style="enable-background:new 0 0 399.9 148.7;" xml:space="preserve">
<path d="M345.5,90.2L258.2,5.6c-7.8-7.6-20.2-7.5-27.9,0.2L182.2,54c-5,5-13,5-18,0c0,0,0,0,0,0L116.4,6.2
	c-3.2-3.3-7.4-5.3-11.9-5.9c-6-0.7-12,1.4-16.3,5.7L8.5,85.4L0,93.9l0,0l8.5,8.5L36,129.9c4.3,4.4,10.1,7.2,16.3,7.8
	c7.5,0.7,14.9-2.1,20.3-7.4l40.2-39.8l0,0l49.2,52.7c6.8,7.2,18.1,7.5,25.3,0.7c0.3-0.3,0.6-0.6,0.9-0.9l48.9-54.7l0,0l46.5,44.1
	l0,0c6.2,5,15.3,4.6,20.9-1.1L345.5,90.2L345.5,90.2z M149.2,56l-3.8-0.9c-7.3-1.7-14.9,0.5-20.2,5.9l-61.1,60.7
	c-5.3,5.3-13.9,5.3-19.2,0c0,0,0,0,0,0L17,93.8l0,0l79.8-79.4c3-3,7.9-3,10.9,0c0,0,0,0,0,0L149.2,56z M279.2,42.7L279.2,42.7
	c-0.3-0.1-11.8-3.2-19.6,4.6l-1.3,1.3l0,0l-37,37c-2.9,2.9-6.8,4.5-10.9,4.5c-4.1,0-8-1.6-10.9-4.5l-15.9-15.9l55.4-55.4
	c0.2-0.2,0.4-0.4,0.6-0.5l0.2-0.1l0.4-0.3l0.2-0.1l0.4-0.3l0.3-0.1c0.1-0.1,0.3-0.1,0.4-0.2l0.3-0.1l0.4-0.1l0.3-0.1l0.4-0.1h0.3
	c0.1,0,0.3,0,0.4-0.1h0.3h0.4l0,0h0.4h0.3l0.4,0.1c0.1,0,0.2,0,0.3,0l0.4,0.1l0.3,0.1l0.4,0.1l0.3,0.1l0.4,0.2l0.3,0.1
	c0.2,0.1,0.3,0.2,0.4,0.2l0.3,0.1l0.4,0.3l0.2,0.1c0.2,0.2,0.4,0.3,0.6,0.5L279.2,42.7L279.2,42.7z M400,37.3l-43.1,43.1L310,33.5
	l26.1-26.1c9.4-9.4,24.6-9.4,33.9,0L400,37.3z"/>
</svg>
