<?xml version="1.0" encoding="utf-8"?>
<!-- Generator: Adobe Illustrator 24.2.3, SVG Export Plug-In . SVG Version: 6.00 Build 0)  -->
<svg version="1.1" id="Layer_1" xmlns="http://www.w3.org/2000/svg" xmlns:xlink="http://www.w3.org/1999/xlink" x="0px" y="0px"
	 viewBox="0 0 1801.2 173.7" style="enable-background:new 0 0 1801.2 173.7;" xml:space="preserve">
<style type="text/css">
	.st0{display:none;opacity:0.15;}
	.st1{display:inline;fill:#FFFFFF;}
	.st2{display:inline;}
	.st3{display:none;fill:#FFFFFF;}
	.st4{enable-background:new    ;}
</style>
<g class="st0">
	<path class="st1" d="M113.6,105.2c1.4,1.2,2.1,1.8,2.7,2.4c13.2,14.4,26.4,28.9,39.6,43.3c2,2.1,4.1,4.3,6.3,6.1
		c9,7.2,20.3,3.4,25.9-2.6c9.8-10.5,19.2-21.3,28.8-31.9c4.4-4.9,9-9.7,13.6-14.5c2.6-2.7,2.8-2.7,5.7-0.4
		c7.7,6.1,15.3,12.3,22.9,18.6c5.4,4.4,10.5,9,15.9,13.3c3.3,2.7,6.9,5.1,10.3,7.8c6.9,5.4,15.7,6.1,23.3,1.8
		c2.8-1.6,5.7-3.1,8.5-4.7c2.1-1.2,4.4-2.3,6.1-3.9c8.4-7.9,16.7-16,25-24c0.6-0.6,1-1.4,1.8-2.5c-1.7-1.9-3.3-3.7-5-5.5
		c-11.6-12.1-23.4-24.1-34.9-36.4c-11.5-12.4-23.7-24.1-34.5-37.2c-6.7-8.1-15.3-14.8-23.4-21.6c-2.3-1.9-5.9-2.6-8.9-3
		c-1.6-0.2-3.5,1.6-5.1,2.8c-9.5,7.4-18.5,15.3-27.1,23.7c-10,9.8-20.6,19-31,28.4c-4.4,3.9-8.7,3.8-13.3-0.1
		c-2.2-1.9-4.4-3.8-6.6-5.8c-8.9-8.3-17.7-16.7-26.7-24.8c-8.8-7.9-18-15.5-27.1-23.1c-0.8-0.7-2.3-1.2-3.3-1
		c-4.4,0.7-8.6,1.9-11.7,5.6c-1.6,1.9-3.6,3.3-5.5,5C57.4,47,29.7,74,2.8,101.7c-0.9,0.9-1.6,2.1-2.8,3.8c1.5,1.2,3,2.2,4.2,3.4
		c10,9.8,20,19.6,29.8,29.7c4.1,4.2,7.8,8.6,13.3,11.1c6.2,2.9,15.8,1.4,20.3-3c9.8-9.7,19.7-19.4,29.9-28.8
		C102.4,113.4,108,109.6,113.6,105.2z M309.9,46c1.5,1.6,2.6,2.9,3.8,4c12.3,11.9,24.5,23.8,36.9,35.7c3.8,3.6,7.6,7.2,11.6,10.7
		c2.7,2.4,3.8,2.5,6.3,0.1c12.5-11.9,25-23.8,37.4-35.8c0.9-0.8,1.5-1.8,2.7-3.2c-2.5-2.5-4.9-4.8-7.3-7.2
		c-6.1-5.8-12.2-11.7-18.5-17.4c-4.8-4.4-9.6-8.7-14.6-12.8c-1.5-1.2-3.4-2.2-5.3-2.6c-3.4-0.8-7-1.4-10.5-1.7
		c-5.6-0.5-10.8,0.6-15,4.5c-7.9,7.2-15.7,14.4-23.5,21.6C312.7,43,311.6,44.3,309.9,46z"/>
	<path class="st2" d="M113.6,105.2c-5.6,4.3-11.2,8.1-16.1,12.7c-10.2,9.4-20.1,19.1-29.9,28.8c-4.5,4.4-14.1,5.9-20.3,3
		c-5.5-2.6-9.3-6.9-13.3-11.1c-9.7-10.1-19.8-19.8-29.8-29.7c-1.2-1.2-2.6-2.1-4.2-3.4c1.2-1.7,1.9-2.8,2.8-3.8
		C29.7,74,57.4,47,86,20.9c1.8-1.7,3.9-3.1,5.5-5c3.1-3.7,7.3-4.9,11.7-5.6c1-0.2,2.5,0.3,3.3,1c9.1,7.6,18.2,15.2,27,23.1
		c9.1,8.1,17.8,16.5,26.7,24.8c2.1,2,4.4,3.9,6.6,5.8c4.5,3.9,8.9,4,13.3,0.1c10.4-9.4,21-18.6,31-28.4c8.6-8.4,17.6-16.3,27.1-23.7
		c1.5-1.2,3.5-2.9,5.1-2.8c3.1,0.3,6.7,1.1,8.9,3c8.1,6.8,16.7,13.5,23.4,21.6c10.8,13.1,23,24.8,34.5,37.2
		c11.4,12.3,23.2,24.3,34.9,36.4c1.7,1.8,3.3,3.6,5,5.5c-0.7,1.1-1.1,1.9-1.8,2.5c-8.3,8.1-16.5,16.1-25,24c-1.7,1.6-4,2.7-6.1,3.9
		c-2.8,1.6-5.6,3.1-8.5,4.7c-7.6,4.4-16.4,3.6-23.3-1.8c-3.4-2.7-7-5.1-10.3-7.8c-5.4-4.4-10.6-8.9-15.9-13.3
		c-7.6-6.3-15.2-12.5-22.9-18.6c-2.9-2.3-3.2-2.2-5.7,0.4c-4.6,4.8-9.1,9.6-13.6,14.5c-9.6,10.6-19.1,21.4-28.8,31.9
		c-5.6,6-16.9,9.8-25.9,2.6c-2.3-1.8-4.4-3.9-6.3-6.1c-13.2-14.4-26.4-28.9-39.6-43.3C115.7,107,115,106.4,113.6,105.2z M150.6,68.7
		c-0.5-0.8-0.9-1.5-1.4-2c-10.3-10.2-20.5-20.4-32.2-29c-4.1-3-8.4-5.7-12.7-8.3c-2.4-1.5-4.6-1.1-6.7,0.9
		c-6.9,6.6-13.8,13.1-20.8,19.6C64.5,61.4,52.2,72.7,39.9,84.2c-7.1,6.6-14.1,13.3-21.1,19.9c-0.5,0.5-0.8,1.2-1.1,1.7
		c4.4,5,8.4,9.8,12.7,14.4c4.5,4.8,9.1,9.6,13.9,14.1c4.4,4.1,10,5.6,15.7,0.6c8.7-7.8,17.6-15.4,26.1-23.4
		c13.7-12.8,27.1-25.9,40.7-38.8c3.9-3.7,8.8-5.6,14.4-5C144.2,67.9,147.2,68.3,150.6,68.7z M183.9,80c0.7,1.1,0.9,1.7,1.3,2.1
		c5.9,5.3,11.8,10.9,18,15.9c5.1,4.1,11.9,4.2,16.1,0.6c5.9-5.1,11.8-10.2,17.4-15.6c8.5-8,16.8-16.3,25.3-24.4
		c1.6-1.5,3.8-2.8,5.9-3.2c3.7-0.7,7.5-0.6,11.2-0.9c-0.2-0.2-0.6-0.8-1.1-1.3c-4.7-4.5-9.4-8.8-14-13.3s-9.1-9-14.5-12.6
		c-1.6-1.1-3.2-1.9-5-0.5c-4.9,3.7-10,7.2-14.6,11.1c-5.8,4.9-11.1,10.2-16.7,15.3C203.5,62,193.8,70.9,183.9,80z"/>
	<path class="st2" d="M309.9,46c1.6-1.7,2.8-3,4-4.1c7.8-7.2,15.6-14.4,23.5-21.6c4.3-3.9,9.5-5.1,15-4.5c3.5,0.3,7,0.9,10.5,1.7
		c1.9,0.5,3.8,1.4,5.3,2.6c5,4.1,9.8,8.4,14.6,12.8c6.2,5.7,12.3,11.6,18.5,17.4c2.4,2.3,4.8,4.7,7.3,7.2c-1.1,1.3-1.8,2.3-2.7,3.2
		c-12.5,11.9-24.9,23.9-37.4,35.8c-2.5,2.4-3.6,2.3-6.3-0.1c-3.9-3.5-7.8-7-11.6-10.7C338.3,73.8,326,61.9,313.8,50
		C312.6,48.9,311.5,47.6,309.9,46z"/>
	<path class="st1" d="M150.6,68.7c-3.3-0.4-6.3-0.8-9.3-1.1c-5.6-0.6-10.4,1.3-14.4,5c-13.6,12.9-27,26-40.7,38.8
		c-8.5,8-17.4,15.6-26.1,23.4c-5.6,5.1-11.3,3.5-15.7-0.6c-4.8-4.5-9.4-9.3-13.9-14.1c-4.3-4.6-8.3-9.4-12.7-14.4
		c0.3-0.4,0.6-1.2,1.1-1.7c7-6.7,14-13.3,21.1-19.9c12.3-11.4,24.6-22.8,36.9-34.2c7-6.5,13.9-13.1,20.8-19.6c2.1-2,4.3-2.4,6.7-0.9
		c4.3,2.7,8.6,5.3,12.7,8.3c11.7,8.6,21.9,18.8,32.2,29C149.7,67.2,150,67.9,150.6,68.7z"/>
	<path class="st1" d="M183.9,80c9.9-9.1,19.5-17.9,29.2-26.8c5.6-5.1,11-10.4,16.7-15.3c4.7-4,9.8-7.4,14.6-11.1
		c1.9-1.4,3.4-0.6,5,0.5c5.4,3.6,9.9,8.1,14.5,12.6s9.4,8.9,14,13.3c0.5,0.5,0.9,1.1,1.1,1.3c-3.7,0.3-7.5,0.2-11.2,0.9
		c-2.1,0.4-4.3,1.7-5.9,3.2c-8.5,8-16.8,16.3-25.3,24.4c-5.7,5.3-11.5,10.5-17.4,15.6c-4.3,3.7-11.1,3.6-16.1-0.6
		c-6.2-5-12-10.6-18-15.9C184.8,81.7,184.6,81.1,183.9,80z"/>
</g>
<path class="st3" d="M149.2,68.9l-3.8-0.8c-7.3-1.7-14.9,0.6-20.2,5.8l-61.1,60.7c-5.3,5.3-13.9,5.3-19.2,0L17,106.7l79.8-79.4
	c3-3,7.9-3,10.9,0L149.2,68.9z"/>
<path class="st3" d="M279.2,55.5c0,0-11.6-3.3-19.6,4.6l-38.3,38.3c-6,6-15.8,6-21.9,0l-15.9-15.9l55.4-55.4c3-3,7.9-3.1,11-0.1
	L279.2,55.5z"/>
<path d="M345.5,103l-87.2-84.5c-3.7-3.6-8.7-5.6-13.8-5.6c-5.3,0-10.3,2.1-14,5.8l-48.2,48.2c-5,5-13,5-18,0l-47.8-47.8
	c-3.2-3.2-7.4-5.4-11.9-5.9c-6.1-0.7-12,1.4-16.3,5.6L8.5,98.2L0,106.7l0,0l8.5,8.5L36,142.7c4.4,4.4,10.1,7.3,16.3,7.8
	c7.6,0.6,14.9-2.1,20.3-7.4l40.2-39.8l0,0L162,156c7.1,7.5,19.2,7.4,26.2-0.2L237,101l0,0l46.5,44.1l0,0c6.2,5.1,15.3,4.6,20.9-1.1
	L345.5,103L345.5,103z M149.2,68.9l-3.8-0.8c-1.6-0.4-3.2-0.5-4.8-0.5c-5.7,0-11.3,2.3-15.4,6.4l-61.1,60.7c-2.7,2.6-6.1,4-9.6,4
	s-7-1.3-9.6-4l-27.9-28l0,0l79.8-79.4c1.5-1.5,3.5-2.3,5.4-2.3s3.9,0.8,5.4,2.3L149.2,68.9C149.2,68.8,149.2,68.9,149.2,68.9z
	 M279.2,55.5L279.2,55.5c-0.4-0.1-11.8-3.2-19.6,4.6l-1.3,1.3l0,0l-37,37c-1.5,1.5-3.3,2.6-5.1,3.4c-1.9,0.8-3.8,1.1-5.8,1.1
	c-1.9,0-3.7-0.3-5.4-1c-2-0.8-3.9-1.9-5.5-3.5l-15.9-15.9L239,27.1c0.2-0.2,0.4-0.4,0.6-0.5c0.1,0,0.1-0.1,0.2-0.1
	c0.1-0.1,0.3-0.2,0.4-0.3c0.1,0,0.2-0.1,0.2-0.1c0.1-0.1,0.3-0.2,0.4-0.3c0.1,0,0.2-0.1,0.3-0.1c0.1-0.1,0.3-0.1,0.4-0.2
	c0.1,0,0.2-0.1,0.3-0.1s0.3-0.1,0.4-0.1c0.1,0,0.2,0,0.3-0.1c0.1,0,0.3-0.1,0.4-0.1c0.1,0,0.2,0,0.3,0s0.3,0,0.4-0.1
	c0.1,0,0.2,0,0.3,0s0.3,0,0.4,0l0,0c0.1,0,0.3,0,0.4,0s0.2,0,0.3,0s0.3,0,0.4,0.1c0.1,0,0.2,0,0.3,0s0.3,0.1,0.4,0.1
	c0.1,0,0.2,0,0.3,0.1c0.1,0,0.3,0.1,0.4,0.1c0.1,0,0.2,0.1,0.3,0.1c0.1,0.1,0.3,0.1,0.4,0.2c0.1,0,0.2,0.1,0.3,0.1
	c0.1,0.1,0.3,0.2,0.4,0.2c0.1,0,0.2,0.1,0.2,0.1c0.1,0.1,0.3,0.2,0.4,0.3c0.1,0,0.1,0.1,0.2,0.1c0.2,0.2,0.4,0.3,0.6,0.5L279.2,55.5
	L279.2,55.5L279.2,55.5z M399.9,50.1l-43.1,43.1l-46.9-46.9L336,20.2c9.4-9.4,24.6-9.4,33.9,0L399.9,50.1z"/>
<g class="st4">
	<path d="M543.5,73.8l-21,39.8c-5.9,0.7-10.8,0.7-16.7,0l-21.1-40.2v69.7c-6.7,0.7-16.9,0.7-23.9,0V32.4c7-0.7,18.5-0.7,25.2,0
		l28.3,54.4l28.3-54.4c6.9-0.7,18-0.7,24.8,0v110.8c-6.7,0.7-17,0.7-23.9,0L543.5,73.8L543.5,73.8z"/>
	<path d="M635.7,131.4h-1c-3,10.3-13,13.8-26.5,13.8c-15.9,0-27.7-6.2-27.7-24.3V58.8c5.7-0.8,17.9-0.8,23.4,0v51.3
		c0,13.1,6.1,15.1,14.1,15.1c10.2,0,13.9-2.8,16.5-11.6V58.8c5.7-0.8,17.9-0.8,23.4,0v84.9c-5.4,0.8-15.4,0.8-20.8,0L635.7,131.4z"
		/>
	<path d="M672.3,25.7c5.6-0.8,17.7-0.8,23.4,0v117.5c-5.7,0.8-17.9,0.8-23.4,0V25.7z"/>
	<path d="M737.3,77.1v32.5c0,14.6,6.4,15.6,12.5,15.6c3.4,0,6.9-0.3,9.8-1c0.8,5.6,0.8,13.9,0,19.5c-5.2,1-10.3,1.5-16.4,1.5
		c-15.4,0-29.3-6.2-29.3-27.5V77.1h-12c-0.8-5.6-0.8-12,0-17.5l12-0.8V37.1c5.9-0.7,17.7-0.7,23.4,0v21.3h22.3
		c0.8,5.6,0.8,13.1,0,18.7H737.3z"/>
	<path d="M790.5,45.3c-5.7,0.8-18.7,0.8-24.6,0l-0.3-18.7c5.9-0.8,19.5-0.8,25.4,0L790.5,45.3z M766.5,58.6c5.6-0.8,17.7-0.8,23.4,0
		v84.6c-5.7,0.8-17.9,0.8-23.4,0V58.6z"/>
	<path d="M801.9,84c0-21.3,14.4-27.7,36.2-27.7c8.5,0,16.7,0.5,25.9,2.3c0.8,5.9,0.8,13.8,0,19.3c-7.4-1.3-12.8-2-21.3-2
		c-9,0-17.4,1.5-17.4,12.9v23.6c0,11.3,8.4,12.8,17.4,12.8c8.7,0,13.8-0.8,21.3-2.5c0.8,5.6,0.8,13.8,0,19.2
		c-9.2,2.1-17.4,3.1-25.9,3.1c-22,0-36.2-7.1-36.2-27.4V84L801.9,84z"/>
	<path d="M927.6,91.4c0-13.3-5.9-15.1-14.3-15.1c-10.2,0-13.6,2.5-16.5,11.6v55.2c-5.7,0.8-17.9,0.8-23.4,0V25.7
		c5.6-0.8,17.7-0.8,23.4,0v30.6l-1.2,13.9h1c3-10.3,13-13.9,26.5-13.9c15.9,0,27.9,6.2,27.9,24.3v62.6c-5.9,0.8-17.7,0.8-23.4,0
		V91.4L927.6,91.4z"/>
	<path d="M1012.7,131.4h-1c-2.6,10-12.8,13.8-25.9,13.8c-15.4,0-27.4-6.7-27.4-24.4c0-22.8,12.8-27.7,30.8-27.7
		c8,0,14.3,0.7,22.3,1.6v-6c0-8.4-4.9-13.1-21.8-13.1c-6.5,0-14.6,0.7-24.3,2.3c-0.8-5.9-0.8-12.8,0-18.7
		c11.5-2.1,21.3-2.8,31.3-2.8c25.2,0,38.2,7,38.2,27V144c-5.4,0.8-15.4,0.8-20.8,0L1012.7,131.4z M1011.5,109.2
		c-5.2-1-10.8-1.6-14.6-1.6c-9.5,0-14.9,1.2-14.9,10.2c0,8.4,5.7,9.5,12.8,9.5c8.8,0,13.4-2.6,16.7-9.2V109.2L1011.5,109.2z"/>
	<path d="M1071,45.3c-5.7,0.8-18.7,0.8-24.6,0l-0.3-18.7c5.9-0.8,19.5-0.8,25.4,0L1071,45.3z M1047.1,58.6c5.6-0.8,17.7-0.8,23.4,0
		v84.6c-5.7,0.8-17.9,0.8-23.4,0V58.6z"/>
	<path d="M1139.1,91.4c0-13.3-5.9-15.1-14.3-15.1c-10.2,0-13.6,2.5-16.6,11.6v55.2c-5.7,0.8-17.9,0.8-23.4,0V58
		c5.4-0.7,15.4-0.7,20.8,0l1.5,12.3h1c2.9-10.3,12.9-13.9,26.6-13.9c15.9,0,27.9,6.2,27.9,24.3v62.6c-5.9,0.8-17.7,0.8-23.4,0
		L1139.1,91.4L1139.1,91.4z"/>
</g>
<g class="st4">
	<path d="M1192.5,32.4c6.9-0.7,18-0.7,24.9,0l23.8,77l23.3-77c6.9-0.7,17.5-0.7,24.1,0l-36.2,110.8c-7.1,0.7-15.6,0.7-22.4,0
		L1192.5,32.4z"/>
</g>
<g>
	<path d="M1357.7,107.8c-11,0.8-36.2,1-50.3,0.2v4.1c0,11.6,6.7,13.8,20.8,13.8c9.7,0,16.6-0.8,25.7-2.6c0.7,5.6,0.7,13.4,0,19
		c-11.5,2-20.7,2.9-31.5,2.9c-23.6,0-38.5-7.1-38.5-27.9V84.5c0-21.8,15.7-28.2,37.5-28.2c21.6,0,36.2,9.2,36.2,32.6v18.9H1357.7z
		 M1334.8,87.9c0-11.1-6.4-12.4-13.6-12.4s-13.8,1.3-13.8,12.4v6.4l12.6-0.8h14.8V87.9z"/>
	<path d="M1422.8,91.4c0-13.3-5.9-15.1-14.3-15.1c-10.2,0-13.6,2.5-16.6,11.6v55.2c-5.7,0.8-17.9,0.8-23.4,0V58
		c5.4-0.7,15.4-0.7,20.8,0l1.5,12.3h1c2.9-10.3,12.9-13.9,26.6-13.9c15.9,0,27.9,6.2,27.9,24.3v62.6c-5.9,0.8-17.7,0.8-23.4,0
		L1422.8,91.4L1422.8,91.4z"/>
	<path d="M1486.3,77.1v32.5c0,14.6,6.4,15.6,12.4,15.6c3.4,0,6.9-0.3,9.8-1c0.8,5.6,0.8,13.9,0,19.5c-5.3,1-10.3,1.5-16.4,1.5
		c-15.4,0-29.3-6.2-29.3-27.5V77.1h-12c-0.8-5.6-0.8-12,0-17.5l12-0.8V37.1c5.9-0.7,17.7-0.7,23.4,0v21.3h22.3
		c0.8,5.6,0.8,13.1,0,18.7C1508.6,77.1,1486.3,77.1,1486.3,77.1z"/>
	<path d="M1569.3,131.4h-1c-2.9,10.3-12.9,13.8-26.6,13.8c-15.9,0-27.7-6.2-27.7-24.3V58.8c5.7-0.8,17.9-0.8,23.4,0v51.3
		c0,13.1,6.1,15.1,14.1,15.1c10.2,0,13.9-2.8,16.6-11.6V58.8c5.7-0.8,17.9-0.8,23.4,0v84.9c-5.4,0.8-15.4,0.8-20.8,0L1569.3,131.4z"
		/>
	<path d="M1605.8,58c6.9-0.5,13.8-0.5,20.8,0l1.5,13.9h1c2.6-11,13.3-15.6,28.2-15.6c0.7,5.6,0.7,14.8,0,20.3
		c-18.5,0-23.6,3.8-28,15.6v51c-5.7,0.8-17.9,0.8-23.4,0L1605.8,58L1605.8,58z"/>
	<path d="M1734.2,107.8c-11,0.8-36.2,1-50.3,0.2v4.1c0,11.6,6.7,13.8,20.8,13.8c9.7,0,16.6-0.8,25.7-2.6c0.7,5.6,0.7,13.4,0,19
		c-11.5,2-20.7,2.9-31.5,2.9c-23.6,0-38.5-7.1-38.5-27.9V84.5c0-21.8,15.7-28.2,37.5-28.2c21.6,0,36.2,9.2,36.2,32.6v18.9H1734.2z
		 M1711.2,87.9c0-11.1-6.4-12.4-13.6-12.4s-13.8,1.3-13.8,12.4v6.4l12.6-0.8h14.8V87.9L1711.2,87.9z"/>
	<path d="M1802.5,123.2c0,15.9-12.4,22-32.8,22c-8.7,0-18.7-0.7-28-2.3c-0.8-5.9-0.8-12.6,0-18.4c8.8,1.5,17.7,2,24.6,2
		c6.6,0,12.8-0.5,12.8-6.1v-3.1c0-4.8-3.3-5.6-8.8-7.1l-14.8-4.3c-9.3-2.6-14.4-8.5-14.4-19.3v-9c0-15.2,13.1-21.3,33.9-21.3
		c8.2,0,16.7,0.7,26.2,2.6c0.8,5.9,0.8,12.4,0,18.2c-10-1.8-16.4-2.3-23.6-2.3c-7.1,0-13.1,0.5-13.1,6.1V84c0,4.1,3.8,5.6,8.8,7.1
		l13.8,3.8c10.2,2.8,15.4,7.9,15.4,20.3V123.2L1802.5,123.2z"/>
</g>
</svg>
